<svg width="1419" height="957" viewBox="0 0 1419 957" fill="none" xmlns="http://www.w3.org/2000/svg">
<rect width="1418.58" height="957" fill="#0C0826"/>
<g opacity="0.8">
<path d="M1136.45 550.72L930.477 669.655L724.506 550.72L930.477 431.786L1136.45 550.72Z" fill="url(#paint0_radial_37_25137)"/>
<path d="M15.5777 825.431C15.3304 824.69 14.5886 823.701 13.3523 823.206C10.3851 821.475 5.19256 821.475 2.22538 823.206C-0.741794 824.937 -0.741794 827.904 2.22538 829.635C5.19256 831.366 10.3851 831.366 13.3523 829.635C14.5886 828.893 15.3304 828.151 15.5777 827.409V827.162V825.431Z" fill="url(#paint1_radial_37_25137)"/>
<path fill-rule="evenodd" clip-rule="evenodd" d="M1377.28 1.29814C1374.32 -0.432713 1369.12 -0.432713 1366.16 1.29814C1363.93 2.53446 1363.19 4.51258 1364.43 6.24343L1192.58 105.397V230.76L1150.79 254.992V391.234L1007.38 474.068L985.123 461.21L1095.65 397.416V322.742L1095.16 322.495L969.298 249.799V224.578L1040.51 183.532C1043.48 184.769 1047.93 184.769 1050.65 183.038C1053.61 181.307 1053.61 178.34 1050.65 176.609C1047.68 174.878 1042.49 174.878 1039.52 176.609C1036.8 178.092 1036.55 180.565 1038.78 182.543L967.567 223.589V251.035L968.061 251.283L1093.92 323.979V396.674L1010.1 444.644V413.488L1048.42 391.482C1051.39 392.718 1055.84 392.718 1058.56 390.987C1061.53 389.256 1061.53 386.289 1058.56 384.558C1055.59 382.828 1050.4 382.828 1047.43 384.558C1044.71 386.042 1044.47 388.515 1046.69 390.493L1008.37 412.499V445.633L983.145 460.221L953.226 442.913V388.762L1009.6 356.123V318.539L1009.11 318.291L890.421 249.799C892.646 248.068 892.399 245.596 889.679 243.865C886.712 242.134 881.519 242.134 878.552 243.865C875.585 245.596 875.585 248.563 878.552 250.294C881.272 251.777 885.722 252.025 888.69 250.788L1007.87 319.528V354.887L953.226 386.536V349.2L952.731 348.952L880.035 306.917C882.261 305.186 882.014 302.714 879.294 300.983C876.326 299.252 871.134 299.252 868.167 300.983C865.2 302.714 865.2 305.681 868.167 307.412C870.887 308.895 875.337 309.143 878.305 307.906L951.247 350.189V441.677L930.23 429.561L895.613 449.589L864.21 431.539V387.526L863.716 387.278L780.882 339.556V298.016C782.613 298.016 784.344 297.521 785.58 296.779C788.547 295.049 788.547 292.081 785.58 290.351C782.613 288.62 777.421 288.62 774.453 290.351C771.486 292.081 771.486 295.049 774.453 296.779C775.69 297.521 777.421 298.016 779.151 298.016V340.545L779.646 340.793L862.48 388.515V430.55L727.72 352.661V270.075L800.911 227.793H867.919H868.167L983.392 161.278C986.359 162.515 990.81 162.515 993.53 160.784C996.497 159.053 996.497 156.086 993.53 154.355C990.563 152.624 985.37 152.624 982.403 154.355C979.683 155.839 979.436 158.558 981.661 160.289L867.672 226.062H804.125L1015.54 103.913C1018.5 105.149 1022.95 105.149 1025.67 103.418C1028.64 101.688 1028.64 98.7204 1025.67 96.9896C1022.71 95.2587 1017.51 95.2587 1014.55 96.9896C1011.83 98.4732 1011.58 101.193 1013.81 102.924L725.99 269.333V353.898L726.484 354.145L893.882 450.825L860.254 470.359L574.416 305.186V206.775L573.922 206.528L476.747 150.399C478.972 148.668 478.725 146.195 476.005 144.464C473.038 142.734 467.845 142.734 464.878 144.464C461.911 146.195 461.911 149.162 464.878 150.893C467.598 152.377 472.049 152.624 475.016 151.388L572.685 207.764V306.175L573.18 306.423L858.771 471.348L826.626 489.893L543.755 326.698H375.121L269.786 265.871V172.405C270.775 172.158 272.011 171.911 272.753 171.416C275.72 169.685 275.72 166.718 272.753 164.987C269.786 163.256 264.593 163.256 261.626 164.987C258.659 166.718 258.659 169.685 261.626 171.416C263.357 172.405 265.582 172.9 267.808 172.653V266.86L268.302 267.108L374.626 328.429H543.261L781.871 466.156H733.902L652.552 419.175H589.747H589.499L502.462 469.37C499.495 468.134 495.044 468.134 492.324 469.865C489.357 471.596 489.357 474.563 492.324 476.294C495.292 478.024 500.484 478.024 503.451 476.294C506.171 474.81 506.418 472.09 504.193 470.359L590.241 420.659H652.057L733.407 467.639H784.839L824.648 490.635L739.095 540.088L714.615 525.994V489.151L652.799 453.545C655.025 451.814 654.777 449.342 652.057 447.611C649.09 445.88 643.898 445.88 640.93 447.611C637.963 449.342 637.963 452.309 640.93 454.04C643.65 455.523 648.101 455.771 651.068 454.534L712.885 490.14V525.005L646.865 487.173H615.709H615.462L578.125 508.685C575.158 507.449 570.707 507.449 567.987 509.18C565.02 510.911 565.02 513.878 567.987 515.609C570.955 517.339 576.147 517.339 579.114 515.609C581.834 514.125 582.081 511.405 579.856 509.674L615.957 488.904H646.37L737.116 541.324L720.55 550.967L773.217 581.381L748.491 595.722H711.154L684.449 580.392C686.674 578.661 686.18 576.188 683.46 574.705C680.493 572.974 675.3 572.974 672.333 574.705C669.366 576.436 669.366 579.403 672.333 581.134C675.053 582.865 679.504 582.865 682.471 581.628L710.412 597.701H745.029L682.224 634.048L534.359 548.742H428.035H427.788L367.95 583.359C364.983 582.123 360.532 582.123 357.812 583.854C354.845 585.584 354.845 588.552 357.812 590.283C360.779 592.013 365.972 592.013 368.939 590.283C371.659 588.799 371.906 586.079 369.681 584.348L428.53 550.473H534.112L648.101 616.245H599.39L551.915 588.057C554.141 586.326 553.893 583.854 551.173 582.123C548.206 580.392 543.014 580.392 540.046 582.123C537.079 583.854 537.079 586.821 540.046 588.552C542.766 590.035 547.217 590.283 550.184 589.046L599.143 617.234H651.563L680.987 634.296L605.819 677.567H365.725L179.534 570.254C181.76 568.523 181.512 566.051 178.793 564.32C175.825 562.589 170.633 562.589 167.666 564.32C164.699 566.051 164.699 569.018 167.666 570.749C170.386 572.232 174.836 572.48 177.803 571.243L365.477 679.545H602.852L573.18 696.854H395.396H395.149L307.617 747.543C304.65 746.307 300.199 746.307 297.48 748.038C294.512 749.768 294.512 752.735 297.48 754.466C300.447 756.197 305.639 756.197 308.606 754.466C311.326 752.983 311.574 750.263 309.348 748.532L395.891 698.585H573.674H573.922L775.195 582.37L797.449 595.228L585.79 717.377H431.003H430.755L243.823 825.431H15.5777V827.162H244.318H244.565L362.016 759.412V799.469L284.622 844.223C281.655 842.987 277.204 842.987 274.484 844.718C271.517 846.449 271.517 849.416 274.484 851.147C277.451 852.878 282.644 852.878 285.611 851.147C288.331 849.663 288.578 846.943 286.353 845.212L363.746 800.458V758.67H363.252L431.497 719.355H586.285H586.532L799.18 596.464L824.648 611.053L411.716 849.416V957H413.447V850.405L826.379 612.042L857.782 630.092L644.887 752.983V774.989L607.055 796.749V847.191L533.865 889.473C530.898 888.237 526.447 888.237 523.727 889.967C522.491 890.709 521.996 891.451 521.502 892.193C520.578 899 537.078 897.5 536.832 892.193C536.585 891.698 536.09 890.956 535.596 890.462L608.786 848.18V797.738L644.887 776.967V857.823L666.151 870.186L536.832 957H540.294L667.882 871.175L809.578 957H813.039L646.618 856.834V753.972L859.512 631.081L888.195 647.648L737.611 734.685C734.644 733.449 730.193 733.449 727.473 735.18C724.506 736.911 724.506 739.878 727.473 741.609C730.44 743.339 735.633 743.339 738.6 741.609C741.32 740.125 741.567 737.652 739.342 735.674L889.926 648.637L917.62 664.462L737.364 768.56H688.405V770.539H737.858H738.105L919.351 665.946L930.477 672.375L939.132 667.429L982.403 692.403V727.02L946.797 747.543H890.915H890.668L829.346 782.902C826.379 781.665 821.928 781.665 819.208 783.396C816.241 785.127 816.241 788.094 819.208 789.825C822.175 791.556 827.368 791.556 830.335 789.825C833.055 788.342 833.302 785.622 831.077 783.891L891.41 749.027H943.582L838.742 809.606C835.775 808.123 831.324 808.37 828.357 809.854C825.39 811.585 825.39 814.552 828.357 816.282C831.324 818.013 836.517 818.013 839.484 816.282C842.204 814.799 842.451 812.326 840.473 810.595L971.276 734.932V751.746L893.388 796.749V828.398L830.088 864.994C827.121 863.757 822.67 863.757 819.95 865.488C816.983 867.219 816.983 870.186 819.95 871.917C822.917 873.648 828.11 873.648 831.077 871.917C833.797 870.433 834.044 867.714 831.819 865.983L895.119 829.388V797.738L973.007 752.736V733.943L983.886 727.762V690.919L940.615 665.946L969.05 649.626L1057.82 701.057V759.412L997.486 794.276C994.519 792.792 990.068 793.04 987.101 794.523C984.134 796.254 984.134 799.221 987.101 800.952C990.068 802.683 995.261 802.683 998.228 800.952C1000.95 799.469 1001.19 796.996 999.217 795.265L1057.82 761.39V808.617L1011.58 835.322V957H1013.31V836.311L1057.82 810.595V957H1059.55V700.068L970.781 648.39L1002.68 630.092L1118.89 697.101V856.834L1174.77 888.978V957H1176.51V887.989L1120.62 855.845V696.112L1004.41 629.103L1028.15 615.504L1184.91 706.003V842.245L1372.12 957H1375.58L1186.64 841.256V705.013L1029.88 614.515L1068.2 592.508L1329.07 743.092V810.843L1418.58 862.521V860.543L1331.05 809.854V742.103L1184.42 657.291H1300.39L1418.58 725.536V723.558L1300.63 655.56H1180.96L1069.93 591.519L1114.44 565.803L1209.89 620.943H1363.19L1418.33 652.841V650.862L1406.21 643.939H1418.33V642.208H1403.25L1363.68 619.46H1210.38L1183.68 604.129H1248.95H1249.2L1281.84 585.337H1418.08L1418.58 585.585V583.606H1285.05L1321.9 562.342C1324.86 563.578 1329.32 563.578 1332.03 561.847C1335 560.116 1335 557.149 1332.03 555.418C1329.07 553.687 1323.88 553.687 1320.91 555.418C1318.19 556.902 1317.94 559.622 1320.17 561.353L1248.71 602.646H1180.96L1116.42 565.556L1140.16 551.709L1124.83 542.808H1169.33L1227.44 576.436C1225.22 578.167 1225.46 580.639 1228.18 582.37C1231.15 584.101 1236.34 584.101 1239.31 582.37C1242.28 580.639 1242.28 577.672 1239.31 575.941C1236.59 574.458 1232.14 574.21 1229.17 575.447L1169.58 541.077H1121.61L1088.97 522.285L1109 510.663H1144.61L1175.76 492.613H1199.01L1251.67 523.027C1249.2 524.757 1249.45 527.23 1252.42 528.961C1255.38 530.692 1260.58 530.692 1263.54 528.961C1266.51 527.23 1266.51 524.263 1263.54 522.532C1260.82 521.048 1256.62 520.801 1253.65 522.038L1199.75 490.882H1175.52L1144.36 508.932H1112.22L1176.26 471.843H1210.88L1283.08 513.383H1418.58V511.652H1283.57L1211.12 469.37H1175.52H1175.27L1087 520.307L1063.75 506.954L1163.4 449.342H1233.62L1291.73 482.722H1418.08V480.992H1292.23L1237.33 449.342H1418.08V447.611H1163.15H1162.91L1062.27 505.965L1036.06 490.882L1175.02 410.521H1418.33V408.79H1241.04L1418.33 306.423V304.445L1237.58 408.79H1176.26L1308.05 332.633V315.819L1371.1 279.471C1374.07 280.707 1378.52 280.707 1381.24 278.976C1384.21 277.245 1384.21 274.278 1381.24 272.547C1378.27 270.817 1373.08 270.817 1370.11 272.547C1367.39 274.031 1367.15 276.504 1369.37 278.482L1335 298.263V252.272L1418.33 204.302V202.324L1333.27 251.283V299.252L1306.32 314.83V331.644L1173.54 408.296L1174.03 409.038L1034.33 489.646L1008.86 475.057L1152.27 392.224V255.981L1418.33 102.429V100.451L1194.31 229.771V106.633L1365.91 7.72702L1366.16 7.97429C1369.12 9.70514 1374.32 9.70514 1377.28 7.97429C1380.25 5.99617 1380.25 3.02899 1377.28 1.29814ZM930.477 669.655L1136.45 550.72L930.477 431.786L724.506 550.72L930.477 669.655Z" fill="url(#paint2_radial_37_25137)"/>
</g>
<g opacity="0.1">
<path d="M1136.94 539.841L974.49 633.554L812.037 539.841L974.49 446.127L1136.94 539.841Z" fill="#32DEF6"/>
<path fill-rule="evenodd" clip-rule="evenodd" d="M1418.33 214.44L1381.74 235.705V303.95L1056.34 491.871L1031.61 477.53L1199.5 380.602V363.294L1229.17 346.232V306.423L1286.79 273.042C1289.26 274.031 1292.47 274.031 1294.7 272.795C1297.17 271.311 1297.17 269.086 1294.7 267.849C1292.23 266.366 1288.27 266.366 1286.04 267.849C1283.82 269.086 1283.57 271.064 1285.3 272.547L1227.69 305.928V345.738L1199.25 362.057V298.263L1199.01 298.016L1182.69 288.62L1281.1 231.749V167.955L1351.07 127.65C1353.55 128.639 1356.76 128.639 1358.99 127.403C1361.46 125.92 1361.46 123.694 1358.99 122.458C1356.51 120.974 1352.56 120.974 1350.33 122.458C1348.11 123.694 1347.86 125.672 1349.59 127.156L1279.61 167.46V231.254L1181.2 288.125L1021.22 194.906V123.447C1022.46 123.447 1023.94 122.952 1024.93 122.458C1027.41 120.974 1027.41 118.749 1024.93 117.513C1022.46 116.029 1018.5 116.029 1016.28 117.513C1013.81 118.996 1013.81 121.221 1016.28 122.458C1017.27 122.952 1018.5 123.447 1019.99 123.447V195.648L1020.23 195.895L1116.42 251.53H1046.2L989.574 218.891C991.304 217.407 991.057 215.429 988.832 214.193C986.359 212.709 982.403 212.709 980.177 214.193C977.705 215.677 977.705 217.902 980.177 219.138C982.403 220.375 985.865 220.622 988.09 219.386L1045.7 252.766H1118.65L1197.77 298.51V379.613L1030.12 476.541L1007.62 463.436L1126.31 394.943C1128.78 395.933 1132 395.933 1134.22 394.696C1136.7 393.213 1136.7 390.987 1134.22 389.751C1131.75 388.267 1127.79 388.267 1125.57 389.751C1123.34 390.987 1123.1 392.965 1124.83 394.449L1006.14 462.941L984.381 450.331L1126.56 368.239H1165.13C1165.38 368.981 1165.87 369.475 1166.86 369.97C1169.33 371.453 1173.29 371.453 1175.52 369.97C1177.99 368.486 1177.99 366.261 1175.52 365.024C1173.04 363.541 1169.09 363.541 1166.86 365.024C1165.87 365.519 1165.38 366.261 1165.13 366.755H1126.06H1125.82L983.145 449.589L974.49 444.644L974.243 444.891L967.814 448.6L933.692 429.066V401.62L961.88 385.3H1005.89L1054.6 357.359C1057.08 358.348 1060.29 358.348 1062.52 357.112C1064.99 355.628 1064.99 353.403 1062.52 352.167C1060.04 350.683 1056.09 350.683 1053.86 352.167C1051.64 353.403 1051.39 355.381 1053.12 356.865L1005.4 383.817H963.858L1046.44 336.094C1048.92 337.084 1052.38 337.084 1054.6 335.847C1057.08 334.364 1057.08 332.138 1054.6 330.902C1052.13 329.418 1048.18 329.418 1045.95 330.902C1043.72 332.138 1043.48 334.116 1045.21 335.353L942.099 394.943V381.838L1003.42 346.48V321.506L1053.37 292.576C1055.84 293.565 1059.05 293.565 1061.28 292.329C1063.75 290.845 1063.75 288.62 1061.28 287.383C1058.81 285.9 1054.85 285.9 1052.63 287.383C1050.4 288.62 1050.15 290.598 1051.88 292.081L1001.94 321.011V345.985L940.615 381.344V396.18L931.961 401.125V430.055L966.083 449.589L943.83 462.447L873.854 421.895V375.904L921.328 348.21C923.801 349.2 927.263 349.2 929.488 347.963C931.961 346.48 931.961 344.254 929.488 343.018C927.016 341.534 923.059 341.534 920.834 343.018C918.608 344.254 918.361 346.232 920.092 347.469L873.854 374.173V337.084L910.449 316.066V246.09C911.685 246.09 913.169 245.596 914.158 245.101C916.63 243.618 916.63 241.392 914.158 240.156C911.685 238.672 907.729 238.672 905.504 240.156C903.031 241.639 903.031 243.865 905.504 245.101C906.493 245.596 907.729 246.09 909.213 246.09V315.077L874.101 335.353V212.215H872.617V422.637L942.593 463.189L917.372 477.777L825.884 424.863V299.005L781.871 273.537V226.062L743.051 203.561C744.782 202.077 744.534 200.099 742.309 198.863C739.836 197.379 735.88 197.379 733.655 198.863C731.182 200.346 731.182 202.572 733.655 203.808C735.88 205.044 739.342 205.291 741.567 204.055L780.388 226.556V274.031L824.401 299.499V425.357L915.889 478.272L897.344 488.904L773.711 417.445V310.132L773.464 309.884L664.173 246.832C665.904 245.348 665.657 243.37 663.431 242.134C660.959 240.65 657.003 240.65 654.777 242.134C652.305 243.618 652.305 245.843 654.777 247.079C657.003 248.316 660.464 248.563 662.69 247.326L772.475 310.626V417.939L772.722 418.186L895.86 489.399L865.694 506.707L660.217 388.02V334.611L659.97 334.364L487.874 234.963C489.604 233.48 489.357 231.502 487.132 230.265C484.659 228.782 480.703 228.782 478.477 230.265C476.005 231.749 476.005 233.974 478.477 235.211C480.703 236.447 484.165 236.694 486.39 235.458L658.733 335.105V388.515L658.981 388.762L774.206 455.276H682.718L576.889 394.202C578.62 392.718 578.372 390.74 576.147 389.504C573.674 388.02 569.718 388.02 567.493 389.504C565.02 390.987 565.02 393.213 567.493 394.449C569.718 395.685 573.18 395.933 575.405 394.696L682.224 456.512H776.431L863.963 506.954L828.852 527.23L753.683 483.712H632.771L495.291 404.34H419.134L387.979 386.289C389.709 384.806 389.462 382.827 387.237 381.591C384.764 380.108 380.808 380.108 378.583 381.591C376.11 383.075 376.11 385.3 378.583 386.536C380.808 387.773 384.27 388.02 386.495 386.784L418.639 405.329H494.797L598.648 465.167H508.891L466.361 441.676C468.092 440.193 467.845 438.215 465.62 436.978C463.147 435.495 459.191 435.495 456.965 436.978C454.493 438.462 454.493 440.687 456.965 441.924C459.191 443.16 462.652 443.407 464.878 442.171L509.138 467.639H601.615L632.771 485.69H753.683L774.701 497.806H723.517H723.269L697.554 512.641H590.241L560.075 495.086H499.248C499 494.344 498.506 493.849 497.517 493.355C495.044 491.871 491.088 491.871 488.863 493.355C486.39 494.838 486.39 497.064 488.863 498.3C491.335 499.784 495.291 499.784 497.517 498.3C498.506 497.806 499 497.064 499.248 496.569H559.58L589.747 514.125H695.081L666.151 530.939C663.679 529.95 660.464 529.95 658.239 531.186C655.766 532.67 655.766 534.895 658.239 536.132C660.712 537.615 664.668 537.615 666.893 536.132C669.119 534.895 669.366 532.917 667.635 531.434L724.011 498.795H777.42L828.11 528.219L809.318 539.099L810.307 539.593L821.434 546.022H786.322L740.331 519.565C742.062 518.081 741.814 516.103 739.589 514.867C737.116 513.383 733.16 513.383 730.935 514.867C728.462 516.35 728.462 518.576 730.935 519.812C733.16 521.048 736.622 521.296 738.847 520.059L785.827 547.259H823.659L849.374 562.094L833.549 571.243H805.609H805.361L780.882 585.337H762.584L721.044 561.353C723.022 559.869 722.775 557.891 720.549 556.655C718.077 555.171 714.121 555.171 711.895 556.655C709.423 558.138 709.423 560.364 711.895 561.6C714.121 562.836 717.335 563.083 719.808 562.094L762.337 586.574H781.377H781.624L806.103 572.48H831.324L780.882 601.657H753.683L696.812 568.771H525.458L419.134 507.449C420.865 505.965 420.865 503.987 418.639 502.751C416.167 501.267 412.21 501.267 409.985 502.751C407.512 504.234 407.512 506.46 409.985 507.696C412.21 508.933 415.425 509.18 417.898 508.191L525.21 570.254H696.318L753.188 603.14H781.129H781.377L850.858 563.083L869.156 573.716L790.526 618.965H735.138L689.394 592.508H571.944C571.696 591.766 571.202 591.272 570.213 590.777C567.74 589.294 563.784 589.294 561.558 590.777C559.086 592.261 559.086 594.486 561.558 595.722C564.031 597.206 567.987 597.206 570.213 595.722C571.202 595.228 571.696 594.486 571.944 593.992H688.9L732.171 618.965H566.751H566.504L408.996 709.959C406.523 708.97 403.309 708.97 401.084 710.206C398.611 711.69 398.611 713.915 401.084 715.151C403.556 716.635 407.513 716.635 409.738 715.151C411.963 713.915 412.21 711.937 410.48 710.453L567.245 619.954H790.773H791.02L870.392 574.21L891.162 586.079L781.624 649.379H588.757H588.51L419.628 746.801H222.806L107.828 681.77C109.559 680.287 109.311 678.309 107.086 677.072C104.613 675.589 100.657 675.589 98.4316 677.072C95.959 678.556 95.959 680.781 98.4316 682.018C100.657 683.254 104.119 683.501 106.344 682.265L222.064 749.026H419.628H419.876L588.757 651.604H729.204L523.232 770.786V802.188L440.893 849.663C438.421 848.674 435.206 848.674 432.981 849.91C430.508 851.394 430.508 853.619 432.981 854.856C435.453 856.339 439.41 856.339 441.635 854.856C443.86 853.619 444.108 851.641 442.377 850.158L524.716 802.683V771.28L732.418 651.357H780.635L676.784 711.442V724.547L626.836 753.725C624.364 752.735 621.149 752.735 618.924 753.972C616.451 755.455 616.451 757.681 618.924 758.917C621.396 760.401 625.353 760.401 627.578 758.917C629.803 757.681 630.051 755.703 628.32 754.219L655.272 738.641V774.742L499 864.994C496.528 864.005 493.313 864.005 491.088 865.241C488.615 866.724 488.615 868.95 491.088 870.186C493.561 871.67 497.517 871.67 499.742 870.186C501.968 868.95 502.215 866.972 500.484 865.488L656.755 775.237V737.405L678.02 725.042V711.937L782.86 651.357L782.613 650.862L892.646 587.315L912.674 598.937L799.427 664.709V772.022L477.858 957H483.578L766.293 792.792V889.967L666.078 957H668.798L767.53 890.709V792.051L800.416 773.011V665.698L913.416 600.42L930.972 610.558L843.687 661V719.849L843.935 720.096L943.088 777.215V797.243L886.959 829.635C884.486 828.646 881.272 828.646 879.046 829.882C876.574 831.366 876.574 833.591 879.046 834.827C881.519 836.311 885.475 836.311 887.701 834.827C889.926 833.591 890.173 831.613 888.442 830.129L944.571 797.738V776.226L944.324 775.978L845.171 718.86V661.495L910.943 623.416V647.895L880.777 665.451C878.304 664.462 875.09 664.462 872.865 665.698C870.392 667.182 870.392 669.407 872.865 670.644C875.337 672.127 879.293 672.127 881.519 670.644C883.744 669.407 883.991 667.429 882.261 665.946L912.427 648.39V622.18L932.455 610.558L955.945 624.158V666.935L911.438 692.65V722.075L911.685 722.322L1005.15 776.226C1003.42 777.709 1003.67 779.687 1005.89 780.924C1008.37 782.407 1012.32 782.407 1014.55 780.924C1017.02 779.44 1017.02 777.215 1014.55 775.978C1012.32 774.742 1008.86 774.495 1006.63 775.731L912.674 721.58V693.639L955.698 668.666V698.09L1013.31 731.223C1011.58 732.707 1011.83 734.685 1014.05 735.921C1016.53 737.405 1020.48 737.405 1022.71 735.921C1025.18 734.438 1025.18 732.212 1022.71 730.976C1020.48 729.74 1017.02 729.493 1014.79 730.729L957.182 697.595V625.394L973.749 635.037L973.996 634.79L1000.95 619.213L1025.67 633.554V668.171L1091.2 706.002V738.641C1089.96 738.641 1088.48 739.136 1087.49 739.63C1085.02 741.114 1085.02 743.339 1087.49 744.576C1089.96 746.059 1093.92 746.059 1096.14 744.576C1098.62 743.092 1098.62 740.867 1096.14 739.63C1095.16 739.136 1093.92 738.641 1092.44 738.641V705.261L1027.65 667.429V634.296L1133.98 695.617V760.648L1076.36 794.029H1023.45H1023.2L932.455 846.449C929.983 845.46 926.768 845.46 924.543 846.696C922.07 848.18 922.07 850.405 924.543 851.641C927.015 853.125 930.972 853.125 933.197 851.641C935.422 850.405 935.67 848.427 933.939 846.943L1023.94 795.018H1074.14L907.482 891.204C905.009 890.215 901.795 890.215 899.569 891.451C897.097 892.935 897.097 895.16 899.569 896.396C902.042 897.88 905.998 897.88 908.223 896.396C910.382 895.197 910.68 893.3 909.116 891.833L909.707 891.451L1135.71 760.895V694.381L1135.46 694.134L1003.42 617.976L1029.88 602.646L1255.14 732.707V810.348L1332.04 854.856C1330.3 856.339 1330.55 858.317 1332.78 859.554C1335.25 861.037 1339.21 861.037 1341.43 859.554C1343.9 858.07 1343.9 855.845 1341.43 854.608C1339.21 853.372 1335.74 853.125 1333.52 854.361L1256.62 809.854V732.212L1256.37 731.965L1031.36 602.151L1056.58 587.563L1279.37 716.14H1412.4L1418.58 719.849V718.366L1412.64 714.904H1279.61L1091.45 606.355H1129.28L1193.57 643.444H1243.02H1243.27L1311.76 603.882C1314.23 604.871 1317.45 604.871 1319.67 603.635C1322.14 602.151 1322.14 599.926 1319.67 598.69C1317.2 597.206 1313.24 597.206 1311.02 598.69C1308.79 599.926 1308.54 601.904 1310.28 603.388L1242.53 642.455H1193.81L1129.53 605.366H1088.97L1057.57 587.315L1125.07 548.248L1144.36 559.374V588.552L1193.07 616.74C1191.34 618.224 1191.59 620.202 1193.81 621.438C1196.29 622.922 1200.24 622.922 1202.47 621.438C1204.94 619.954 1204.94 617.729 1202.47 616.493C1200.24 615.256 1196.78 615.009 1194.56 616.245L1145.84 588.057V560.611L1197.77 590.53H1222.5H1222.74L1252.17 573.469C1254.64 574.458 1257.86 574.458 1260.08 573.221C1262.55 571.738 1262.55 569.512 1260.08 568.276C1257.61 566.792 1253.65 566.792 1251.43 568.276C1249.2 569.512 1248.95 571.49 1250.69 572.974L1222.25 589.541H1198.26L1126.56 547.259L1139.66 539.841L1138.67 539.346L1098.12 516.103L1117.66 504.976H1147.08L1168.1 517.092C1166.37 518.576 1166.62 520.307 1168.84 521.543C1171.31 523.027 1175.27 523.027 1177.49 521.543C1179.97 520.059 1179.97 517.834 1177.49 516.598C1175.27 515.361 1171.81 515.114 1169.33 516.35L1147.33 503.74H1119.88L1169.33 475.057L1286.04 542.313H1369.87H1370.11L1417.34 515.114C1417.59 515.361 1418.08 515.361 1418.33 515.361V508.932C1417.59 509.18 1417.09 509.427 1416.6 509.674C1414.37 510.911 1414.13 512.889 1415.86 514.372L1369.37 541.077H1286.29L1196.29 489.151H1234.86L1272.44 510.911C1270.71 512.394 1270.96 514.372 1273.19 515.609C1275.66 517.092 1279.61 517.092 1281.84 515.609C1284.31 514.125 1284.31 511.9 1281.84 510.663C1279.61 509.427 1276.15 509.18 1273.93 510.416L1235.35 488.162H1194.06L1170.82 474.81L1229.91 440.687H1418.08V439.204H1232.14L1255.63 425.604H1395.58H1395.83L1418.08 412.747V411.263L1395.33 424.368H1255.38H1255.14L1096.39 516.103L1078.84 505.965L1245.74 409.532H1367.64H1367.89L1418.08 380.602V377.882L1367.39 407.307H1245.49H1245.25L1077.6 503.987L1057.57 492.366L1382.97 304.445V236.2L1418.33 215.924V214.44ZM974.49 633.554L1136.94 539.841L974.49 446.127L812.037 539.841L974.49 633.554Z" fill="#32DEF6"/>
</g>
<g opacity="0.3">
<path opacity="0.3" d="M1270.22 755.208V744.329L1267.25 742.598C1266.51 747.79 1260.33 751.252 1255.14 751.994L1220.52 772.269L1205.44 777.709L1157.22 752.736L1158.46 751.994C1154.25 750.016 1152.03 745.565 1149.8 741.609L1146.59 743.587L1144.61 744.081V755.208C1144.61 757.434 1146.09 759.412 1148.81 761.143L1197.28 789.083C1202.96 792.298 1212.11 792.298 1217.8 789.083L1266.26 761.143C1268.98 759.412 1270.47 757.434 1270.47 755.208C1270.22 755.455 1270.22 755.455 1270.22 755.208Z" fill="url(#paint3_linear_37_25137)"/>
<path opacity="0.3" d="M1255.14 751.994L1220.52 772.269L1207.41 776.967V791.803C1211.12 791.803 1214.83 791.062 1217.8 789.331L1266.26 761.39C1268.98 759.659 1270.47 757.681 1270.47 755.455V755.208V744.329L1267.75 742.845H1267.5C1266.26 747.79 1260.08 751.252 1255.14 751.994Z" fill="#0F054C"/>
<g opacity="0.3">
<path opacity="0.3" d="M1197.03 778.204L1148.57 750.263C1142.88 747.049 1142.88 741.609 1148.57 738.394L1197.03 710.453C1202.72 707.239 1211.86 707.239 1217.55 710.453L1266.02 738.394C1271.7 741.609 1271.7 747.049 1266.02 750.263L1217.55 778.204C1211.86 781.418 1202.72 781.418 1197.03 778.204Z" fill="url(#paint4_linear_37_25137)"/>
</g>
<g opacity="0.3">
<path opacity="0.3" d="M1197.03 778.204L1148.57 750.263C1142.88 747.049 1142.88 741.609 1148.57 738.394L1197.03 710.453C1202.72 707.239 1211.86 707.239 1217.55 710.453L1266.02 738.394C1271.7 741.609 1271.7 747.049 1266.02 750.263L1217.55 778.204C1211.86 781.418 1202.72 781.418 1197.03 778.204Z" fill="#0F054C"/>
</g>
</g>
<path d="M1207.17 742.845C1203.95 742.845 1200.49 742.103 1198.02 740.62L1149.55 712.679C1147.08 711.195 1145.6 709.217 1145.6 707.239C1145.6 705.261 1147.08 703.283 1149.55 701.799L1198.02 673.858C1202.96 670.891 1211.12 670.891 1216.32 673.858L1264.78 701.799C1267.25 703.283 1268.74 705.261 1268.74 707.239C1268.74 709.464 1267.25 711.195 1264.78 712.679L1216.32 740.62C1213.84 742.103 1210.63 742.845 1207.17 742.845ZM1198.51 739.878C1203.21 742.598 1211.12 742.598 1215.82 739.878L1264.29 711.937C1266.51 710.701 1267.75 708.97 1267.75 707.239C1267.75 705.508 1266.51 703.777 1264.29 702.541L1216.07 674.6C1211.37 671.88 1203.46 671.88 1198.76 674.6L1150.3 702.541C1148.07 703.777 1146.83 705.508 1146.83 707.239C1146.83 708.97 1148.07 710.701 1150.3 711.937L1198.51 739.878Z" fill="#32DEF6"/>
<path opacity="0.4" d="M1270.22 696.359V679.792L1267.25 678.062C1266.51 683.254 1260.33 686.716 1255.14 687.458L1220.52 707.733L1205.44 713.173L1157.22 688.199L1158.46 687.458C1154.25 685.48 1152.03 681.029 1149.8 677.073L1146.59 679.051L1144.61 679.545V696.359C1144.61 698.585 1146.09 700.563 1148.81 702.294L1197.28 730.234C1202.96 733.449 1212.11 733.449 1217.8 730.234L1266.26 702.294C1268.98 700.563 1270.47 698.585 1270.47 696.359C1270.22 696.606 1270.22 696.606 1270.22 696.359Z" fill="#32DEF6"/>
<path d="M1270.22 681.771V670.891L1267.25 669.16C1266.51 674.353 1260.33 677.814 1255.14 678.556L1220.52 698.832L1205.44 704.272L1157.22 679.298L1158.46 678.556C1154.25 676.578 1152.03 672.127 1149.8 668.171L1146.59 670.149L1144.61 670.644V681.771C1144.61 683.996 1146.09 685.974 1148.81 687.705L1197.28 715.646C1202.96 718.86 1212.11 718.86 1217.8 715.646L1266.26 687.705C1268.98 685.974 1270.47 683.996 1270.47 681.771C1270.22 682.018 1270.22 681.771 1270.22 681.771Z" fill="url(#paint5_linear_37_25137)"/>
<path opacity="0.3" d="M1255.14 678.309L1220.52 698.585L1207.41 703.283V718.118C1211.12 718.118 1214.83 717.377 1217.8 715.646L1266.26 687.705C1268.98 685.974 1270.47 683.996 1270.47 681.771V681.523V670.644L1267.75 669.16H1267.5C1266.26 674.353 1260.08 677.567 1255.14 678.309Z" fill="#0F054C"/>
<path d="M1197.03 704.766L1148.57 676.825C1142.88 673.611 1142.88 668.171 1148.57 664.957L1197.03 637.016C1202.72 633.801 1211.86 633.801 1217.55 637.016L1266.02 664.957C1271.7 668.171 1271.7 673.611 1266.02 676.825L1217.55 704.766C1211.86 707.981 1202.72 707.981 1197.03 704.766Z" fill="url(#paint6_linear_37_25137)"/>
<path d="M1266.02 676.825L1217.55 704.766C1211.86 707.981 1202.72 707.981 1197.03 704.766L1148.57 676.825C1146.09 675.342 1144.61 673.611 1144.36 671.633C1144.11 674.105 1145.35 676.331 1148.57 678.309L1197.03 706.25C1202.72 709.464 1211.86 709.464 1217.55 706.25L1266.02 678.309C1269.23 676.578 1270.47 674.105 1270.22 671.633C1269.97 673.364 1268.49 675.342 1266.02 676.825Z" fill="white"/>
<g opacity="0.3">
<path opacity="0.3" d="M739.342 740.62V729.74L736.375 728.009C735.633 733.202 729.451 736.663 724.259 737.405L689.642 757.681L674.559 763.121L626.342 738.147L627.578 737.405C623.375 735.427 621.149 730.976 618.924 727.02L615.71 728.998L613.731 729.493V740.62C613.731 742.845 615.215 744.823 617.935 746.554L666.399 774.495C672.086 777.709 681.235 777.709 686.922 774.495L735.386 746.554C738.106 744.823 739.589 742.845 739.589 740.62C739.342 740.867 739.342 740.867 739.342 740.62Z" fill="url(#paint7_linear_37_25137)"/>
<path opacity="0.3" d="M724.506 737.405L689.889 757.681L676.784 762.379V777.215C680.493 777.215 684.202 776.473 687.169 774.742L735.633 746.801C738.353 745.07 739.837 743.092 739.837 740.867V740.62V729.74L737.117 728.256H736.869C735.386 733.202 729.452 736.663 724.506 737.405Z" fill="#0F054C"/>
<g opacity="0.3">
<path opacity="0.3" d="M666.152 763.615L617.688 735.674C612.001 732.46 612.001 727.02 617.688 723.806L666.152 695.865C671.839 692.65 680.987 692.65 686.675 695.865L735.138 723.806C740.825 727.02 740.825 732.46 735.138 735.674L686.922 763.615C681.235 766.83 671.839 766.83 666.152 763.615Z" fill="url(#paint8_linear_37_25137)"/>
</g>
<g opacity="0.3">
<path opacity="0.3" d="M666.152 763.615L617.688 735.674C612.001 732.46 612.001 727.02 617.688 723.806L666.152 695.865C671.839 692.65 680.987 692.65 686.675 695.865L735.138 723.806C740.825 727.02 740.825 732.46 735.138 735.674L686.922 763.615C681.235 766.83 671.839 766.83 666.152 763.615Z" fill="#0F054C"/>
</g>
</g>
<path d="M676.537 723.064C673.322 723.064 669.86 722.322 667.388 720.838L618.924 692.897C616.451 691.414 614.968 689.436 614.968 687.458C614.968 685.48 616.451 683.501 618.924 682.018L667.388 654.077C672.333 651.11 680.493 651.11 685.685 654.077L734.149 682.018C736.622 683.501 738.106 685.48 738.106 687.458C738.106 689.683 736.622 691.414 734.149 692.897L685.685 720.838C683.213 722.322 679.751 723.064 676.537 723.064ZM676.537 652.593C673.322 652.593 670.355 653.335 667.882 654.571L619.419 682.512C617.193 683.749 615.957 685.48 615.957 687.21C615.957 688.941 617.193 690.672 619.419 691.908L667.882 719.849C672.58 722.569 680.493 722.569 685.191 719.849L733.655 691.908C735.88 690.672 737.117 688.941 737.117 687.21C737.117 685.48 735.88 683.749 733.655 682.512L685.191 654.571C682.718 653.335 679.751 652.593 676.537 652.593Z" fill="#32DEF6"/>
<path opacity="0.4" d="M739.342 676.578V660.011L736.375 658.28C735.633 663.473 729.451 666.935 724.259 667.677L689.642 687.952L674.559 693.392L626.342 668.418L627.578 667.677C623.375 665.698 621.149 661.248 618.924 657.291L615.71 659.27L613.731 659.764V676.578C613.731 678.803 615.215 680.782 617.935 682.512L666.399 710.453C672.086 713.668 681.235 713.668 686.922 710.453L735.386 682.512C738.106 680.782 739.589 678.803 739.589 676.578C739.342 676.825 739.342 676.578 739.342 676.578Z" fill="#32DEF6"/>
<path d="M739.342 661.742V650.863L736.375 649.132C735.633 654.324 729.451 657.786 724.259 658.528L689.642 678.804L674.559 684.243L626.342 659.27L627.578 658.528C623.375 656.55 621.149 652.099 618.924 648.143L615.71 650.121L613.731 650.615V661.742C613.731 663.968 615.215 665.946 617.935 667.677L666.399 695.617C672.086 698.832 681.235 698.832 686.922 695.617L735.386 667.677C738.106 665.946 739.589 663.968 739.589 661.742C739.342 661.989 739.342 661.989 739.342 661.742Z" fill="url(#paint9_linear_37_25137)"/>
<path opacity="0.3" d="M724.506 658.528L689.889 678.803L676.784 683.501V698.337C680.493 698.337 684.202 697.595 687.169 695.865L735.633 667.924C738.353 666.193 739.837 664.215 739.837 661.989V661.742V650.862L737.117 649.379H736.869C735.386 654.324 729.452 657.786 724.506 658.528Z" fill="#0F054C"/>
<path d="M666.152 684.738L617.688 656.797C612.001 653.582 612.001 648.143 617.688 644.928L666.152 616.987C671.839 613.773 680.987 613.773 686.675 616.987L735.138 644.928C740.825 648.143 740.825 653.582 735.138 656.797L686.675 684.738C681.235 687.952 671.839 687.952 666.152 684.738Z" fill="url(#paint10_linear_37_25137)"/>
<path d="M676.537 679.792C673.57 679.792 670.603 679.051 668.377 677.814L630.546 656.055C628.32 654.819 627.084 652.841 627.084 651.11C627.084 649.132 628.32 647.401 630.546 646.164L668.377 624.405C672.828 621.685 680.246 621.685 684.944 624.405L722.775 646.164C725.001 647.401 726.237 649.379 726.237 651.11C726.237 653.088 725.001 654.819 722.775 656.055L684.944 677.814C682.471 679.051 679.504 679.792 676.537 679.792ZM668.624 677.073C672.828 679.545 679.999 679.545 684.202 677.073L722.034 655.313C724.012 654.077 725.248 652.593 725.248 651.11C725.248 649.626 724.259 647.895 722.034 646.906L684.202 625.147C679.999 622.674 672.828 622.674 668.624 625.147L630.793 646.906C628.815 648.143 627.579 649.626 627.579 651.11C627.579 652.593 628.568 654.324 630.793 655.313L668.624 677.073Z" fill="#5351AF"/>
<path d="M735.138 656.797L686.675 684.738C680.988 687.952 671.839 687.952 666.152 684.738L617.688 656.797C615.215 655.313 613.732 653.582 613.484 651.604C613.237 654.077 614.473 656.302 617.688 658.28L666.152 686.221C671.839 689.436 680.988 689.436 686.675 686.221L735.138 658.28C738.353 656.55 739.589 654.077 739.342 651.604C739.095 653.582 737.858 655.313 735.138 656.797Z" fill="white"/>
<g opacity="0.3">
<path opacity="0.3" d="M1303.6 428.572V417.692L1300.63 415.961C1299.89 421.154 1293.71 424.615 1288.52 425.357L1253.9 445.633L1238.82 451.073L1190.6 426.099L1191.84 425.357C1187.63 423.379 1185.41 418.928 1183.18 414.972L1179.97 416.95L1177.99 417.445V428.572C1177.99 430.797 1179.47 432.775 1182.19 434.506L1230.66 462.447C1236.34 465.661 1245.49 465.661 1251.18 462.447L1299.64 434.506C1302.36 432.775 1303.85 430.797 1303.85 428.572C1303.6 428.819 1303.6 428.819 1303.6 428.572Z" fill="url(#paint11_linear_37_25137)"/>
<path opacity="0.3" d="M1288.52 425.357L1253.9 445.633L1240.79 450.331V465.167C1244.5 465.167 1248.21 464.425 1251.18 462.694L1299.64 434.753C1302.36 433.022 1303.85 431.044 1303.85 428.819V428.572V417.692L1301.13 416.208H1300.88C1299.64 421.154 1293.46 424.615 1288.52 425.357Z" fill="#0F054C"/>
<g opacity="0.3">
<path opacity="0.3" d="M1230.41 451.567L1181.95 423.626C1176.26 420.412 1176.26 414.972 1181.95 411.758L1230.41 383.817C1236.1 380.602 1245.25 380.602 1250.93 383.817L1299.4 411.758C1305.08 414.972 1305.08 420.412 1299.4 423.626L1250.93 451.567C1245.25 454.782 1236.1 454.782 1230.41 451.567Z" fill="url(#paint12_linear_37_25137)"/>
</g>
<g opacity="0.3">
<path opacity="0.3" d="M1230.41 451.567L1181.95 423.626C1176.26 420.412 1176.26 414.972 1181.95 411.758L1230.41 383.817C1236.1 380.602 1245.25 380.602 1250.93 383.817L1299.4 411.758C1305.08 414.972 1305.08 420.412 1299.4 423.626L1250.93 451.567C1245.25 454.782 1236.1 454.782 1230.41 451.567Z" fill="#0F054C"/>
</g>
</g>
<path d="M1240.79 416.208C1237.58 416.208 1234.12 415.467 1231.65 413.983L1183.18 386.042C1180.71 384.559 1179.23 382.581 1179.23 380.602C1179.23 378.377 1180.71 376.646 1183.18 375.163L1231.65 347.222C1236.59 344.254 1244.75 344.254 1249.94 347.222L1298.41 375.163C1300.88 376.646 1302.36 378.624 1302.36 380.602C1302.36 382.828 1300.88 384.559 1298.41 386.042L1249.94 413.983C1247.22 415.467 1244.01 416.208 1240.79 416.208ZM1231.89 413.489C1236.59 416.208 1244.5 416.208 1249.2 413.489L1297.67 385.548C1299.89 384.311 1301.13 382.58 1301.13 380.85C1301.13 379.119 1299.89 377.388 1297.67 376.152L1249.2 348.211C1244.5 345.491 1236.59 345.491 1231.89 348.211L1183.43 376.152C1181.2 377.388 1179.97 379.119 1179.97 380.85C1179.97 382.58 1181.2 384.311 1183.43 385.548L1231.89 413.489Z" fill="#32DEF6"/>
<path opacity="0.4" d="M1303.6 369.97V353.403L1300.63 351.672C1299.89 356.865 1293.71 360.327 1288.52 361.068L1253.9 381.344L1238.82 386.784L1190.6 361.81L1191.84 361.068C1187.63 359.09 1185.41 354.64 1183.18 350.683L1179.97 352.661L1177.99 353.156V369.97C1177.99 372.195 1179.47 374.173 1182.19 375.904L1230.66 403.845C1236.34 407.06 1245.49 407.06 1251.18 403.845L1299.64 375.904C1302.36 374.173 1303.85 372.195 1303.85 369.97C1303.6 370.217 1303.6 369.97 1303.6 369.97Z" fill="#32DEF6"/>
<path d="M1303.6 355.134V344.254L1300.63 342.524C1299.89 347.716 1293.71 351.178 1288.52 351.92L1253.9 372.195L1238.82 377.635L1190.6 352.661L1191.84 351.92C1187.63 349.941 1185.41 345.491 1183.18 341.534L1179.97 343.513L1177.99 344.007V355.134C1177.99 357.359 1179.47 359.338 1182.19 361.068L1230.66 389.009C1236.34 392.224 1245.49 392.224 1251.18 389.009L1299.64 361.068C1302.36 359.338 1303.85 357.359 1303.85 355.134C1303.6 355.381 1303.6 355.381 1303.6 355.134Z" fill="url(#paint13_linear_37_25137)"/>
<path opacity="0.3" d="M1288.52 351.92L1253.9 372.195L1240.79 376.893V391.729C1244.5 391.729 1248.21 390.987 1251.18 389.257L1299.64 361.316C1302.36 359.585 1303.85 357.607 1303.85 355.381V355.134V344.254L1301.13 342.771H1300.88C1299.64 347.716 1293.46 351.178 1288.52 351.92Z" fill="#0F054C"/>
<path d="M1230.41 378.13L1181.95 350.189C1176.26 346.974 1176.26 341.534 1181.95 338.32L1230.41 310.379C1236.1 307.165 1245.25 307.165 1250.93 310.379L1299.4 338.32C1305.08 341.534 1305.08 346.974 1299.4 350.189L1250.93 378.13C1245.25 381.344 1236.1 381.344 1230.41 378.13Z" fill="url(#paint14_linear_37_25137)"/>
<path d="M1240.79 372.937C1237.83 372.937 1234.86 372.195 1232.64 370.959L1194.8 349.2C1192.58 347.963 1191.34 345.985 1191.34 344.254C1191.34 342.276 1192.58 340.545 1194.8 339.309L1232.64 317.55C1237.09 314.83 1244.5 314.83 1249.2 317.55L1287.03 339.309C1289.26 340.545 1290.49 342.523 1290.49 344.254C1290.49 346.232 1289.26 347.963 1287.03 349.2L1249.2 370.959C1246.73 372.443 1243.76 372.937 1240.79 372.937ZM1240.79 316.313C1238.07 316.313 1235.11 317.055 1232.88 318.292L1195.05 340.051C1193.07 341.287 1191.84 342.771 1191.84 344.254C1191.84 345.738 1192.83 347.469 1195.05 348.458L1232.88 370.217C1237.09 372.69 1244.26 372.69 1248.46 370.217L1286.29 348.458C1288.27 347.222 1289.51 345.738 1289.51 344.254C1289.51 342.771 1288.52 341.04 1286.29 340.051L1248.46 318.292C1246.23 316.808 1243.51 316.313 1240.79 316.313Z" fill="#5351AF"/>
<path d="M1299.4 350.189L1250.93 378.13C1245.25 381.344 1236.1 381.344 1230.41 378.13L1181.95 350.189C1179.47 348.705 1177.99 346.974 1177.74 344.996C1177.49 347.469 1178.73 349.694 1181.95 351.672L1230.41 379.613C1236.1 382.828 1245.25 382.828 1250.93 379.613L1299.4 351.672C1302.61 349.942 1303.85 347.469 1303.6 344.996C1303.35 346.727 1301.87 348.705 1299.4 350.189Z" fill="white"/>
<path d="M977.21 699.079C974.985 699.079 972.512 698.585 970.781 697.348L674.064 526.241C672.086 525.252 671.097 523.768 671.097 522.285C671.097 521.049 671.839 519.812 673.322 519.07L850.364 416.95C853.331 415.219 858.523 415.467 861.738 417.445L1158.46 588.799C1160.43 589.788 1161.42 591.272 1161.42 592.755C1161.42 593.992 1160.68 595.228 1159.2 595.97L982.156 698.09C980.919 698.832 979.189 699.079 977.21 699.079ZM855.309 416.703C853.578 416.703 852.094 416.95 850.858 417.692L673.817 519.812C672.828 520.307 672.086 521.296 672.086 522.038C672.086 523.027 673.075 524.263 674.558 525.252L971.276 696.606C974.49 698.337 979.188 698.585 981.661 697.101L1158.7 594.981C1159.69 594.486 1160.43 593.497 1160.43 592.755C1160.43 591.766 1159.44 590.53 1157.96 589.541L861.243 418.186C859.512 417.197 857.534 416.703 855.309 416.703Z" fill="#32DEF6"/>
<path d="M1160.93 562.836L1144.61 560.364L861.491 396.922C858.276 394.944 853.331 394.944 850.611 396.427L681.976 494.097L671.591 492.613V506.46C671.591 507.696 672.58 508.933 674.311 509.922L971.029 681.276C974.243 683.254 979.189 683.254 981.908 681.771L1158.95 579.65C1160.19 578.909 1160.93 577.919 1160.93 576.93V562.836V562.836Z" fill="url(#paint15_linear_37_25137)"/>
<path d="M674.311 496.075L971.029 667.429C974.243 669.407 979.188 669.407 981.908 667.924L1158.95 565.803C1161.67 564.073 1161.42 561.353 1158.21 559.375L861.49 388.02C858.276 386.042 853.331 386.042 850.611 387.526L673.569 489.646C670.849 491.377 671.097 494.344 674.311 496.075Z" fill="url(#paint16_linear_37_25137)"/>
<path opacity="0.3" d="M700.027 499.537L965.342 652.593C968.309 654.324 972.512 654.572 975.232 653.088L1133.48 561.6C1135.95 560.116 1135.71 557.644 1132.74 555.913L867.425 402.856C864.458 401.125 860.254 400.878 857.534 402.362L699.285 493.85C696.812 495.333 697.06 497.806 700.027 499.537Z" fill="#24126A"/>
<path d="M1159.2 564.32L982.155 666.44C979.435 668.171 974.49 667.924 971.276 665.946L674.558 494.591C673.075 493.85 672.333 492.861 672.085 491.872C671.591 493.355 672.58 495.086 674.558 496.322L971.276 667.677C974.49 669.655 979.435 669.655 982.155 668.171L1159.2 566.051C1160.68 565.062 1161.42 563.826 1160.93 562.589C1160.68 562.836 1159.94 563.578 1159.2 564.32Z" fill="white"/>
<path d="M860.996 334.611L898.58 112.073L895.613 110.837L900.064 108.117C901.053 107.622 902.289 107.622 903.526 108.364L1203.21 281.449C1205.68 282.933 1207.41 286.395 1207.17 289.114L1169.34 513.383C1169.09 514.62 1168.59 515.362 1167.85 515.609L1163.4 518.081L1162.66 513.878H1162.91L864.952 341.782C862.48 340.793 860.502 337.084 860.996 334.611Z" fill="url(#paint17_linear_37_25137)"/>
<path d="M1201.73 287.631L1206.67 285.405C1207.17 286.642 1207.41 287.878 1207.41 289.114L1169.58 513.383C1169.34 514.62 1168.84 515.362 1168.1 515.609L1163.65 518.081L1162.91 513.878H1163.15L1148.07 505.224L1201.73 287.631Z" fill="url(#paint18_linear_37_25137)"/>
<path d="M860.254 344.996L1159.94 518.081C1162.16 519.318 1164.14 518.576 1164.64 516.351L1202.47 292.082C1202.96 289.609 1200.98 285.9 1198.51 284.416L898.827 111.331C896.602 110.095 894.624 110.837 894.129 113.062L856.298 337.331C855.803 339.804 857.781 343.513 860.254 344.996Z" fill="#24126A"/>
<g opacity="0.51">
<path opacity="0.51" d="M897.838 115.287L1199.01 289.114L1160.93 514.125L860.007 340.298L897.838 115.287Z" fill="#453C9E"/>
</g>
<path d="M671.838 451.073L688.158 459.727L852.094 365.025C854.814 363.541 859.512 363.541 862.727 365.519L1145.84 528.714C1148.56 527.23 1160.93 521.296 1160.93 521.296L1154.99 530.939C1154.75 531.681 1154.25 532.175 1153.26 532.917L980.425 632.565C977.705 634.049 973.007 634.048 969.792 632.07L680.245 464.919C679.009 464.178 678.267 463.189 677.773 462.447L671.838 451.073Z" fill="url(#paint19_linear_37_25137)"/>
<path d="M674.311 453.793L971.029 625.147C974.243 627.125 979.188 627.125 981.908 625.642L1158.95 523.521C1161.67 521.79 1161.42 519.07 1158.21 517.092L861.49 345.738C858.276 343.76 853.331 343.76 850.611 345.243L673.569 447.364C670.849 449.095 671.097 452.062 674.311 453.793Z" fill="url(#paint20_linear_37_25137)"/>
<path d="M674.311 453.793L971.029 625.147C974.243 627.125 979.188 627.125 981.908 625.642L1158.95 523.521C1161.67 521.79 1161.42 519.07 1158.21 517.092L861.49 345.738C858.276 343.76 853.331 343.76 850.611 345.243L673.569 447.364C670.849 449.095 671.097 452.062 674.311 453.793Z" fill="#24126A"/>
<path opacity="0.51" d="M674.311 453.793L971.029 625.147C974.243 627.125 979.188 627.125 981.908 625.642L1158.95 523.521C1161.67 521.79 1161.42 519.07 1158.21 517.092L861.49 345.738C858.276 343.76 853.331 343.76 850.611 345.243L673.569 447.364C670.849 449.095 671.097 452.062 674.311 453.793Z" fill="#453C9E"/>
<g opacity="0.3">
<path opacity="0.5" d="M674.311 447.611L971.029 618.965C974.243 620.944 979.188 620.944 981.908 619.46L1158.95 517.34C1161.67 515.609 1161.42 512.889 1158.21 510.911L861.49 339.556C858.276 337.578 853.331 337.578 850.611 339.062L673.569 441.182C670.849 442.913 671.097 445.633 674.311 447.611Z" fill="url(#paint21_radial_37_25137)"/>
<g opacity="0.3">
<g opacity="0.3">
<g opacity="0.3">
<g opacity="0.3">
<g opacity="0.3">
<g opacity="0.3">
<g opacity="0.3">
<path opacity="0.3" d="M834.539 635.779C834.539 570.007 873.854 516.351 922.07 516.351C970.534 516.351 1009.6 569.76 1009.6 635.779C1009.6 701.552 970.287 721.333 922.07 721.333C873.606 721.58 834.539 701.799 834.539 635.779Z" fill="url(#paint22_radial_37_25137)"/>
</g>
</g>
</g>
</g>
</g>
</g>
</g>
</g>
<path opacity="0.8" d="M977.21 621.191C974.985 621.191 972.512 620.696 970.781 619.46L674.064 448.106C672.086 446.869 671.097 445.386 671.097 443.902C671.097 442.666 671.839 441.429 673.322 440.44L850.364 338.32C853.331 336.589 858.523 336.837 861.985 338.815L1158.7 510.169C1160.68 511.405 1161.67 512.889 1161.67 514.373C1161.67 515.609 1160.93 516.845 1159.44 517.834L982.403 619.955C980.919 620.696 979.189 621.191 977.21 621.191ZM674.806 446.869L971.523 618.224C974.49 619.955 979.188 620.202 981.908 618.718L1158.7 516.351C1159.44 515.856 1160.19 515.114 1160.19 514.125C1160.19 513.136 1159.44 511.9 1157.96 511.158L861.243 339.804C858.276 338.073 853.578 337.826 850.858 339.309L673.817 441.429C673.075 441.924 672.333 442.419 672.333 443.655C672.333 444.891 673.322 446.127 674.806 446.869Z" fill="url(#paint23_linear_37_25137)"/>
<path d="M674.311 452.556L971.029 623.911C974.243 625.889 979.188 625.889 981.908 624.405L1158.95 522.285C1159.94 521.79 1160.43 521.049 1160.68 520.307C1160.93 521.543 1160.43 522.779 1158.95 523.768L981.908 625.889C979.188 627.62 974.243 627.372 971.029 625.394L674.311 454.04C672.086 452.804 671.344 451.32 671.838 449.836C672.086 450.578 672.827 451.567 674.311 452.556Z" fill="white"/>
<path d="M1148.07 299.994C1147.33 299.994 1146.59 299.747 1145.84 299.252C1143.62 298.016 1142.14 295.049 1142.88 292.823C1143.12 291.834 1143.87 290.845 1144.61 290.598C1145.6 290.103 1146.83 290.351 1148.07 290.845C1150.3 292.082 1151.78 295.049 1151.04 297.274C1150.79 298.263 1150.05 299.252 1149.31 299.5C1149.06 299.994 1148.56 299.994 1148.07 299.994ZM1146.09 291.34C1145.84 291.34 1145.35 291.34 1145.1 291.587C1144.36 291.834 1144.11 292.329 1143.87 293.318C1143.37 295.296 1144.61 297.521 1146.34 298.758C1147.33 299.252 1148.07 299.5 1148.81 299.005C1149.55 298.758 1149.8 298.263 1150.05 297.274C1150.54 295.296 1149.31 293.071 1147.58 291.834C1147.08 291.587 1146.59 291.34 1146.09 291.34Z" fill="#32DEF6"/>
<path d="M1160.19 306.917C1159.44 306.917 1158.7 306.67 1157.96 306.176C1155.74 304.939 1154.25 301.972 1154.99 299.747C1155.24 298.758 1155.98 297.769 1156.72 297.521C1157.71 297.027 1158.95 297.274 1160.19 297.769C1162.41 299.005 1163.89 301.972 1163.15 304.197C1162.91 305.187 1162.16 306.176 1161.42 306.423C1161.17 306.917 1160.68 306.917 1160.19 306.917ZM1157.96 298.263C1157.71 298.263 1157.22 298.263 1156.97 298.51C1156.23 298.758 1155.98 299.252 1155.74 300.241C1155.24 302.219 1156.48 304.445 1158.21 305.681C1159.2 306.176 1159.94 306.423 1160.68 305.928C1161.42 305.681 1161.67 305.187 1161.92 304.197C1162.41 302.219 1161.17 299.994 1159.2 298.758C1159.2 298.51 1158.45 298.263 1157.96 298.263Z" fill="#32DEF6"/>
<path d="M1174.77 311.368C1174.28 313.346 1172.3 314.088 1170.08 313.099C1168.1 311.863 1166.86 309.143 1167.36 307.165C1167.85 305.187 1169.83 304.445 1172.05 305.434C1174.03 306.423 1175.27 309.143 1174.77 311.368Z" fill="#32DEF6"/>
<path d="M944.819 178.834L938.39 175.125L938.884 172.158L945.313 175.867L944.819 178.834Z" fill="#32DEF6"/>
<path d="M954.214 184.274L947.786 180.565L948.28 177.598L954.709 181.307L954.214 184.274Z" fill="#32DEF6"/>
<path d="M935.67 173.642L921.576 165.482L922.07 162.515L936.164 170.675L935.67 173.642Z" fill="#32DEF6"/>
<g opacity="0.5">
<path opacity="0.67" d="M928.005 553.193C986.726 553.193 1034.33 525.738 1034.33 491.871C1034.33 458.004 986.726 430.55 928.005 430.55C869.284 430.55 821.681 458.004 821.681 491.871C821.681 525.738 869.284 553.193 928.005 553.193Z" fill="#0F054C"/>
<path opacity="0.67" d="M928.005 542.561C976.621 542.561 1016.03 519.866 1016.03 491.871C1016.03 463.876 976.621 441.182 928.005 441.182C879.39 441.182 839.979 463.876 839.979 491.871C839.979 519.866 879.39 542.561 928.005 542.561Z" fill="#0F054C"/>
<path opacity="0.9" d="M928.005 531.928C966.378 531.928 997.486 513.994 997.486 491.871C997.486 469.748 966.378 451.814 928.005 451.814C889.631 451.814 858.523 469.748 858.523 491.871C858.523 513.994 889.631 531.928 928.005 531.928Z" fill="#080344"/>
</g>
<path opacity="0.4" d="M1025.92 259.443C1027.9 257.465 1028.15 254.25 1026.17 252.272C1024.19 250.294 1020.98 250.047 1019 252.025C1017.02 254.003 1016.77 257.217 1018.75 259.195C1020.73 261.174 1023.94 261.174 1025.92 259.443Z" fill="#32DEF6"/>
<path d="M1084.77 254.992C1086.75 253.014 1087 249.799 1085.02 247.821C1083.04 245.843 1079.83 245.596 1077.85 247.574C1075.87 249.552 1075.62 252.767 1077.6 254.745C1079.58 256.723 1082.79 256.97 1084.77 254.992Z" fill="#32DEF6"/>
<path opacity="0.4" d="M1070.18 176.362C1072.41 174.384 1072.41 170.922 1070.43 168.697C1068.45 166.471 1064.99 166.471 1062.76 168.449C1060.54 170.427 1060.54 173.889 1062.52 176.115C1064.49 178.34 1067.96 178.34 1070.18 176.362Z" fill="#32DEF6"/>
<path opacity="0.4" d="M1064 191.692C1065.24 190.456 1065.48 188.478 1064.25 186.994C1063.01 185.758 1061.03 185.511 1059.55 186.747C1058.31 187.983 1058.07 189.961 1059.3 191.445C1060.79 192.929 1062.76 192.929 1064 191.692Z" fill="#32DEF6"/>
<path opacity="0.8" d="M1057.32 183.78C1058.07 183.038 1058.31 181.554 1057.32 180.813C1056.58 180.071 1055.1 179.824 1054.36 180.813C1053.62 181.802 1053.37 183.038 1054.36 183.78C1055.1 184.522 1056.58 184.522 1057.32 183.78Z" fill="#32DEF6"/>
<path opacity="0.8" d="M1071.42 230.265C1072.16 229.524 1072.41 228.04 1071.42 227.298C1070.43 226.557 1069.19 226.309 1068.45 227.298C1067.71 228.287 1067.46 229.524 1068.45 230.265C1069.44 231.007 1070.43 231.007 1071.42 230.265Z" fill="#32DEF6"/>
<path opacity="0.4" d="M1041.75 170.18C1041.99 169.933 1041.99 169.438 1041.75 169.191C1041.5 168.944 1041 168.944 1040.76 169.191C1040.51 169.438 1040.51 169.933 1040.76 170.18C1041 170.427 1041.5 170.427 1041.75 170.18Z" fill="#32DEF6"/>
<path opacity="0.8" d="M1045.46 196.638C1045.7 196.39 1045.7 195.896 1045.46 195.649C1045.21 195.401 1044.71 195.401 1044.47 195.649C1044.22 195.896 1044.22 196.39 1044.47 196.638C1044.96 196.885 1045.21 196.885 1045.46 196.638Z" fill="#32DEF6"/>
<path opacity="0.8" d="M1053.86 246.832C1054.11 246.585 1054.11 246.09 1053.86 245.843C1053.62 245.596 1053.12 245.596 1052.87 245.843C1052.63 246.09 1052.63 246.585 1052.87 246.832C1053.12 247.08 1053.62 247.08 1053.86 246.832Z" fill="#32DEF6"/>
<path opacity="0.8" d="M1047.93 238.672C1048.18 238.425 1048.18 237.931 1047.93 237.683C1047.68 237.436 1047.19 237.436 1046.94 237.683C1046.69 237.931 1046.69 238.425 1046.94 238.672C1047.19 238.92 1047.68 238.92 1047.93 238.672Z" fill="#32DEF6"/>
<path opacity="0.4" d="M1026.17 200.099C1029.38 197.132 1029.38 192.187 1026.42 189.219C1023.45 186.005 1018.5 186.005 1015.54 188.972C1012.32 191.939 1012.32 196.885 1015.29 199.852C1018.26 202.819 1023.2 203.066 1026.17 200.099Z" fill="#32DEF6"/>
<path d="M984.628 215.182C986.112 213.699 986.359 211.226 984.875 209.742C983.392 208.259 980.919 208.012 979.435 209.495C977.952 210.979 977.705 213.451 979.188 214.935C980.672 216.666 982.897 216.666 984.628 215.182Z" fill="#32DEF6"/>
<path opacity="0.4" d="M1051.64 216.171C1053.82 216.171 1055.59 214.4 1055.59 212.215C1055.59 210.03 1053.82 208.259 1051.64 208.259C1049.45 208.259 1047.68 210.03 1047.68 212.215C1047.68 214.4 1049.45 216.171 1051.64 216.171Z" fill="#32DEF6"/>
<path opacity="0.4" d="M1026.17 151.388C1027.65 149.904 1027.9 147.432 1026.42 145.948C1024.93 144.465 1022.46 144.217 1020.98 145.701C1019.49 147.185 1019.25 149.657 1020.73 151.141C1022.21 152.872 1024.69 152.872 1026.17 151.388Z" fill="#32DEF6"/>
<path opacity="0.4" d="M977.458 179.329C978.941 177.845 979.188 175.373 977.705 173.889C976.221 172.406 973.749 172.158 972.265 173.642C970.781 175.125 970.534 177.598 972.018 179.082C973.501 180.565 975.974 180.565 977.458 179.329Z" fill="#32DEF6"/>
<path opacity="0.4" d="M1109.74 191.198C1111.23 189.714 1111.48 187.241 1109.99 185.758C1108.51 184.274 1106.04 184.027 1104.55 185.511C1103.07 186.994 1102.82 189.467 1104.3 190.95C1105.79 192.681 1108.26 192.681 1109.74 191.198Z" fill="#32DEF6"/>
<path opacity="0.4" d="M1082.05 123.694C1083.53 122.211 1083.78 119.738 1082.3 118.255C1080.81 116.771 1078.34 116.524 1076.86 118.007C1075.37 119.491 1075.13 121.964 1076.61 123.447C1078.09 125.178 1080.57 125.178 1082.05 123.694Z" fill="#32DEF6"/>
<path d="M1132.74 130.865C1133.48 130.123 1133.48 128.887 1132.74 128.145C1132 127.403 1130.76 127.403 1130.02 128.145C1129.28 128.887 1129.28 130.123 1130.02 130.865C1130.76 131.607 1132 131.607 1132.74 130.865Z" fill="#32DEF6"/>
<path opacity="0.4" d="M1037.54 246.338C1038.53 245.596 1038.53 244.112 1037.54 243.123C1036.8 242.134 1035.32 242.134 1034.33 243.123C1033.34 243.865 1033.34 245.349 1034.33 246.338C1035.07 247.079 1036.55 247.327 1037.54 246.338Z" fill="#32DEF6"/>
<path d="M1033.09 182.296C1034.08 181.554 1034.08 180.071 1033.09 179.082C1032.35 178.093 1030.87 178.093 1029.88 179.082C1028.89 179.823 1028.89 181.307 1029.88 182.296C1030.87 183.285 1032.1 183.285 1033.09 182.296Z" fill="#32DEF6"/>
<path d="M1004.16 181.554C1004.66 181.06 1004.9 180.071 1004.16 179.329C1003.67 178.834 1002.68 178.587 1001.94 179.329C1001.44 179.823 1001.2 180.813 1001.94 181.554C1002.68 182.049 1003.67 182.049 1004.16 181.554Z" fill="#32DEF6"/>
<path d="M999.959 181.307C1000.95 180.565 1000.95 179.082 999.959 178.093C999.217 177.103 997.733 177.103 996.744 178.093C995.755 178.834 995.755 180.318 996.744 181.307C997.486 182.296 998.97 182.296 999.959 181.307Z" fill="#32DEF6"/>
<path d="M998.97 186.747C999.464 186.252 999.464 185.511 998.97 185.016C998.475 184.522 997.734 184.522 997.239 185.016C996.745 185.511 996.745 186.252 997.239 186.747C997.734 187.241 998.475 187.241 998.97 186.747Z" fill="#32DEF6"/>
<path opacity="0.4" d="M1020.23 223.095C1020.98 222.6 1020.98 221.364 1020.23 220.869C1019.74 220.128 1018.5 220.128 1018.01 220.869C1017.27 221.364 1017.27 222.6 1018.01 223.095C1018.75 223.589 1019.74 223.589 1020.23 223.095Z" fill="#32DEF6"/>
<path opacity="0.4" d="M1066.72 229.524C1067.46 229.029 1067.46 227.793 1066.72 227.298C1066.23 226.556 1064.99 226.556 1064.49 227.298C1063.75 227.793 1063.75 229.029 1064.49 229.524C1064.99 230.265 1065.98 230.265 1066.72 229.524Z" fill="#32DEF6"/>
<path d="M1030.13 225.567C1031.61 224.084 1031.86 221.611 1030.37 220.128C1028.89 218.644 1026.42 218.397 1024.93 219.88C1023.45 221.364 1023.2 223.837 1024.69 225.32C1026.17 227.051 1028.64 227.051 1030.13 225.567Z" fill="#32DEF6"/>
<path d="M814.51 392.224C810.801 404.092 791.762 427.335 779.646 423.626C767.777 419.917 767.777 390.987 771.239 379.119C774.948 367.25 787.311 360.327 799.427 364.036C811.296 367.745 818.219 380.355 814.51 392.224Z" fill="url(#paint24_radial_37_25137)"/>
<path d="M814.51 392.224C810.801 404.092 791.762 427.335 779.646 423.626C767.777 419.917 767.777 390.987 771.239 379.119C774.948 367.25 787.311 360.327 799.427 364.036C811.296 367.745 818.219 380.355 814.51 392.224Z" fill="url(#paint25_linear_37_25137)"/>
<path d="M791.515 364.283C797.697 363.788 805.856 367.497 809.318 372.69C813.027 377.882 810.802 382.333 804.62 383.075C798.438 383.569 790.279 379.86 786.817 374.668C783.108 369.475 785.333 364.777 791.515 364.283Z" fill="#251C72"/>
<path opacity="0.5" d="M791.515 364.283C797.697 363.788 805.856 367.497 809.318 372.69C813.027 377.882 810.802 382.333 804.62 383.075C798.438 383.569 790.279 379.86 786.817 374.668C783.108 369.475 785.333 364.777 791.515 364.283Z" fill="url(#paint26_radial_37_25137)"/>
<path d="M785.086 369.97C786.075 368.981 787.806 368.486 789.784 368.239C795.966 367.745 804.126 371.454 807.587 376.646C808.576 378.13 809.318 379.861 809.318 381.097C811.544 379.119 811.791 375.904 809.318 372.443C805.609 367.25 797.697 363.541 791.515 364.036C787.312 364.53 784.839 367.003 785.086 369.97Z" fill="#32DEF6"/>
<path opacity="0.6" d="M812.532 358.101C811.543 358.101 810.801 358.843 810.801 359.832C810.801 360.821 811.543 361.563 812.532 361.563C813.521 361.563 814.263 360.821 814.263 359.832C814.263 359.09 813.521 358.101 812.532 358.101Z" fill="#32DEF6"/>
<path d="M795.718 345.738C793.245 345.738 791.267 347.716 791.02 350.189C791.02 352.661 792.998 354.639 795.471 354.887C797.943 355.134 799.922 352.909 800.169 350.436C800.169 347.963 798.191 345.738 795.718 345.738Z" fill="#32DEF6"/>
<path opacity="0.6" d="M821.434 335.6C819.95 335.6 818.961 336.589 818.961 338.073C818.961 339.556 819.95 340.545 821.434 340.545C822.917 340.545 823.906 339.556 823.906 338.073C823.906 336.589 822.917 335.6 821.434 335.6Z" fill="#32DEF6"/>
<path d="M811.543 337.578C810.554 337.578 809.812 338.32 809.812 339.309C809.812 340.298 810.554 341.04 811.543 341.04C812.532 341.04 813.274 340.298 813.274 339.309C813.274 338.567 812.285 337.578 811.543 337.578Z" fill="#32DEF6"/>
<path d="M813.274 333.869C812.532 333.869 812.038 334.364 812.038 335.106C812.038 335.847 812.532 336.342 813.274 336.342C814.016 336.342 814.51 335.847 814.51 335.106C814.51 334.364 814.016 333.869 813.274 333.869Z" fill="#32DEF6"/>
<path opacity="0.6" d="M798.933 367.003C797.449 367.003 796.46 367.992 796.46 369.475C796.46 370.959 797.449 371.948 798.933 371.948C800.416 371.948 801.405 370.959 801.405 369.475C801.405 367.992 800.169 367.003 798.933 367.003Z" fill="#32DEF6"/>
<path d="M806.351 366.014C804.372 366.014 802.642 367.497 802.642 369.723C802.642 371.701 804.125 373.432 806.351 373.432C808.329 373.432 810.06 371.948 810.06 369.723C810.06 367.745 808.576 366.014 806.351 366.014Z" fill="#32DEF6"/>
<path d="M846.408 351.178C865.116 351.178 880.283 336.011 880.283 317.303C880.283 298.594 865.116 283.427 846.408 283.427C827.699 283.427 812.532 298.594 812.532 317.303C812.532 336.011 827.699 351.178 846.408 351.178Z" fill="url(#paint27_radial_37_25137)"/>
<path d="M846.408 351.178C865.116 351.178 880.283 336.011 880.283 317.303C880.283 298.594 865.116 283.427 846.408 283.427C827.699 283.427 812.532 298.594 812.532 317.303C812.532 336.011 827.699 351.178 846.408 351.178Z" fill="url(#paint28_linear_37_25137)"/>
<path d="M1015.78 378.871C1015.78 444.644 976.469 498.3 928.252 498.3C879.788 498.3 840.72 444.891 840.72 378.871C840.72 313.099 880.035 293.318 928.252 293.318C976.469 293.071 1015.78 312.852 1015.78 378.871Z" fill="url(#paint29_radial_37_25137)"/>
<path d="M1015.78 378.871C1015.78 444.644 976.469 498.3 928.252 498.3C879.788 498.3 840.72 444.891 840.72 378.871C840.72 313.099 880.035 293.318 928.252 293.318C976.469 293.071 1015.78 312.852 1015.78 378.871Z" fill="url(#paint30_linear_37_25137)"/>
<path d="M928.005 363.294C961.053 363.294 987.843 347.795 987.843 328.677C987.843 309.558 961.053 294.06 928.005 294.06C894.957 294.06 868.167 309.558 868.167 328.677C868.167 347.795 894.957 363.294 928.005 363.294Z" fill="#251C72"/>
<path opacity="0.5" d="M928.005 363.294C961.053 363.294 987.843 347.795 987.843 328.677C987.843 309.558 961.053 294.06 928.005 294.06C894.957 294.06 868.167 309.558 868.167 328.677C868.167 347.795 894.957 363.294 928.005 363.294Z" fill="url(#paint31_radial_37_25137)"/>
<path d="M885.723 313.346C908.965 299.747 947.044 299.747 970.287 313.346C979.93 319.033 985.617 325.957 987.348 333.127C989.821 322.742 984.134 312.11 970.287 304.197C947.044 290.598 908.965 290.598 885.723 304.197C872.123 312.11 866.436 322.99 868.661 333.127C870.392 325.957 876.079 319.033 885.723 313.346Z" fill="#32DEF6"/>
<path d="M894.62 225.838C904.453 208.809 904.466 190.409 894.65 184.742C884.835 179.075 868.907 188.286 859.075 205.315C849.242 222.345 849.229 240.744 859.044 246.412C868.86 252.079 884.788 242.868 894.62 225.838Z" fill="#BCBEFF"/>
<path d="M931.466 335.6C980.901 335.6 1020.98 295.525 1020.98 246.09C1020.98 196.655 980.901 156.581 931.466 156.581C882.031 156.581 841.957 196.655 841.957 246.09C841.957 295.525 882.031 335.6 931.466 335.6Z" fill="url(#paint32_radial_37_25137)"/>
<path d="M931.466 335.6C980.901 335.6 1020.98 295.525 1020.98 246.09C1020.98 196.655 980.901 156.581 931.466 156.581C882.031 156.581 841.957 196.655 841.957 246.09C841.957 295.525 882.031 335.6 931.466 335.6Z" fill="url(#paint33_linear_37_25137)"/>
<path d="M903.773 288.619C901.547 306.175 888.195 311.615 874.101 300.982C860.007 290.103 850.364 267.354 852.836 249.551C855.062 231.996 868.414 226.556 882.508 237.188C896.355 248.068 905.998 271.063 903.773 288.619Z" fill="#251C72"/>
<path opacity="0.5" d="M903.773 288.619C901.547 306.175 888.195 311.615 874.101 300.982C860.007 290.103 850.364 267.354 852.836 249.551C855.062 231.996 868.414 226.556 882.508 237.188C896.355 248.068 905.998 271.063 903.773 288.619Z" fill="url(#paint34_radial_37_25137)"/>
<path d="M892.152 273.289C891.41 279.718 886.464 281.696 881.272 277.74C876.079 273.784 872.618 265.377 873.607 259.195C874.349 252.766 879.294 250.788 884.486 254.744C889.432 258.453 892.893 266.86 892.152 273.289Z" fill="#32DEF6"/>
<path d="M880.777 298.263C866.683 287.384 857.04 264.635 859.512 246.832C860.501 239.661 863.221 234.469 867.178 231.749C859.76 232.491 854.32 238.672 852.836 249.552C850.611 267.108 860.007 290.103 874.101 300.983C882.508 307.412 890.42 307.906 896.108 303.95C891.409 304.198 886.217 302.467 880.777 298.263Z" fill="#32DEF6"/>
<path d="M875.337 300.241C861.243 289.362 851.6 266.613 854.073 248.81C855.062 240.65 858.523 235.211 863.221 232.491C857.782 234.716 853.825 240.403 852.836 249.305C850.611 266.861 860.007 289.856 874.101 300.736C881.766 306.423 888.937 307.659 894.377 304.692C889.184 306.917 882.261 305.681 875.337 300.241Z" fill="#32DEF6"/>
<path d="M1024.44 435.495C1043.15 435.495 1058.31 420.329 1058.31 401.62C1058.31 382.911 1043.15 367.745 1024.44 367.745C1005.73 367.745 990.563 382.911 990.563 401.62C990.563 420.329 1005.73 435.495 1024.44 435.495Z" fill="url(#paint35_radial_37_25137)"/>
<path d="M1024.44 435.495C1043.15 435.495 1058.31 420.329 1058.31 401.62C1058.31 382.911 1043.15 367.745 1024.44 367.745C1005.73 367.745 990.563 382.911 990.563 401.62C990.563 420.329 1005.73 435.495 1024.44 435.495Z" fill="url(#paint36_linear_37_25137)"/>
<path d="M1057.08 402.114C1057.08 411.758 1050.4 423.379 1041.99 428.077C1033.59 432.775 1026.91 429.066 1026.91 419.423C1026.91 409.78 1033.59 398.158 1041.99 393.46C1050.4 388.762 1057.08 392.471 1057.08 402.114Z" fill="#251C72"/>
<path opacity="0.5" d="M1057.08 402.114C1057.08 411.758 1050.4 423.379 1041.99 428.077C1033.59 432.775 1026.91 429.066 1026.91 419.423C1026.91 409.78 1033.59 398.158 1041.99 393.46C1050.4 388.762 1057.08 392.471 1057.08 402.114Z" fill="url(#paint37_radial_37_25137)"/>
<path d="M1049.16 391.482C1050.4 393.213 1051.14 395.686 1051.14 398.9C1051.14 408.543 1044.47 420.165 1036.06 424.863C1033.59 426.346 1031.11 427.088 1029.14 426.841C1031.61 430.55 1036.55 431.292 1042.24 428.077C1050.65 423.379 1057.32 411.758 1057.32 402.114C1057.08 395.438 1053.86 391.729 1049.16 391.482Z" fill="#32DEF6"/>
<path d="M1006.88 278.976L974.738 297.521V260.184L1006.88 241.392V278.976Z" fill="#251C72"/>
<path opacity="0.8" d="M1002.18 244.359V276.257L974.738 292.082V297.521L1006.88 278.976V241.392L1002.18 244.359Z" fill="url(#paint38_radial_37_25137)"/>
<path d="M980.919 270.322L977.952 272.053V268.839L980.919 267.108V270.322Z" fill="#32DEF6"/>
<path d="M986.854 262.657L984.134 264.141V260.926L986.854 259.195V262.657Z" fill="#32DEF6"/>
<path d="M993.035 263.399L990.315 264.882V261.668L993.035 259.937V263.399Z" fill="#32DEF6"/>
<path d="M993.035 272.053L990.315 273.784V270.322L993.035 268.839V272.053Z" fill="#32DEF6"/>
<path d="M989.326 278.729L986.606 280.46V277.246L989.326 275.515V278.729Z" fill="#32DEF6"/>
<path d="M999.464 268.344L996.497 270.075V266.861L999.464 265.13V268.344Z" fill="#32DEF6"/>
<path d="M1033.09 269.086L1036.55 262.904L1033.09 260.926L1000.7 279.471V316.808L1004.16 319.033L1007.87 312.852L1033.09 298.263V269.086Z" fill="url(#paint39_linear_37_25137)"/>
<path d="M1036.55 300.241L1004.16 319.033V281.696L1036.55 262.904V300.241Z" fill="url(#paint40_linear_37_25137)"/>
<path d="M1036.55 300.241L1004.16 319.033V281.696L1036.55 262.904V300.241Z" fill="url(#paint41_linear_37_25137)"/>
<path d="M998.723 267.85L997.981 267.355L1033.83 229.029H1135.71L1173.29 191.445V38.3881H1174.03V191.692L1135.95 229.771H1034.08L998.723 267.85Z" fill="#32DEF6"/>
<path d="M1173.29 153.366L1155.74 135.563V72.7578H1156.48V135.316L1174.03 152.872L1173.29 153.366Z" fill="#32DEF6"/>
<path d="M1064.74 229.771L1064 229.276L1084.03 209.001H1127.79L1148.56 188.231L1149.31 188.725L1128.04 209.99H1084.52L1064.74 229.771Z" fill="#32DEF6"/>
<path d="M1148.81 191.445C1147.33 191.445 1145.84 190.209 1145.84 188.478C1145.84 186.994 1147.08 185.511 1148.81 185.511C1150.3 185.511 1151.78 186.747 1151.78 188.478C1151.78 190.209 1150.54 191.445 1148.81 191.445Z" fill="#32DEF6"/>
<path d="M1119.64 171.911C1118.15 171.911 1116.67 170.675 1116.67 168.944C1116.67 167.213 1117.9 165.977 1119.64 165.977C1121.12 165.977 1122.6 167.213 1122.6 168.944C1122.6 170.675 1121.12 171.911 1119.64 171.911Z" fill="#32DEF6"/>
<path d="M1142.88 143.228C1141.39 143.228 1139.91 141.992 1139.91 140.261C1139.91 138.778 1141.15 137.294 1142.88 137.294C1144.61 137.294 1145.84 138.53 1145.84 140.261C1145.6 141.992 1144.36 143.228 1142.88 143.228Z" fill="#32DEF6"/>
<path d="M1131.26 70.5325C1129.77 70.5325 1128.29 69.2962 1128.29 67.5653C1128.29 66.0817 1129.53 64.5982 1131.26 64.5982C1132.99 64.5982 1134.22 65.8345 1134.22 67.5653C1134.22 69.2962 1132.99 70.5325 1131.26 70.5325Z" fill="#32DEF6"/>
<path d="M1156.23 75.4777C1154.75 75.4777 1153.26 74.2414 1153.26 72.5105C1153.26 71.0269 1154.5 69.5434 1156.23 69.5434C1157.96 69.5434 1159.2 70.7797 1159.2 72.5105C1158.95 74.2414 1157.71 75.4777 1156.23 75.4777Z" fill="#32DEF6"/>
<path d="M1173.54 41.108C1172.05 41.108 1170.57 39.8717 1170.57 38.1408C1170.57 36.6572 1171.81 35.1736 1173.54 35.1736C1175.27 35.1736 1176.51 36.41 1176.51 38.1408C1176.51 39.8717 1175.27 41.108 1173.54 41.108Z" fill="#32DEF6"/>
<path d="M1035.07 162.762C1033.59 162.762 1032.1 161.526 1032.1 159.795C1032.1 158.312 1033.34 156.828 1035.07 156.828C1036.55 156.828 1038.04 158.064 1038.04 159.795C1038.04 161.279 1036.55 162.762 1035.07 162.762Z" fill="#32DEF6"/>
<path d="M979.683 269.581H978.941V252.519L1019.49 211.226V152.872L1053.12 119.244H1119.14L1131.01 107.622V67.8126H1131.75V107.87L1119.64 119.985H1053.62L1020.48 153.119V211.721H1020.23L979.683 253.014V269.581Z" fill="#32DEF6"/>
<path d="M1020.23 197.874L1019.74 197.379L1034.58 182.543V159.795H1035.57V182.791L1020.23 197.874Z" fill="#32DEF6"/>
<path d="M985.865 262.163L985.123 261.668L1078.34 168.449H1118.89V169.438H1078.59L985.865 262.163Z" fill="#32DEF6"/>
<path d="M1061.53 186.252H1060.79V156.581L1077.35 140.014H1142.88V140.756H1077.85L1061.53 157.075V186.252Z" fill="#32DEF6"/>
<path d="M1047.68 496.817C1043.97 508.686 1024.93 531.928 1012.82 528.219C1000.7 524.51 1000.95 495.58 1004.41 483.712C1008.12 471.843 1020.48 464.92 1032.6 468.629C1044.47 472.338 1051.39 484.948 1047.68 496.817Z" fill="url(#paint42_radial_37_25137)"/>
<path d="M1047.68 496.817C1043.97 508.686 1024.93 531.928 1012.82 528.219C1000.7 524.51 1000.95 495.58 1004.41 483.712C1008.12 471.843 1020.48 464.92 1032.6 468.629C1044.47 472.338 1051.39 484.948 1047.68 496.817Z" fill="url(#paint43_linear_37_25137)"/>
<path d="M1024.68 468.876C1030.87 468.381 1039.03 472.09 1042.49 477.283C1046.2 482.475 1043.97 486.926 1037.79 487.668C1031.61 488.162 1023.45 484.453 1019.99 479.261C1016.28 474.068 1018.5 469.37 1024.68 468.876Z" fill="#251C72"/>
<path opacity="0.5" d="M1024.68 468.876C1030.87 468.381 1039.03 472.09 1042.49 477.283C1046.2 482.475 1043.97 486.926 1037.79 487.668C1031.61 488.162 1023.45 484.453 1019.99 479.261C1016.28 474.068 1018.5 469.37 1024.68 468.876Z" fill="url(#paint44_radial_37_25137)"/>
<path d="M1018.26 474.81C1019.24 473.821 1020.98 473.327 1022.95 473.079C1029.14 472.585 1037.3 476.294 1040.76 481.486C1041.75 482.97 1042.49 484.701 1042.49 485.937C1044.71 483.959 1044.96 480.744 1042.49 477.283C1038.78 472.09 1030.87 468.381 1024.68 468.876C1020.48 469.37 1018.01 471.596 1018.26 474.81Z" fill="#32DEF6"/>
<path opacity="0.6" d="M1042.49 454.534C1043.23 453.793 1043.23 452.804 1042.49 452.062C1041.75 451.32 1040.76 451.32 1040.02 452.062C1039.27 452.804 1039.27 453.793 1040.02 454.534C1040.51 455.276 1041.75 455.276 1042.49 454.534Z" fill="#32DEF6"/>
<path d="M1063.01 451.567C1064.74 449.836 1064.99 447.116 1063.26 445.138C1061.53 443.407 1058.81 443.16 1056.83 444.891C1055.1 446.622 1054.85 449.342 1056.58 451.32C1058.56 453.298 1061.28 453.298 1063.01 451.567Z" fill="#32DEF6"/>
<path opacity="0.6" d="M1051.88 476.788C1052.87 475.799 1052.87 474.316 1051.88 473.327C1050.9 472.338 1049.41 472.338 1048.42 473.327C1047.43 474.316 1047.43 475.799 1048.42 476.788C1049.16 477.777 1050.9 477.777 1051.88 476.788Z" fill="#32DEF6"/>
<path d="M1057.57 468.381C1058.31 467.639 1058.31 466.65 1057.57 465.909C1056.83 465.167 1055.84 465.167 1055.1 465.909C1054.36 466.65 1054.36 467.639 1055.1 468.381C1055.84 468.876 1056.83 469.123 1057.57 468.381Z" fill="#32DEF6"/>
<path d="M1059.05 472.338C1059.55 471.843 1059.55 471.101 1059.05 470.607C1058.56 470.112 1057.82 470.112 1057.32 470.607C1056.83 471.101 1056.83 471.843 1057.32 472.338C1057.82 472.832 1058.56 472.832 1059.05 472.338Z" fill="#32DEF6"/>
<path opacity="0.6" d="M1046.2 438.71C1047.19 437.721 1047.19 436.237 1046.2 435.248C1045.21 434.259 1043.72 434.259 1042.74 435.248C1041.75 436.237 1041.75 437.721 1042.74 438.71C1043.48 439.699 1045.21 439.699 1046.2 438.71Z" fill="#32DEF6"/>
<path d="M1041.25 444.644C1042.74 443.16 1042.74 440.935 1041.5 439.451C1040.02 437.968 1037.79 437.968 1036.31 439.204C1034.82 440.688 1034.82 442.913 1036.06 444.397C1037.54 445.88 1039.77 446.128 1041.25 444.644Z" fill="#32DEF6"/>
<g opacity="0.4">
<path opacity="0.4" d="M825.884 225.073L808.329 214.935V210.484L825.884 220.622V225.073Z" fill="#32DEF6"/>
<path opacity="0.4" d="M840.967 233.727L832.313 228.535V224.084L840.967 229.276V233.727Z" fill="#32DEF6"/>
<path opacity="0.4" d="M831.077 238.425L823.659 233.974V229.524L831.077 233.974V238.425Z" fill="#32DEF6"/>
<path opacity="0.4" d="M843.687 245.596L835.033 240.651V236.2L843.687 241.145V245.596Z" fill="#32DEF6"/>
<path opacity="0.4" d="M858.276 264.388L823.659 244.359V240.156L858.276 259.937V264.388Z" fill="#32DEF6"/>
<path opacity="0.4" d="M831.077 259.195L823.659 254.992V250.541L831.077 254.745V259.195Z" fill="#32DEF6"/>
<path opacity="0.4" d="M843.687 266.613L835.033 261.421V256.97L843.687 262.162V266.613Z" fill="#32DEF6"/>
<path opacity="0.4" d="M842.699 276.257L823.659 265.377V260.926L842.699 271.806V276.257Z" fill="#32DEF6"/>
<path opacity="0.4" d="M855.556 283.675L846.654 278.482V274.031L855.556 279.224V283.675Z" fill="#32DEF6"/>
<path opacity="0.4" d="M868.166 291.092L859.512 285.9V281.449L868.166 286.642V291.092Z" fill="#32DEF6"/>
<path opacity="0.4" d="M888.937 302.961L872.37 293.318V288.867L888.937 298.51V302.961Z" fill="#32DEF6"/>
<path opacity="0.4" d="M879.047 318.044L870.145 312.852V308.401L879.047 313.594V318.044Z" fill="#32DEF6"/>
<path opacity="0.4" d="M899.569 329.913L883.002 320.27V315.819L899.569 325.462V329.913Z" fill="#32DEF6"/>
<path opacity="0.4" d="M832.561 291.092L823.659 286.147V281.696L832.561 286.889V291.092Z" fill="#32DEF6"/>
<path opacity="0.4" d="M845.171 298.51L836.517 293.565V289.114L845.171 294.06V298.51Z" fill="#32DEF6"/>
<path opacity="0.4" d="M865.941 310.626L849.375 300.983V296.532L865.941 306.176V310.626Z" fill="#32DEF6"/>
<path opacity="0.4" d="M891.41 314.83L882.755 309.885V305.434L891.41 310.379V314.83Z" fill="#32DEF6"/>
<path opacity="0.4" d="M904.267 322.248L895.366 317.055V312.852L904.267 317.797V322.248Z" fill="#32DEF6"/>
<path opacity="0.4" d="M925.038 334.117L908.224 324.473V320.023L925.038 329.666V334.117Z" fill="#32DEF6"/>
<path opacity="0.4" d="M832.561 312.11L823.659 306.917V302.467L832.561 307.659V312.11Z" fill="#32DEF6"/>
<path opacity="0.4" d="M853.083 323.979L836.517 314.335V309.885L853.083 319.528V323.979Z" fill="#32DEF6"/>
<path opacity="0.4" d="M884.734 279.718L875.832 274.526V270.075L884.734 275.268V279.718Z" fill="#32DEF6"/>
<path opacity="0.4" d="M871.381 272.053L862.479 266.861V262.41L871.381 267.602V272.053Z" fill="#32DEF6"/>
<path opacity="0.4" d="M905.256 291.587L888.689 281.944V277.493L905.256 287.136V291.587Z" fill="#32DEF6"/>
<path opacity="0.4" d="M831.572 280.213L823.659 275.762V271.311L831.572 275.762V280.213Z" fill="#32DEF6"/>
<path opacity="0.4" d="M855.309 293.812L835.775 282.686V278.235L855.309 289.362V293.812Z" fill="#32DEF6"/>
<path opacity="0.4" d="M878.799 307.659L859.512 296.285V291.834L878.799 303.209V307.659Z" fill="#32DEF6"/>
<path opacity="0.4" d="M917.62 298.758L909.707 294.06V289.609L917.62 294.307V298.758Z" fill="#32DEF6"/>
<path opacity="0.4" d="M843.193 307.906L823.906 296.532V292.081L843.193 303.456V307.906Z" fill="#32DEF6"/>
<path opacity="0.4" d="M853.331 313.594L847.396 310.132V305.681L853.331 309.143V313.594Z" fill="#32DEF6"/>
<path opacity="0.4" d="M863.469 319.528L857.534 316.066V311.615L863.469 315.077V319.528Z" fill="#32DEF6"/>
<path opacity="0.4" d="M882.508 330.408L867.919 322.001V317.55L882.508 325.957V330.408Z" fill="#32DEF6"/>
<path opacity="0.4" d="M886.465 332.88L871.876 324.226V319.775L886.465 328.429V332.88Z" fill="#32DEF6"/>
<path opacity="0.4" d="M898.827 308.648L892.893 305.187V300.736L898.827 304.197V308.648Z" fill="#32DEF6"/>
<path opacity="0.4" d="M917.619 319.528L903.031 311.121V306.67L917.619 315.077V319.528Z" fill="#32DEF6"/>
<path opacity="0.4" d="M814.511 312.11L808.576 308.648V304.198L814.511 307.659V312.11Z" fill="#32DEF6"/>
<path opacity="0.4" d="M833.302 322.99L818.714 314.583V310.132L833.302 318.539V322.99Z" fill="#32DEF6"/>
<path opacity="0.4" d="M852.589 334.117L838 325.71V321.259L852.589 329.666V334.117Z" fill="#32DEF6"/>
</g>
<path d="M967.568 212.709L782.861 106.88C779.894 105.149 777.174 105.149 774.948 106.386L763.574 113.062L770.992 118.502V124.436L766.789 126.167L767.036 351.425L779.646 363.541L822.423 388.02L953.473 460.963C953.473 460.963 958.419 460.963 959.161 460.963C959.408 460.963 959.655 460.221 959.902 459.48L965.589 462.694L963.859 471.348L975.48 464.672C977.953 463.189 979.684 459.974 979.684 455.029V235.458C979.436 226.556 974.244 216.418 967.568 212.709ZM962.622 448.6L784.839 346.727C783.355 345.985 782.119 343.512 782.119 341.534V124.683L819.951 148.915L956.935 229.523L960.891 235.705L963.117 333.869L962.622 448.6Z" fill="url(#paint45_linear_37_25137)"/>
<path opacity="0.6" d="M975.727 221.611L957.924 231.749L960.396 235.705L962.622 333.869L962.375 448.353L959.16 446.375C959.16 449.836 963.611 467.392 963.611 471.101L973.007 465.661L975.232 464.425C977.705 462.941 979.436 459.727 979.436 454.782V235.211C979.436 230.76 977.952 225.815 975.727 221.611Z" fill="#0F054C"/>
<path d="M955.698 219.633L770.992 113.804C764.563 110.095 759.123 114.051 759.123 122.705V342.276C759.123 350.93 764.316 361.068 770.992 365.025L955.698 470.854C962.127 474.563 967.567 470.607 967.567 461.952V242.381C967.567 233.48 962.127 223.342 955.698 219.633ZM956.688 455.276C956.688 457.254 955.451 458.243 953.968 457.254L772.723 353.403C771.239 352.661 770.003 350.189 770.003 348.211V129.381C770.003 127.403 771.239 126.414 772.723 127.403L953.968 231.254C955.451 231.996 956.688 234.469 956.688 236.447V455.276Z" fill="url(#paint46_linear_37_25137)"/>
<path d="M955.698 219.633L770.992 113.804C764.563 110.095 759.123 114.051 759.123 122.705V342.276C759.123 350.93 764.316 361.068 770.992 365.025L955.698 470.854C962.127 474.563 967.567 470.607 967.567 461.952V242.381C967.567 233.48 962.127 223.342 955.698 219.633ZM956.688 455.276C956.688 457.254 955.451 458.243 953.968 457.254L772.723 353.403C771.239 352.661 770.003 350.189 770.003 348.211V129.381C770.003 127.403 771.239 126.414 772.723 127.403L953.968 231.254C955.451 231.996 956.688 234.469 956.688 236.447V455.276Z" fill="url(#paint47_linear_37_25137)"/>
<path d="M784.592 346.48C783.108 345.738 781.872 343.265 781.872 341.287V132.596L772.723 127.156C771.239 126.414 770.003 127.156 770.003 129.134V348.21C770.003 350.189 771.239 352.414 772.723 353.403L953.968 457.254C955.451 457.996 956.688 457.254 956.688 455.276V445.138L784.592 346.48Z" fill="#251C72"/>
<path opacity="0.4" d="M956.688 455.276C956.688 457.254 955.451 458.243 953.968 457.254L772.723 353.403C771.239 352.661 770.003 350.189 770.003 348.21V129.381C770.003 127.403 771.239 126.414 772.723 127.403L953.968 231.254C955.451 231.996 956.688 234.469 956.688 236.447V455.276Z" fill="#32DEF6"/>
<defs>
<radialGradient id="paint0_radial_37_25137" cx="0" cy="0" r="1" gradientUnits="userSpaceOnUse" gradientTransform="translate(1450.48 134.559) rotate(180) scale(1086.34 1086.34)">
<stop stop-color="#FF2C9C"/>
<stop offset="0.0300632" stop-color="#F62F9F"/>
<stop offset="0.2023" stop-color="#C63EB0"/>
<stop offset="0.3737" stop-color="#9E4BBE"/>
<stop offset="0.5413" stop-color="#7F54C9"/>
<stop offset="0.7039" stop-color="#695BD1"/>
<stop offset="0.8594" stop-color="#5C60D5"/>
<stop offset="1" stop-color="#5761D7"/>
</radialGradient>
<radialGradient id="paint1_radial_37_25137" cx="0" cy="0" r="1" gradientUnits="userSpaceOnUse" gradientTransform="translate(1450.48 134.559) rotate(180) scale(1086.34 1086.34)">
<stop stop-color="#FF2C9C"/>
<stop offset="0.0300632" stop-color="#F62F9F"/>
<stop offset="0.2023" stop-color="#C63EB0"/>
<stop offset="0.3737" stop-color="#9E4BBE"/>
<stop offset="0.5413" stop-color="#7F54C9"/>
<stop offset="0.7039" stop-color="#695BD1"/>
<stop offset="0.8594" stop-color="#5C60D5"/>
<stop offset="1" stop-color="#5761D7"/>
</radialGradient>
<radialGradient id="paint2_radial_37_25137" cx="0" cy="0" r="1" gradientUnits="userSpaceOnUse" gradientTransform="translate(1450.48 134.559) rotate(180) scale(1086.34 1086.34)">
<stop stop-color="#FF2C9C"/>
<stop offset="0.0300632" stop-color="#F62F9F"/>
<stop offset="0.2023" stop-color="#C63EB0"/>
<stop offset="0.3737" stop-color="#9E4BBE"/>
<stop offset="0.5413" stop-color="#7F54C9"/>
<stop offset="0.7039" stop-color="#695BD1"/>
<stop offset="0.8594" stop-color="#5C60D5"/>
<stop offset="1" stop-color="#5761D7"/>
</radialGradient>
<linearGradient id="paint3_linear_37_25137" x1="1156.87" y1="722.486" x2="1256.73" y2="780.138" gradientUnits="userSpaceOnUse">
<stop stop-color="#BCBEFF"/>
<stop offset="0.2271" stop-color="#AAADF8"/>
<stop offset="0.6802" stop-color="#7C83E5"/>
<stop offset="1" stop-color="#5761D7"/>
</linearGradient>
<linearGradient id="paint4_linear_37_25137" x1="1144.35" y1="744.278" x2="1270.21" y2="744.278" gradientUnits="userSpaceOnUse">
<stop stop-color="#E9E9FD"/>
<stop offset="0.3601" stop-color="#D3D2F9"/>
<stop offset="0.7062" stop-color="#C5C4F7"/>
<stop offset="1" stop-color="#C0BFF6"/>
</linearGradient>
<linearGradient id="paint5_linear_37_25137" x1="1156.87" y1="648.987" x2="1256.73" y2="706.638" gradientUnits="userSpaceOnUse">
<stop stop-color="#BCBEFF"/>
<stop offset="0.2271" stop-color="#AAADF8"/>
<stop offset="0.6802" stop-color="#7C83E5"/>
<stop offset="1" stop-color="#5761D7"/>
</linearGradient>
<linearGradient id="paint6_linear_37_25137" x1="1144.35" y1="670.779" x2="1270.21" y2="670.779" gradientUnits="userSpaceOnUse">
<stop stop-color="#E9E9FD"/>
<stop offset="0.3601" stop-color="#D3D2F9"/>
<stop offset="0.7062" stop-color="#C5C4F7"/>
<stop offset="1" stop-color="#C0BFF6"/>
</linearGradient>
<linearGradient id="paint7_linear_37_25137" x1="626.13" y1="707.936" x2="725.985" y2="765.587" gradientUnits="userSpaceOnUse">
<stop stop-color="#BCBEFF"/>
<stop offset="0.2271" stop-color="#AAADF8"/>
<stop offset="0.6802" stop-color="#7C83E5"/>
<stop offset="1" stop-color="#5761D7"/>
</linearGradient>
<linearGradient id="paint8_linear_37_25137" x1="613.609" y1="729.728" x2="739.465" y2="729.728" gradientUnits="userSpaceOnUse">
<stop stop-color="#E9E9FD"/>
<stop offset="0.3601" stop-color="#D3D2F9"/>
<stop offset="0.7062" stop-color="#C5C4F7"/>
<stop offset="1" stop-color="#C0BFF6"/>
</linearGradient>
<linearGradient id="paint9_linear_37_25137" x1="626.13" y1="629.102" x2="725.985" y2="686.754" gradientUnits="userSpaceOnUse">
<stop stop-color="#BCBEFF"/>
<stop offset="0.2271" stop-color="#AAADF8"/>
<stop offset="0.6802" stop-color="#7C83E5"/>
<stop offset="1" stop-color="#5761D7"/>
</linearGradient>
<linearGradient id="paint10_linear_37_25137" x1="613.609" y1="650.894" x2="739.465" y2="650.894" gradientUnits="userSpaceOnUse">
<stop stop-color="#E9E9FD"/>
<stop offset="0.3601" stop-color="#D3D2F9"/>
<stop offset="0.7062" stop-color="#C5C4F7"/>
<stop offset="1" stop-color="#C0BFF6"/>
</linearGradient>
<linearGradient id="paint11_linear_37_25137" x1="1190.27" y1="395.849" x2="1290.12" y2="453.5" gradientUnits="userSpaceOnUse">
<stop stop-color="#BCBEFF"/>
<stop offset="0.2271" stop-color="#AAADF8"/>
<stop offset="0.6802" stop-color="#7C83E5"/>
<stop offset="1" stop-color="#5761D7"/>
</linearGradient>
<linearGradient id="paint12_linear_37_25137" x1="1177.75" y1="417.641" x2="1303.6" y2="417.641" gradientUnits="userSpaceOnUse">
<stop stop-color="#E9E9FD"/>
<stop offset="0.3601" stop-color="#D3D2F9"/>
<stop offset="0.7062" stop-color="#C5C4F7"/>
<stop offset="1" stop-color="#C0BFF6"/>
</linearGradient>
<linearGradient id="paint13_linear_37_25137" x1="1190.27" y1="322.443" x2="1290.12" y2="380.095" gradientUnits="userSpaceOnUse">
<stop stop-color="#BCBEFF"/>
<stop offset="0.2271" stop-color="#AAADF8"/>
<stop offset="0.6802" stop-color="#7C83E5"/>
<stop offset="1" stop-color="#5761D7"/>
</linearGradient>
<linearGradient id="paint14_linear_37_25137" x1="1177.75" y1="344.235" x2="1303.6" y2="344.235" gradientUnits="userSpaceOnUse">
<stop stop-color="#E9E9FD"/>
<stop offset="0.3601" stop-color="#D3D2F9"/>
<stop offset="0.7062" stop-color="#C5C4F7"/>
<stop offset="1" stop-color="#C0BFF6"/>
</linearGradient>
<linearGradient id="paint15_linear_37_25137" x1="1151.8" y1="539.157" x2="662.467" y2="539.157" gradientUnits="userSpaceOnUse">
<stop stop-color="#5761D7"/>
<stop offset="0.1779" stop-color="#5C66D9"/>
<stop offset="0.3876" stop-color="#6A73DF"/>
<stop offset="0.6134" stop-color="#8289E8"/>
<stop offset="0.849" stop-color="#A3A7F5"/>
<stop offset="1" stop-color="#BCBEFF"/>
</linearGradient>
<linearGradient id="paint16_linear_37_25137" x1="996.553" y1="527.766" x2="507.221" y2="527.766" gradientUnits="userSpaceOnUse">
<stop stop-color="#C0BFF6"/>
<stop offset="0.2938" stop-color="#C5C4F7"/>
<stop offset="0.6399" stop-color="#D3D2F9"/>
<stop offset="1" stop-color="#E9E9FD"/>
</linearGradient>
<linearGradient id="paint17_linear_37_25137" x1="1207.28" y1="313.116" x2="860.99" y2="313.116" gradientUnits="userSpaceOnUse">
<stop stop-color="#C0BFF6"/>
<stop offset="0.2938" stop-color="#C5C4F7"/>
<stop offset="0.6399" stop-color="#D3D2F9"/>
<stop offset="1" stop-color="#E9E9FD"/>
</linearGradient>
<linearGradient id="paint18_linear_37_25137" x1="1207.27" y1="401.922" x2="1147.81" y2="401.922" gradientUnits="userSpaceOnUse">
<stop stop-color="#5761D7"/>
<stop offset="0.1779" stop-color="#5C66D9"/>
<stop offset="0.3876" stop-color="#6A73DF"/>
<stop offset="0.6134" stop-color="#8289E8"/>
<stop offset="0.849" stop-color="#A3A7F5"/>
<stop offset="1" stop-color="#BCBEFF"/>
</linearGradient>
<linearGradient id="paint19_linear_37_25137" x1="1160.88" y1="498.817" x2="671.811" y2="498.817" gradientUnits="userSpaceOnUse">
<stop stop-color="#5761D7"/>
<stop offset="0.1779" stop-color="#5C66D9"/>
<stop offset="0.3876" stop-color="#6A73DF"/>
<stop offset="0.6134" stop-color="#8289E8"/>
<stop offset="0.849" stop-color="#A3A7F5"/>
<stop offset="1" stop-color="#BCBEFF"/>
</linearGradient>
<linearGradient id="paint20_linear_37_25137" x1="996.553" y1="485.444" x2="507.221" y2="485.444" gradientUnits="userSpaceOnUse">
<stop stop-color="#C0BFF6"/>
<stop offset="0.2938" stop-color="#C5C4F7"/>
<stop offset="0.6399" stop-color="#D3D2F9"/>
<stop offset="1" stop-color="#E9E9FD"/>
</linearGradient>
<radialGradient id="paint21_radial_37_25137" cx="0" cy="0" r="1" gradientUnits="userSpaceOnUse" gradientTransform="translate(922.437 465.681) scale(309.784)">
<stop stop-color="#42E8E0"/>
<stop offset="0.1055" stop-color="#37B6BF"/>
<stop offset="0.2197" stop-color="#2C87A1"/>
<stop offset="0.338" stop-color="#235F87"/>
<stop offset="0.4587" stop-color="#1C3F72"/>
<stop offset="0.5824" stop-color="#162561"/>
<stop offset="0.7105" stop-color="#121355"/>
<stop offset="0.8458" stop-color="#10084E"/>
<stop offset="1" stop-color="#0F054C"/>
</radialGradient>
<radialGradient id="paint22_radial_37_25137" cx="0" cy="0" r="1" gradientUnits="userSpaceOnUse" gradientTransform="translate(870.404 653.768) rotate(180) scale(150.622 205.036)">
<stop stop-color="#C0BFF6"/>
<stop offset="1" stop-color="#393091"/>
</radialGradient>
<linearGradient id="paint23_linear_37_25137" x1="670.954" y1="479.138" x2="1161.68" y2="479.138" gradientUnits="userSpaceOnUse">
<stop stop-color="#32DEF6"/>
<stop offset="0.1055" stop-color="#37A7BF"/>
<stop offset="0.2197" stop-color="#2C70A1"/>
<stop offset="0.338" stop-color="#235F87"/>
<stop offset="0.4587" stop-color="#1C3F72"/>
<stop offset="0.5824" stop-color="#162561"/>
<stop offset="0.7105" stop-color="#121355"/>
<stop offset="0.8458" stop-color="#10084E"/>
<stop offset="1" stop-color="#0F054C"/>
</linearGradient>
<radialGradient id="paint24_radial_37_25137" cx="0" cy="0" r="1" gradientUnits="userSpaceOnUse" gradientTransform="translate(807.028 374.412) rotate(16.7569) scale(64.0255)">
<stop stop-color="#C0BFF6"/>
<stop offset="1" stop-color="#393091"/>
</radialGradient>
<linearGradient id="paint25_linear_37_25137" x1="766.14" y1="405.565" x2="814.168" y2="377.339" gradientUnits="userSpaceOnUse">
<stop stop-color="#2FD3C7"/>
<stop offset="0.0880899" stop-color="#31B6BD"/>
<stop offset="0.2288" stop-color="#338DB0"/>
<stop offset="0.3734" stop-color="#356BA5"/>
<stop offset="0.5206" stop-color="#37519C"/>
<stop offset="0.6715" stop-color="#383F96"/>
<stop offset="0.8281" stop-color="#393492"/>
<stop offset="1" stop-color="#393091"/>
</linearGradient>
<radialGradient id="paint26_radial_37_25137" cx="0" cy="0" r="1" gradientUnits="userSpaceOnUse" gradientTransform="translate(794.987 378.027) rotate(-95.1062) scale(41.5503)">
<stop stop-color="#42E8E0"/>
<stop offset="0.1055" stop-color="#37B6BF"/>
<stop offset="0.2197" stop-color="#2C87A1"/>
<stop offset="0.338" stop-color="#235F87"/>
<stop offset="0.4587" stop-color="#1C3F72"/>
<stop offset="0.5824" stop-color="#162561"/>
<stop offset="0.7105" stop-color="#121355"/>
<stop offset="0.8458" stop-color="#10084E"/>
<stop offset="1" stop-color="#0F054C"/>
</radialGradient>
<radialGradient id="paint27_radial_37_25137" cx="0" cy="0" r="1" gradientUnits="userSpaceOnUse" gradientTransform="translate(1008.8 208.731) rotate(11.1976) scale(195.95)">
<stop stop-color="#C0BFF6"/>
<stop offset="1" stop-color="#393091"/>
</radialGradient>
<linearGradient id="paint28_linear_37_25137" x1="828.203" y1="345.814" x2="864.676" y2="288.552" gradientUnits="userSpaceOnUse">
<stop stop-color="#706EC4"/>
<stop offset="0.0222208" stop-color="#6D6BC2"/>
<stop offset="0.2509" stop-color="#5651AC"/>
<stop offset="0.4865" stop-color="#463F9D"/>
<stop offset="0.7314" stop-color="#3C3494"/>
<stop offset="1" stop-color="#393091"/>
</linearGradient>
<radialGradient id="paint29_radial_37_25137" cx="0" cy="0" r="1" gradientUnits="userSpaceOnUse" gradientTransform="translate(979.792 360.945) scale(150.622 205.036)">
<stop stop-color="#C0BFF6"/>
<stop offset="1" stop-color="#393091"/>
</radialGradient>
<linearGradient id="paint30_linear_37_25137" x1="928.079" y1="498.136" x2="928.079" y2="293.184" gradientUnits="userSpaceOnUse">
<stop stop-color="#2FD3C7"/>
<stop offset="0.0880899" stop-color="#31B6BD"/>
<stop offset="0.2288" stop-color="#338DB0"/>
<stop offset="0.3734" stop-color="#356BA5"/>
<stop offset="0.5206" stop-color="#37519C"/>
<stop offset="0.6715" stop-color="#383F96"/>
<stop offset="0.8281" stop-color="#393492"/>
<stop offset="1" stop-color="#393091"/>
</linearGradient>
<radialGradient id="paint31_radial_37_25137" cx="0" cy="0" r="1" gradientUnits="userSpaceOnUse" gradientTransform="translate(925.756 361.794) scale(116.585)">
<stop stop-color="#42E8E0"/>
<stop offset="0.1055" stop-color="#37B6BF"/>
<stop offset="0.2197" stop-color="#2C87A1"/>
<stop offset="0.338" stop-color="#235F87"/>
<stop offset="0.4587" stop-color="#1C3F72"/>
<stop offset="0.5824" stop-color="#162561"/>
<stop offset="0.7105" stop-color="#121355"/>
<stop offset="0.8458" stop-color="#10084E"/>
<stop offset="1" stop-color="#0F054C"/>
</radialGradient>
<radialGradient id="paint32_radial_37_25137" cx="0" cy="0" r="1" gradientUnits="userSpaceOnUse" gradientTransform="translate(987.34 232.94) scale(151.084)">
<stop stop-color="#C0BFF6"/>
<stop offset="1" stop-color="#393091"/>
</radialGradient>
<linearGradient id="paint33_linear_37_25137" x1="919.113" y1="334.712" x2="943.997" y2="157.653" gradientUnits="userSpaceOnUse">
<stop stop-color="#2FD3C7"/>
<stop offset="0.0880899" stop-color="#31B6BD"/>
<stop offset="0.2288" stop-color="#338DB0"/>
<stop offset="0.3734" stop-color="#356BA5"/>
<stop offset="0.5206" stop-color="#37519C"/>
<stop offset="0.6715" stop-color="#383F96"/>
<stop offset="0.8281" stop-color="#393492"/>
<stop offset="1" stop-color="#393091"/>
</linearGradient>
<radialGradient id="paint34_radial_37_25137" cx="0" cy="0" r="1" gradientUnits="userSpaceOnUse" gradientTransform="translate(903.72 254.424) scale(74.2086)">
<stop stop-color="#42E8E0"/>
<stop offset="0.05911" stop-color="#3CCBCD"/>
<stop offset="0.1783" stop-color="#3098AC"/>
<stop offset="0.2996" stop-color="#266B8F"/>
<stop offset="0.4207" stop-color="#1E4777"/>
<stop offset="0.5414" stop-color="#172A65"/>
<stop offset="0.6619" stop-color="#131657"/>
<stop offset="0.7821" stop-color="#100A50"/>
<stop offset="0.9017" stop-color="#0F064D"/>
<stop offset="1" stop-color="#0F054C"/>
</radialGradient>
<radialGradient id="paint35_radial_37_25137" cx="0" cy="0" r="1" gradientUnits="userSpaceOnUse" gradientTransform="translate(1044.53 379.345) rotate(11.1976) scale(70.8207)">
<stop stop-color="#C0BFF6"/>
<stop offset="1" stop-color="#393091"/>
</radialGradient>
<linearGradient id="paint36_linear_37_25137" x1="996.951" y1="421.453" x2="1051.88" y2="381.546" gradientUnits="userSpaceOnUse">
<stop stop-color="#2FD3C7"/>
<stop offset="0.0880899" stop-color="#31B6BD"/>
<stop offset="0.2288" stop-color="#338DB0"/>
<stop offset="0.3734" stop-color="#356BA5"/>
<stop offset="0.5206" stop-color="#37519C"/>
<stop offset="0.6715" stop-color="#383F96"/>
<stop offset="0.8281" stop-color="#393492"/>
<stop offset="1" stop-color="#393091"/>
</linearGradient>
<radialGradient id="paint37_radial_37_25137" cx="0" cy="0" r="1" gradientUnits="userSpaceOnUse" gradientTransform="translate(1035.68 405.471) scale(63.248)">
<stop stop-color="#42E8E0"/>
<stop offset="0.1055" stop-color="#37B6BF"/>
<stop offset="0.2197" stop-color="#2C87A1"/>
<stop offset="0.338" stop-color="#235F87"/>
<stop offset="0.4587" stop-color="#1C3F72"/>
<stop offset="0.5824" stop-color="#162561"/>
<stop offset="0.7105" stop-color="#121355"/>
<stop offset="0.8458" stop-color="#10084E"/>
<stop offset="1" stop-color="#0F054C"/>
</radialGradient>
<radialGradient id="paint38_radial_37_25137" cx="0" cy="0" r="1" gradientUnits="userSpaceOnUse" gradientTransform="translate(984.767 205.648) scale(59.6163 76.589)">
<stop stop-color="#2B237C"/>
<stop offset="0.31" stop-color="#251C72"/>
<stop offset="1" stop-color="#0F054C"/>
</radialGradient>
<linearGradient id="paint39_linear_37_25137" x1="1031.65" y1="285.959" x2="946.885" y2="311.736" gradientUnits="userSpaceOnUse">
<stop stop-color="#BCBEFF"/>
<stop offset="0.151" stop-color="#A3A7F5"/>
<stop offset="0.3866" stop-color="#8289E8"/>
<stop offset="0.6124" stop-color="#6A73DF"/>
<stop offset="0.8221" stop-color="#5C66D9"/>
<stop offset="1" stop-color="#5761D7"/>
</linearGradient>
<linearGradient id="paint40_linear_37_25137" x1="1016.98" y1="291.337" x2="900.824" y2="305.176" gradientUnits="userSpaceOnUse">
<stop stop-color="#BCBEFF"/>
<stop offset="0.151" stop-color="#A3A7F5"/>
<stop offset="0.3866" stop-color="#8289E8"/>
<stop offset="0.6124" stop-color="#6A73DF"/>
<stop offset="0.8221" stop-color="#5C66D9"/>
<stop offset="1" stop-color="#5761D7"/>
</linearGradient>
<linearGradient id="paint41_linear_37_25137" x1="999.556" y1="325.485" x2="1060.08" y2="225.383" gradientUnits="userSpaceOnUse">
<stop stop-color="#42E8E0"/>
<stop offset="0.1188" stop-color="#42E2DE"/>
<stop offset="0.2699" stop-color="#41D3D7"/>
<stop offset="0.4386" stop-color="#40B9CC"/>
<stop offset="0.6201" stop-color="#3E94BC"/>
<stop offset="0.8101" stop-color="#3C66A8"/>
<stop offset="1" stop-color="#393091"/>
</linearGradient>
<radialGradient id="paint42_radial_37_25137" cx="0" cy="0" r="1" gradientUnits="userSpaceOnUse" gradientTransform="translate(1040.23 479.033) rotate(16.7569) scale(64.0255)">
<stop stop-color="#C0BFF6"/>
<stop offset="1" stop-color="#393091"/>
</radialGradient>
<linearGradient id="paint43_linear_37_25137" x1="999.343" y1="510.186" x2="1047.37" y2="481.96" gradientUnits="userSpaceOnUse">
<stop stop-color="#2FD3C7"/>
<stop offset="0.0880899" stop-color="#31B6BD"/>
<stop offset="0.2288" stop-color="#338DB0"/>
<stop offset="0.3734" stop-color="#356BA5"/>
<stop offset="0.5206" stop-color="#37519C"/>
<stop offset="0.6715" stop-color="#383F96"/>
<stop offset="0.8281" stop-color="#393492"/>
<stop offset="1" stop-color="#393091"/>
</linearGradient>
<radialGradient id="paint44_radial_37_25137" cx="0" cy="0" r="1" gradientUnits="userSpaceOnUse" gradientTransform="translate(1028.19 482.648) rotate(-95.1063) scale(41.5502)">
<stop stop-color="#42E8E0"/>
<stop offset="0.1055" stop-color="#37B6BF"/>
<stop offset="0.2197" stop-color="#2C87A1"/>
<stop offset="0.338" stop-color="#235F87"/>
<stop offset="0.4587" stop-color="#1C3F72"/>
<stop offset="0.5824" stop-color="#162561"/>
<stop offset="0.7105" stop-color="#121355"/>
<stop offset="0.8458" stop-color="#10084E"/>
<stop offset="1" stop-color="#0F054C"/>
</radialGradient>
<linearGradient id="paint45_linear_37_25137" x1="806.219" y1="288.38" x2="981.15" y2="288.38" gradientUnits="userSpaceOnUse">
<stop stop-color="#BCBEFF"/>
<stop offset="0.1659" stop-color="#B6B8FC"/>
<stop offset="0.3956" stop-color="#A4A8F5"/>
<stop offset="0.6625" stop-color="#868DEA"/>
<stop offset="0.9554" stop-color="#5E67DA"/>
<stop offset="1" stop-color="#5761D7"/>
</linearGradient>
<linearGradient id="paint46_linear_37_25137" x1="759.242" y1="292.304" x2="967.55" y2="292.304" gradientUnits="userSpaceOnUse">
<stop stop-color="#BCBEFF"/>
<stop offset="0.1659" stop-color="#B6B8FC"/>
<stop offset="0.3956" stop-color="#A4A8F5"/>
<stop offset="0.6625" stop-color="#868DEA"/>
<stop offset="0.9554" stop-color="#5E67DA"/>
<stop offset="1" stop-color="#5761D7"/>
</linearGradient>
<linearGradient id="paint47_linear_37_25137" x1="730.471" y1="292.304" x2="1106.29" y2="292.304" gradientUnits="userSpaceOnUse">
<stop stop-color="#706EC4"/>
<stop offset="0.0222208" stop-color="#6D6BC2"/>
<stop offset="0.2509" stop-color="#5651AC"/>
<stop offset="0.4865" stop-color="#463F9D"/>
<stop offset="0.7314" stop-color="#3C3494"/>
<stop offset="1" stop-color="#393091"/>
</linearGradient>
</defs>
</svg>
