<svg width="740" height="741" viewBox="0 0 740 741" fill="none" xmlns="http://www.w3.org/2000/svg">
<path d="M497.33 332.671V309.631H490.202V305.851H508.562V309.631H501.542V332.671H497.33ZM519.395 333.103C517.451 333.103 515.723 332.659 514.211 331.771C512.723 330.859 511.559 329.635 510.719 328.099C509.879 326.539 509.459 324.799 509.459 322.879C509.459 320.911 509.879 319.171 510.719 317.659C511.583 316.147 512.735 314.959 514.175 314.095C515.615 313.207 517.247 312.763 519.071 312.763C520.535 312.763 521.843 313.015 522.995 313.519C524.147 314.023 525.119 314.719 525.911 315.607C526.703 316.471 527.303 317.467 527.711 318.595C528.143 319.723 528.359 320.923 528.359 322.195C528.359 322.507 528.347 322.831 528.323 323.167C528.299 323.503 528.251 323.815 528.179 324.103H512.663V320.863H525.875L523.931 322.339C524.171 321.163 524.087 320.119 523.679 319.207C523.295 318.271 522.695 317.539 521.879 317.011C521.087 316.459 520.151 316.183 519.071 316.183C517.991 316.183 517.031 316.459 516.191 317.011C515.351 317.539 514.703 318.307 514.247 319.315C513.791 320.299 513.611 321.499 513.707 322.915C513.587 324.235 513.767 325.387 514.247 326.371C514.751 327.355 515.447 328.123 516.335 328.675C517.247 329.227 518.279 329.503 519.431 329.503C520.607 329.503 521.603 329.239 522.419 328.711C523.259 328.183 523.919 327.499 524.399 326.659L527.711 328.279C527.327 329.191 526.727 330.019 525.911 330.763C525.119 331.483 524.159 332.059 523.031 332.491C521.927 332.899 520.715 333.103 519.395 333.103ZM539.425 333.103C538.105 333.103 536.941 332.875 535.933 332.419C534.949 331.939 534.181 331.291 533.629 330.475C533.077 329.635 532.801 328.651 532.801 327.523C532.801 326.467 533.029 325.519 533.485 324.679C533.965 323.839 534.697 323.131 535.681 322.555C536.665 321.979 537.901 321.571 539.389 321.331L546.157 320.215V323.419L540.181 324.463C539.101 324.655 538.309 325.003 537.805 325.507C537.301 325.987 537.049 326.611 537.049 327.379C537.049 328.123 537.325 328.735 537.877 329.215C538.453 329.671 539.185 329.899 540.073 329.899C541.177 329.899 542.137 329.659 542.953 329.179C543.793 328.699 544.441 328.063 544.897 327.271C545.353 326.455 545.581 325.555 545.581 324.571V319.567C545.581 318.607 545.221 317.827 544.501 317.227C543.805 316.603 542.869 316.291 541.693 316.291C540.613 316.291 539.665 316.579 538.849 317.155C538.057 317.707 537.469 318.427 537.085 319.315L533.701 317.623C534.061 316.663 534.649 315.823 535.465 315.103C536.281 314.359 537.229 313.783 538.309 313.375C539.413 312.967 540.577 312.763 541.801 312.763C543.337 312.763 544.693 313.051 545.869 313.627C547.069 314.203 547.993 315.007 548.641 316.039C549.313 317.047 549.649 318.223 549.649 319.567V332.671H545.761V329.143L546.589 329.251C546.133 330.043 545.545 330.727 544.825 331.303C544.129 331.879 543.325 332.323 542.413 332.635C541.525 332.947 540.529 333.103 539.425 333.103ZM555.846 332.671V313.195H559.734V317.407L559.23 316.759C559.638 315.439 560.382 314.443 561.462 313.771C562.542 313.099 563.778 312.763 565.17 312.763C566.73 312.763 568.11 313.183 569.31 314.023C570.534 314.839 571.35 315.931 571.758 317.299L570.606 317.407C571.182 315.847 572.058 314.683 573.234 313.915C574.434 313.147 575.802 312.763 577.338 312.763C578.682 312.763 579.894 313.075 580.974 313.699C582.078 314.323 582.954 315.187 583.602 316.291C584.25 317.395 584.574 318.655 584.574 320.071V332.671H580.506V321.187C580.506 320.203 580.326 319.375 579.966 318.703C579.63 318.007 579.15 317.479 578.526 317.119C577.926 316.735 577.218 316.543 576.402 316.543C575.586 316.543 574.866 316.735 574.242 317.119C573.618 317.479 573.126 318.007 572.766 318.703C572.406 319.399 572.226 320.227 572.226 321.187V332.671H568.194V321.187C568.194 320.203 568.014 319.375 567.654 318.703C567.318 318.007 566.838 317.479 566.214 317.119C565.614 316.735 564.894 316.543 564.054 316.543C563.238 316.543 562.518 316.735 561.894 317.119C561.27 317.479 560.778 318.007 560.418 318.703C560.082 319.399 559.914 320.227 559.914 321.187V332.671H555.846Z" fill="#32DEF6"/>
<path d="M110.819 332.671V305.851H120.575C122.375 305.851 123.959 306.187 125.327 306.859C126.719 307.507 127.799 308.467 128.567 309.739C129.335 310.987 129.719 312.487 129.719 314.239C129.719 315.967 129.323 317.455 128.531 318.703C127.763 319.951 126.695 320.911 125.327 321.583C123.959 322.255 122.375 322.591 120.575 322.591H115.067V332.671H110.819ZM115.067 318.811H120.683C121.643 318.811 122.483 318.619 123.203 318.235C123.923 317.851 124.487 317.323 124.895 316.651C125.303 315.955 125.507 315.139 125.507 314.203C125.507 313.267 125.303 312.463 124.895 311.791C124.487 311.095 123.923 310.567 123.203 310.207C122.483 309.823 121.643 309.631 120.683 309.631H115.067V318.811ZM135.136 332.671V313.195H139.024V317.119L138.664 316.543C139.096 315.271 139.792 314.359 140.752 313.807C141.712 313.231 142.864 312.943 144.208 312.943H145.396V316.651H143.704C142.36 316.651 141.268 317.071 140.428 317.911C139.612 318.727 139.204 319.903 139.204 321.439V332.671H135.136ZM159.015 333.103C157.143 333.103 155.427 332.659 153.867 331.771C152.331 330.883 151.107 329.671 150.195 328.135C149.283 326.599 148.827 324.859 148.827 322.915C148.827 320.947 149.283 319.207 150.195 317.695C151.107 316.159 152.331 314.959 153.867 314.095C155.403 313.207 157.119 312.763 159.015 312.763C160.935 312.763 162.651 313.207 164.163 314.095C165.699 314.959 166.911 316.159 167.799 317.695C168.711 319.207 169.167 320.947 169.167 322.915C169.167 324.883 168.711 326.635 167.799 328.171C166.887 329.707 165.663 330.919 164.127 331.807C162.591 332.671 160.887 333.103 159.015 333.103ZM159.015 329.323C160.167 329.323 161.187 329.047 162.075 328.495C162.963 327.943 163.659 327.187 164.163 326.227C164.691 325.243 164.955 324.139 164.955 322.915C164.955 321.691 164.691 320.599 164.163 319.639C163.659 318.679 162.963 317.923 162.075 317.371C161.187 316.819 160.167 316.543 159.015 316.543C157.887 316.543 156.867 316.819 155.955 317.371C155.067 317.923 154.359 318.679 153.831 319.639C153.327 320.599 153.075 321.691 153.075 322.915C153.075 324.139 153.327 325.243 153.831 326.227C154.359 327.187 155.067 327.943 155.955 328.495C156.867 329.047 157.887 329.323 159.015 329.323ZM183.831 333.103C181.887 333.103 180.159 332.659 178.647 331.771C177.159 330.859 175.971 329.635 175.083 328.099C174.219 326.563 173.787 324.823 173.787 322.879C173.787 320.959 174.219 319.231 175.083 317.695C175.947 316.159 177.135 314.959 178.647 314.095C180.159 313.207 181.887 312.763 183.831 312.763C185.151 312.763 186.387 313.003 187.539 313.483C188.691 313.939 189.687 314.575 190.527 315.391C191.391 316.207 192.027 317.155 192.435 318.235L188.871 319.891C188.463 318.883 187.803 318.079 186.891 317.479C186.003 316.855 184.983 316.543 183.831 316.543C182.727 316.543 181.731 316.819 180.843 317.371C179.979 317.899 179.295 318.655 178.791 319.639C178.287 320.599 178.035 321.691 178.035 322.915C178.035 324.139 178.287 325.243 178.791 326.227C179.295 327.187 179.979 327.943 180.843 328.495C181.731 329.047 182.727 329.323 183.831 329.323C185.007 329.323 186.027 329.023 186.891 328.423C187.779 327.799 188.439 326.971 188.871 325.939L192.435 327.631C192.051 328.663 191.427 329.599 190.563 330.439C189.723 331.255 188.727 331.903 187.575 332.383C186.423 332.863 185.175 333.103 183.831 333.103ZM206.995 333.103C205.051 333.103 203.323 332.659 201.811 331.771C200.323 330.859 199.159 329.635 198.319 328.099C197.479 326.539 197.059 324.799 197.059 322.879C197.059 320.911 197.479 319.171 198.319 317.659C199.183 316.147 200.335 314.959 201.775 314.095C203.215 313.207 204.847 312.763 206.671 312.763C208.135 312.763 209.443 313.015 210.595 313.519C211.747 314.023 212.719 314.719 213.511 315.607C214.303 316.471 214.903 317.467 215.311 318.595C215.743 319.723 215.959 320.923 215.959 322.195C215.959 322.507 215.947 322.831 215.923 323.167C215.899 323.503 215.851 323.815 215.779 324.103H200.263V320.863H213.475L211.531 322.339C211.771 321.163 211.687 320.119 211.279 319.207C210.895 318.271 210.295 317.539 209.479 317.011C208.687 316.459 207.751 316.183 206.671 316.183C205.591 316.183 204.631 316.459 203.791 317.011C202.951 317.539 202.303 318.307 201.847 319.315C201.391 320.299 201.211 321.499 201.307 322.915C201.187 324.235 201.367 325.387 201.847 326.371C202.351 327.355 203.047 328.123 203.935 328.675C204.847 329.227 205.879 329.503 207.031 329.503C208.207 329.503 209.203 329.239 210.019 328.711C210.859 328.183 211.519 327.499 211.999 326.659L215.311 328.279C214.927 329.191 214.327 330.019 213.511 330.763C212.719 331.483 211.759 332.059 210.631 332.491C209.527 332.899 208.315 333.103 206.995 333.103ZM228.569 333.103C226.577 333.103 224.825 332.611 223.313 331.627C221.825 330.643 220.781 329.323 220.181 327.667L223.313 326.191C223.841 327.295 224.561 328.171 225.473 328.819C226.409 329.467 227.441 329.791 228.569 329.791C229.529 329.791 230.309 329.575 230.909 329.143C231.509 328.711 231.809 328.123 231.809 327.379C231.809 326.899 231.677 326.515 231.413 326.227C231.149 325.915 230.813 325.663 230.405 325.471C230.021 325.279 229.625 325.135 229.217 325.039L226.157 324.175C224.477 323.695 223.217 322.975 222.377 322.015C221.561 321.031 221.153 319.891 221.153 318.595C221.153 317.419 221.453 316.399 222.053 315.535C222.653 314.647 223.481 313.963 224.537 313.483C225.593 313.003 226.781 312.763 228.101 312.763C229.877 312.763 231.461 313.207 232.853 314.095C234.245 314.959 235.229 316.171 235.805 317.731L232.673 319.207C232.289 318.271 231.677 317.527 230.837 316.975C230.021 316.423 229.097 316.147 228.065 316.147C227.177 316.147 226.469 316.363 225.941 316.795C225.413 317.203 225.149 317.743 225.149 318.415C225.149 318.871 225.269 319.255 225.509 319.567C225.749 319.855 226.061 320.095 226.445 320.287C226.829 320.455 227.225 320.599 227.633 320.719L230.801 321.655C232.409 322.111 233.645 322.831 234.509 323.815C235.373 324.775 235.805 325.927 235.805 327.271C235.805 328.423 235.493 329.443 234.869 330.331C234.269 331.195 233.429 331.879 232.349 332.383C231.269 332.863 230.009 333.103 228.569 333.103ZM248.431 333.103C246.439 333.103 244.687 332.611 243.175 331.627C241.687 330.643 240.643 329.323 240.043 327.667L243.175 326.191C243.703 327.295 244.423 328.171 245.335 328.819C246.271 329.467 247.303 329.791 248.431 329.791C249.391 329.791 250.171 329.575 250.771 329.143C251.371 328.711 251.671 328.123 251.671 327.379C251.671 326.899 251.539 326.515 251.275 326.227C251.011 325.915 250.675 325.663 250.267 325.471C249.883 325.279 249.487 325.135 249.079 325.039L246.019 324.175C244.339 323.695 243.079 322.975 242.239 322.015C241.423 321.031 241.015 319.891 241.015 318.595C241.015 317.419 241.315 316.399 241.915 315.535C242.515 314.647 243.343 313.963 244.399 313.483C245.455 313.003 246.643 312.763 247.963 312.763C249.739 312.763 251.323 313.207 252.715 314.095C254.107 314.959 255.091 316.171 255.667 317.731L252.535 319.207C252.151 318.271 251.539 317.527 250.699 316.975C249.883 316.423 248.959 316.147 247.927 316.147C247.039 316.147 246.331 316.363 245.803 316.795C245.275 317.203 245.011 317.743 245.011 318.415C245.011 318.871 245.131 319.255 245.371 319.567C245.611 319.855 245.923 320.095 246.307 320.287C246.691 320.455 247.087 320.599 247.495 320.719L250.663 321.655C252.271 322.111 253.507 322.831 254.371 323.815C255.235 324.775 255.667 325.927 255.667 327.271C255.667 328.423 255.355 329.443 254.731 330.331C254.131 331.195 253.291 331.879 252.211 332.383C251.131 332.863 249.871 333.103 248.431 333.103Z" fill="#32DEF6"/>
<path d="M262.719 628.574L272.151 601.754H277.407L286.839 628.574H282.303L280.251 622.562H269.343L267.255 628.574H262.719ZM270.567 618.782H278.955L274.203 604.742H275.391L270.567 618.782ZM291.065 635.774V609.098H294.953V613.13L294.485 612.194C295.205 611.09 296.165 610.226 297.365 609.602C298.565 608.978 299.933 608.666 301.469 608.666C303.317 608.666 304.973 609.11 306.437 609.998C307.925 610.886 309.089 612.098 309.929 613.634C310.793 615.17 311.225 616.898 311.225 618.818C311.225 620.738 310.793 622.466 309.929 624.002C309.089 625.538 307.937 626.762 306.473 627.674C305.009 628.562 303.341 629.006 301.469 629.006C299.957 629.006 298.577 628.694 297.329 628.07C296.105 627.446 295.157 626.546 294.485 625.37L295.133 624.614V635.774H291.065ZM301.073 625.226C302.225 625.226 303.245 624.95 304.133 624.398C305.021 623.846 305.717 623.09 306.221 622.13C306.749 621.146 307.013 620.042 307.013 618.818C307.013 617.594 306.749 616.502 306.221 615.542C305.717 614.582 305.021 613.826 304.133 613.274C303.245 612.722 302.225 612.446 301.073 612.446C299.945 612.446 298.925 612.722 298.013 613.274C297.125 613.826 296.417 614.582 295.889 615.542C295.385 616.502 295.133 617.594 295.133 618.818C295.133 620.042 295.385 621.146 295.889 622.13C296.417 623.09 297.125 623.846 298.013 624.398C298.925 624.95 299.945 625.226 301.073 625.226ZM316.622 635.774V609.098H320.51V613.13L320.042 612.194C320.762 611.09 321.722 610.226 322.922 609.602C324.122 608.978 325.49 608.666 327.026 608.666C328.874 608.666 330.53 609.11 331.994 609.998C333.482 610.886 334.646 612.098 335.486 613.634C336.35 615.17 336.782 616.898 336.782 618.818C336.782 620.738 336.35 622.466 335.486 624.002C334.646 625.538 333.494 626.762 332.03 627.674C330.566 628.562 328.898 629.006 327.026 629.006C325.514 629.006 324.134 628.694 322.886 628.07C321.662 627.446 320.714 626.546 320.042 625.37L320.69 624.614V635.774H316.622ZM326.63 625.226C327.782 625.226 328.802 624.95 329.69 624.398C330.578 623.846 331.274 623.09 331.778 622.13C332.306 621.146 332.57 620.042 332.57 618.818C332.57 617.594 332.306 616.502 331.778 615.542C331.274 614.582 330.578 613.826 329.69 613.274C328.802 612.722 327.782 612.446 326.63 612.446C325.502 612.446 324.482 612.722 323.57 613.274C322.682 613.826 321.974 614.582 321.446 615.542C320.942 616.502 320.69 617.594 320.69 618.818C320.69 620.042 320.942 621.146 321.446 622.13C321.974 623.09 322.682 623.846 323.57 624.398C324.482 624.95 325.502 625.226 326.63 625.226ZM342.18 628.574V601.322H346.248V628.574H342.18ZM352.444 628.574V609.098H356.512V628.574H352.444ZM352.444 606.434V601.754H356.512V606.434H352.444ZM371.96 629.006C370.016 629.006 368.288 628.562 366.776 627.674C365.288 626.762 364.1 625.538 363.212 624.002C362.348 622.466 361.916 620.726 361.916 618.782C361.916 616.862 362.348 615.134 363.212 613.598C364.076 612.062 365.264 610.862 366.776 609.998C368.288 609.11 370.016 608.666 371.96 608.666C373.28 608.666 374.516 608.906 375.668 609.386C376.82 609.842 377.816 610.478 378.656 611.294C379.52 612.11 380.156 613.058 380.564 614.138L377 615.794C376.592 614.786 375.932 613.982 375.02 613.382C374.132 612.758 373.112 612.446 371.96 612.446C370.856 612.446 369.86 612.722 368.972 613.274C368.108 613.802 367.424 614.558 366.92 615.542C366.416 616.502 366.164 617.594 366.164 618.818C366.164 620.042 366.416 621.146 366.92 622.13C367.424 623.09 368.108 623.846 368.972 624.398C369.86 624.95 370.856 625.226 371.96 625.226C373.136 625.226 374.156 624.926 375.02 624.326C375.908 623.702 376.568 622.874 377 621.842L380.564 623.534C380.18 624.566 379.556 625.502 378.692 626.342C377.852 627.158 376.856 627.806 375.704 628.286C374.552 628.766 373.304 629.006 371.96 629.006ZM391.636 629.006C390.316 629.006 389.152 628.778 388.144 628.322C387.16 627.842 386.392 627.194 385.84 626.378C385.288 625.538 385.012 624.554 385.012 623.426C385.012 622.37 385.24 621.422 385.696 620.582C386.176 619.742 386.908 619.034 387.892 618.458C388.876 617.882 390.112 617.474 391.6 617.234L398.368 616.118V619.322L392.392 620.366C391.312 620.558 390.52 620.906 390.016 621.41C389.512 621.89 389.26 622.514 389.26 623.282C389.26 624.026 389.536 624.638 390.088 625.118C390.664 625.574 391.396 625.802 392.284 625.802C393.388 625.802 394.348 625.562 395.164 625.082C396.004 624.602 396.652 623.966 397.108 623.174C397.564 622.358 397.792 621.458 397.792 620.474V615.47C397.792 614.51 397.432 613.73 396.712 613.13C396.016 612.506 395.08 612.194 393.904 612.194C392.824 612.194 391.876 612.482 391.06 613.058C390.268 613.61 389.68 614.33 389.296 615.218L385.912 613.526C386.272 612.566 386.86 611.726 387.676 611.006C388.492 610.262 389.44 609.686 390.52 609.278C391.624 608.87 392.788 608.666 394.012 608.666C395.548 608.666 396.904 608.954 398.08 609.53C399.28 610.106 400.204 610.91 400.852 611.942C401.524 612.95 401.86 614.126 401.86 615.47V628.574H397.972V625.046L398.8 625.154C398.344 625.946 397.756 626.63 397.036 627.206C396.34 627.782 395.536 628.226 394.624 628.538C393.736 628.85 392.74 629.006 391.636 629.006ZM416.129 628.79C414.089 628.79 412.505 628.214 411.377 627.062C410.249 625.91 409.685 624.29 409.685 622.202V612.77H406.265V609.098H406.805C407.717 609.098 408.425 608.834 408.929 608.306C409.433 607.778 409.685 607.058 409.685 606.146V604.634H413.753V609.098H418.181V612.77H413.753V622.022C413.753 622.694 413.861 623.27 414.077 623.75C414.293 624.206 414.641 624.566 415.121 624.83C415.601 625.07 416.225 625.19 416.993 625.19C417.185 625.19 417.401 625.178 417.641 625.154C417.881 625.13 418.109 625.106 418.325 625.082V628.574C417.989 628.622 417.617 628.67 417.209 628.718C416.801 628.766 416.441 628.79 416.129 628.79ZM423.735 628.574V609.098H427.803V628.574H423.735ZM423.735 606.434V601.754H427.803V606.434H423.735ZM443.395 629.006C441.523 629.006 439.807 628.562 438.247 627.674C436.711 626.786 435.487 625.574 434.575 624.038C433.663 622.502 433.207 620.762 433.207 618.818C433.207 616.85 433.663 615.11 434.575 613.598C435.487 612.062 436.711 610.862 438.247 609.998C439.783 609.11 441.499 608.666 443.395 608.666C445.315 608.666 447.031 609.11 448.543 609.998C450.079 610.862 451.291 612.062 452.179 613.598C453.091 615.11 453.547 616.85 453.547 618.818C453.547 620.786 453.091 622.538 452.179 624.074C451.267 625.61 450.043 626.822 448.507 627.71C446.971 628.574 445.267 629.006 443.395 629.006ZM443.395 625.226C444.547 625.226 445.567 624.95 446.455 624.398C447.343 623.846 448.039 623.09 448.543 622.13C449.071 621.146 449.335 620.042 449.335 618.818C449.335 617.594 449.071 616.502 448.543 615.542C448.039 614.582 447.343 613.826 446.455 613.274C445.567 612.722 444.547 612.446 443.395 612.446C442.267 612.446 441.247 612.722 440.335 613.274C439.447 613.826 438.739 614.582 438.211 615.542C437.707 616.502 437.455 617.594 437.455 618.818C437.455 620.042 437.707 621.146 438.211 622.13C438.739 623.09 439.447 623.846 440.335 624.398C441.247 624.95 442.267 625.226 443.395 625.226ZM458.959 628.574V609.098H462.847V612.914L462.379 612.41C462.859 611.186 463.627 610.262 464.683 609.638C465.739 608.99 466.963 608.666 468.355 608.666C469.795 608.666 471.067 608.978 472.171 609.602C473.275 610.226 474.139 611.09 474.763 612.194C475.387 613.298 475.699 614.57 475.699 616.01V628.574H471.667V617.09C471.667 616.106 471.487 615.278 471.127 614.606C470.767 613.91 470.251 613.382 469.579 613.022C468.931 612.638 468.187 612.446 467.347 612.446C466.507 612.446 465.751 612.638 465.079 613.022C464.431 613.382 463.927 613.91 463.567 614.606C463.207 615.302 463.027 616.13 463.027 617.09V628.574H458.959Z" fill="#32DEF6"/>
<path d="M370 1.71289C166.207 1.71289 1 166.92 1 370.713C1 437.924 18.9692 500.938 50.3656 555.213M370 1.71289C573.793 1.71289 739 166.92 739 370.713C739 437.924 721.031 500.938 689.634 555.213M370 1.71289V370.713M370 370.713L50.3656 555.213M370 370.713L689.634 555.213M50.3656 555.213C114.167 665.507 233.418 739.713 370 739.713C506.582 739.713 625.833 665.507 689.634 555.213" stroke="white" stroke-width="2"/>
<path d="M515.194 210.564C515.186 210.814 515.182 211.064 515.182 211.315C515.182 224.177 525.596 234.821 538.179 234.821C550.762 234.821 561.176 224.177 561.176 211.315C561.176 210.338 561.116 209.373 560.999 208.425M515.194 210.564C515.589 198.042 525.841 187.809 538.179 187.809C549.806 187.809 559.581 196.897 560.999 208.425M515.194 210.564C524.351 214.869 536.009 211.315 541.216 205.993C545.555 208.654 556.91 210.29 560.999 208.425M500.863 280.059V264.093C500.863 249.924 511.689 242.544 522.124 242.544H553.366C568.365 242.544 575.495 254.844 575.495 264.093V280.059M578.442 223.536C578.436 223.739 578.433 223.943 578.433 224.147C578.433 234.608 586.798 243.266 596.906 243.266C607.014 243.266 615.379 234.608 615.379 224.147C615.379 223.352 615.33 222.568 615.237 221.797M578.442 223.536C578.76 213.352 586.995 205.029 596.906 205.029C606.245 205.029 614.097 212.421 615.237 221.797M578.442 223.536C585.798 227.038 595.163 224.147 599.345 219.819C602.831 221.983 611.952 223.313 615.237 221.797M566.931 280.059V267.073C566.931 255.549 575.627 249.547 584.009 249.547H609.105C621.154 249.547 626.881 259.551 626.881 267.073V280.059M460.988 223.536C460.982 223.739 460.979 223.943 460.979 224.147C460.979 234.608 469.344 243.266 479.452 243.266C489.56 243.266 497.925 234.608 497.925 224.147C497.925 223.352 497.877 222.568 497.783 221.797M460.988 223.536C461.306 213.352 469.542 205.029 479.452 205.029C488.792 205.029 496.644 212.421 497.783 221.797M460.988 223.536C468.344 227.038 477.709 224.147 481.892 219.819C485.377 221.983 494.498 223.313 497.783 221.797M449.477 280.059V267.073C449.477 255.549 458.174 249.547 466.556 249.547H491.651C503.7 249.547 509.427 259.551 509.427 267.073V280.059" stroke="#32DEF6" stroke-width="2" stroke-linecap="round" stroke-linejoin="round"/>
<path d="M129.731 236.489H131.434V231.521H129.731V230.807L129.734 230.807L143.642 228.678L144.351 228.569L144.476 227.863C144.894 225.492 145.446 223.293 146.264 221.248L146.541 220.557L145.958 220.094L134.92 211.32L138.657 204.952C138.658 204.951 138.659 204.95 138.66 204.949L151.787 210.03L152.451 210.287L152.911 209.743C154.438 207.939 156.101 206.277 157.756 204.898L158.307 204.439L158.048 203.769L152.967 190.642C152.968 190.641 152.969 190.64 152.97 190.64L159.338 186.902L168.112 197.94L168.565 198.51L169.246 198.254C171.448 197.428 173.66 196.874 175.892 196.456L176.589 196.325L176.696 195.624L178.825 181.716L178.825 181.713H186.072L186.073 181.716L188.201 195.624L188.309 196.325L189.006 196.456C191.253 196.877 193.592 197.431 195.631 198.246L196.322 198.523L196.785 197.94L205.559 186.902L211.927 190.64C211.928 190.64 211.93 190.641 211.931 190.642L206.849 203.769L206.592 204.433L207.136 204.894C208.967 206.443 210.604 207.949 211.957 209.707L212.413 210.3L213.11 210.03L226.237 204.949C226.238 204.95 226.239 204.951 226.24 204.953L229.978 211.32L218.939 220.094L218.37 220.547L218.625 221.228C219.451 223.43 220.005 225.642 220.424 227.874L220.554 228.571L221.255 228.678L235.164 230.807L235.167 230.807V237.061L235.164 237.061L221.255 239.19L220.546 239.299L220.422 240.005C220.003 242.376 219.451 244.575 218.633 246.62L218.357 247.311L218.939 247.774L229.978 256.548L226.24 262.916C226.239 262.917 226.238 262.918 226.237 262.919L213.11 257.838L212.446 257.581L211.986 258.125C210.459 259.929 208.796 261.591 207.142 262.97L206.59 263.429L206.849 264.099L211.931 277.226C211.93 277.227 211.928 277.228 211.927 277.229L205.559 280.966L196.785 269.928L196.332 269.358L195.651 269.614C193.449 270.44 191.237 270.994 189.006 271.412L188.309 271.543L188.201 272.244L186.073 286.152L186.061 286.228V286.297H178.825L178.825 286.294L176.696 272.386L176.589 271.685L175.892 271.554C173.644 271.133 171.306 270.579 169.266 269.764L168.575 269.487L168.112 270.07L159.338 281.108L152.97 277.371C152.969 277.37 152.968 277.369 152.967 277.368L158.048 264.241L158.305 263.577L157.761 263.116C155.957 261.589 154.295 259.927 152.916 258.272L152.457 257.721L151.787 257.98L138.66 263.061C138.659 263.06 138.658 263.059 138.657 263.058L134.92 256.69L145.958 247.916L146.528 247.463L146.272 246.782C145.446 244.58 144.892 242.368 144.474 240.136L144.343 239.439L143.642 239.332L129.734 237.203L129.731 237.203V236.489ZM134.783 256.794C134.783 256.794 134.783 256.793 134.785 256.792C134.783 256.793 134.783 256.794 134.783 256.794ZM230.115 211.216C230.115 211.216 230.114 211.217 230.113 211.218C230.114 211.217 230.114 211.217 230.115 211.216ZM186.21 181.713C186.21 181.713 186.209 181.713 186.209 181.713H186.21ZM159.234 186.765C159.234 186.765 159.235 186.765 159.236 186.767C159.235 186.766 159.234 186.765 159.234 186.765ZM129.731 230.67C129.731 230.67 129.731 230.67 129.731 230.67V230.67Z" stroke="#32DEF6" stroke-width="2"/>
<path d="M182.662 260.609C168.327 260.609 156.696 248.978 156.696 234.644C156.696 220.309 168.327 208.678 182.662 208.678C196.996 208.678 208.627 220.309 208.627 234.644C208.627 248.975 196.859 260.609 182.662 260.609Z" stroke="#32DEF6" stroke-width="2"/>
<path d="M182.662 250.674C173.811 250.674 166.631 243.494 166.631 234.644C166.631 225.793 173.811 218.613 182.662 218.613C191.512 218.613 198.692 225.793 198.692 234.644C198.692 243.49 191.426 250.674 182.662 250.674Z" stroke="#32DEF6" stroke-width="2"/>
<path d="M308.973 505.001H431.027M364.323 495.066H431.027" stroke="#32DEF6" stroke-width="2" stroke-linecap="round" stroke-linejoin="round"/>
<path d="M432.333 579.221H307.667L307.667 484.713L432.333 484.713L432.333 579.221Z" stroke="#32DEF6" stroke-width="2" stroke-linejoin="round"/>
<path d="M353.076 555.094H345.579C345.538 555.094 345.514 555.089 345.502 555.086C345.501 555.085 345.5 555.083 345.499 555.081C345.494 555.071 345.488 555.056 345.481 555.033C345.467 554.987 345.454 554.916 345.454 554.818V537.501C345.454 537.398 345.492 537.319 345.539 537.268C345.566 537.239 345.587 537.228 345.595 537.225H353.076C353.203 537.225 353.277 537.268 353.316 537.306C353.354 537.343 353.388 537.402 353.388 537.501V554.681C353.323 554.891 353.255 555.001 353.209 555.05C353.189 555.072 353.177 555.078 353.171 555.081C353.166 555.083 353.139 555.094 353.076 555.094Z" stroke="#32DEF6" stroke-width="2"/>
<path d="M367.679 554.882H360.136C360.134 554.879 360.131 554.875 360.128 554.87C360.076 554.787 360 554.578 360 554.212V531.552C360 531.267 360.085 531.055 360.168 530.939C360.187 530.913 360.203 530.894 360.215 530.882H367.679C367.715 530.882 367.769 530.891 367.838 530.979C367.915 531.076 368 531.266 368 531.552V554.11C367.92 554.478 367.822 554.706 367.737 554.825C367.714 554.858 367.697 554.874 367.689 554.882C367.686 554.882 367.683 554.882 367.679 554.882ZM360.242 530.859C360.242 530.859 360.24 530.861 360.235 530.864C360.24 530.86 360.242 530.859 360.242 530.859Z" stroke="#32DEF6" stroke-width="2"/>
<path d="M382.701 554.806C382.678 554.844 382.659 554.868 382.646 554.882H375.179C375.173 554.874 375.167 554.863 375.16 554.851C375.082 554.709 375 554.414 375 553.955V527.808C375 527.421 375.101 527.125 375.205 526.957C375.225 526.924 375.243 526.9 375.257 526.882H382.679L382.681 526.882L382.681 526.882C382.681 526.882 382.681 526.882 382.681 526.882L382.684 526.883C382.686 526.884 382.689 526.885 382.693 526.888C382.71 526.898 382.749 526.927 382.798 526.998C382.898 527.144 383 527.419 383 527.808V553.867C382.915 554.328 382.807 554.635 382.701 554.806ZM375.298 526.841C375.298 526.842 375.294 526.845 375.287 526.85C375.294 526.843 375.298 526.84 375.298 526.841Z" stroke="#32DEF6" stroke-width="2"/>
<path d="M397.658 554.756C397.627 554.816 397.603 554.856 397.585 554.882H390.239C390.227 554.861 390.213 554.834 390.197 554.797C390.088 554.551 390 554.114 390 553.506V521.258C390 520.707 390.117 520.271 390.248 520.008C390.275 519.953 390.301 519.912 390.321 519.882H397.63C397.654 519.903 397.695 519.95 397.749 520.047C397.882 520.287 398 520.704 398 521.258V553.435C397.911 554.047 397.791 554.489 397.658 554.756ZM390.274 554.932C390.274 554.932 390.271 554.93 390.265 554.922C390.271 554.927 390.274 554.931 390.274 554.932ZM397.608 519.867C397.608 519.866 397.612 519.867 397.619 519.873C397.611 519.87 397.607 519.867 397.608 519.867ZM397.561 554.913C397.553 554.922 397.549 554.925 397.549 554.924C397.549 554.923 397.553 554.918 397.561 554.913Z" stroke="#32DEF6" stroke-width="2"/>
<path d="M343 559.882L400 559.882" stroke="#32DEF6" stroke-width="2" stroke-linecap="round"/>
<path d="M320.143 499.443C318.043 499.443 316.246 497.646 316.246 495.546C316.246 493.446 318.043 491.649 320.143 491.649C322.243 491.649 324.04 493.446 324.04 495.546C324.04 497.646 322.243 499.443 320.143 499.443Z" stroke="#32DEF6" stroke-width="2"/>
<path d="M335.445 499.443C333.345 499.443 331.549 497.646 331.549 495.546C331.549 493.446 333.345 491.649 335.445 491.649C337.546 491.649 339.342 493.446 339.342 495.546C339.342 497.646 337.546 499.443 335.445 499.443Z" stroke="#32DEF6" stroke-width="2"/>
</svg>
