<svg width="180" height="141" viewBox="0 0 180 141" fill="none" xmlns="http://www.w3.org/2000/svg">
<path d="M89.8229 132.551C63.4378 132.551 42 111.113 42 84.7284C42 58.3434 63.4378 36.9055 89.8229 36.9055C116.208 36.9055 137.646 58.3434 137.646 84.7284C137.508 111.113 116.07 132.551 89.8229 132.551ZM89.8229 38.692C64.3998 38.692 43.7865 59.3053 43.7865 84.7284C43.7865 110.152 64.3998 130.765 89.8229 130.765C115.246 130.765 135.859 110.152 135.859 84.7284C135.722 59.3053 115.109 38.692 89.8229 38.692Z" fill="#32DEF6"/>
<path d="M89.8228 128.291C65.7739 128.291 46.26 108.777 46.26 84.7281C46.26 60.6792 65.7739 41.1653 89.8228 41.1653C113.872 41.1653 133.386 60.6792 133.386 84.7281C133.386 108.777 113.872 128.291 89.8228 128.291ZM89.8228 42.8144C66.7359 42.8144 48.0465 61.5038 48.0465 84.5907C48.0465 107.678 66.7359 126.367 89.8228 126.367C112.91 126.367 131.599 107.678 131.599 84.5907C131.599 61.6412 112.772 42.8144 89.8228 42.8144Z" fill="#32DEF6"/>
<path d="M89.4107 53.2586C88.861 53.2586 88.4487 52.8463 88.4487 52.2966V43.9138C88.4487 43.3641 88.861 42.9519 89.4107 42.9519C89.9604 42.9519 90.3727 43.3641 90.3727 43.9138V52.2966C90.3727 52.8463 89.9604 53.2586 89.4107 53.2586Z" fill="#32DEF6"/>
<path d="M105.626 57.3813C105.489 57.3813 105.352 57.3813 105.214 57.2439C104.802 56.9691 104.664 56.4194 104.939 56.0071L109.199 48.7237C109.474 48.3115 110.024 48.1741 110.436 48.4489C110.848 48.7237 110.986 49.2734 110.711 49.6857L106.451 56.969C106.314 57.2439 105.901 57.3813 105.626 57.3813Z" fill="#32DEF6"/>
<path d="M117.582 69.1996C117.307 69.1996 117.032 69.0622 116.757 68.7873C116.483 68.3751 116.62 67.8254 117.032 67.5505L124.316 63.2904C124.728 63.0156 125.278 63.153 125.552 63.5653C125.827 63.9776 125.69 64.5273 125.278 64.8021L117.994 69.0622C117.994 69.0622 117.719 69.1996 117.582 69.1996Z" fill="#32DEF6"/>
<path d="M130.5 85.2777H122.117C121.567 85.2777 121.155 84.8654 121.155 84.3157C121.155 83.766 121.567 83.3538 122.117 83.3538H130.5C131.05 83.3538 131.462 83.766 131.462 84.3157C131.462 84.8654 131.05 85.2777 130.5 85.2777Z" fill="#32DEF6"/>
<path d="M125.278 105.754C125.14 105.754 125.003 105.754 124.865 105.616L117.582 101.356C117.17 101.081 117.032 100.532 117.307 100.119C117.582 99.7072 118.132 99.5698 118.544 99.8447L125.827 104.105C126.24 104.38 126.377 104.929 126.102 105.342C125.827 105.479 125.553 105.754 125.278 105.754Z" fill="#32DEF6"/>
<path d="M110.436 120.733C110.161 120.733 109.887 120.595 109.612 120.32L105.352 113.037C105.077 112.625 105.214 112.075 105.626 111.8C106.039 111.525 106.588 111.663 106.863 112.075L111.123 119.358C111.398 119.771 111.261 120.32 110.849 120.595C110.711 120.733 110.574 120.733 110.436 120.733Z" fill="#32DEF6"/>
<path d="M90.0977 126.367C89.548 126.367 89.1357 125.955 89.1357 125.405V117.022C89.1357 116.473 89.548 116.06 90.0977 116.06C90.6474 116.06 91.0597 116.473 91.0597 117.022V125.405C90.9223 125.955 90.6474 126.367 90.0977 126.367Z" fill="#32DEF6"/>
<path d="M69.6219 121.008C69.4844 121.008 69.347 121.008 69.2095 120.87C68.7973 120.596 68.6599 120.046 68.9348 119.634L73.1948 112.35C73.4697 111.938 74.0194 111.801 74.4316 112.075C74.8439 112.35 74.9813 112.9 74.7064 113.312L70.4464 120.596C70.3089 120.87 70.0341 121.008 69.6219 121.008Z" fill="#32DEF6"/>
<path d="M54.6428 106.304C54.368 106.304 54.0931 106.166 53.8183 105.891C53.5434 105.479 53.6809 104.929 54.0931 104.655L61.3765 100.394C61.7888 100.12 62.3384 100.257 62.6133 100.669C62.8881 101.082 62.7507 101.631 62.3385 101.906L55.0551 106.166C54.9176 106.166 54.7802 106.304 54.6428 106.304Z" fill="#32DEF6"/>
<path d="M57.3912 85.9649H49.0084C48.4587 85.9649 48.0465 85.5526 48.0465 85.0029C48.0465 84.4533 48.4587 84.041 49.0084 84.041H57.3912C57.9409 84.041 58.3532 84.4533 58.3532 85.0029C58.3532 85.5526 57.9409 85.9649 57.3912 85.9649Z" fill="#32DEF6"/>
<path d="M61.5139 69.7492C61.3764 69.7492 61.239 69.7492 61.1016 69.6118L53.8182 65.3517C53.4059 65.0768 53.2685 64.5271 53.5434 64.1149C53.8182 63.7026 54.3679 63.5652 54.7802 63.84L62.0635 68.1001C62.4758 68.3749 62.6132 68.9246 62.3384 69.3369C62.201 69.4743 61.9261 69.7492 61.5139 69.7492Z" fill="#32DEF6"/>
<path d="M73.3322 57.7937C73.0573 57.7937 72.7825 57.6563 72.5077 57.3814L68.2476 50.098C67.9728 49.6858 68.1101 49.1361 68.5224 48.8612C68.9347 48.5864 69.4844 48.7238 69.7592 49.1361L74.0193 56.4195C74.2941 56.8317 74.1568 57.3814 73.7445 57.6562C73.6071 57.6562 73.4696 57.7937 73.3322 57.7937Z" fill="#32DEF6"/>
<path d="M92.4339 38.6918H87.0744C86.5247 38.6918 86.1125 38.2795 86.1125 37.7298V27.6981C86.1125 27.1484 86.5247 26.7361 87.0744 26.7361H92.4339C92.9836 26.7361 93.3959 27.1484 93.3959 27.6981V37.7298C93.2585 38.2795 92.9836 38.6918 92.4339 38.6918ZM88.0364 36.9053H91.6094V28.66H88.0364V36.9053Z" fill="#32DEF6"/>
<path d="M97.1063 28.6601H82.5395C81.9898 28.6601 81.5775 28.2478 81.5775 27.6981V24.6748C81.5775 24.1251 81.9898 23.7129 82.5395 23.7129H97.1063C97.656 23.7129 98.0682 24.1251 98.0682 24.6748V27.6981C97.9307 28.2478 97.5185 28.6601 97.1063 28.6601ZM83.3641 26.8736H96.1443V25.6368H83.3641V26.8736Z" fill="#32DEF6"/>
<path d="M107.688 85.5528H89.8229C89.5481 85.5528 89.2732 85.4153 89.1358 85.1405L74.9814 65.3517C74.7065 64.9394 74.844 64.3898 75.2562 64.1149C75.6685 63.8401 76.2182 63.9775 76.4931 64.3897L90.3727 83.7663H107.825C108.375 83.7663 108.787 84.1785 108.787 84.7282C108.512 85.1405 108.237 85.5528 107.688 85.5528Z" fill="#32DEF6"/>
<path d="M117.17 47.3494C116.895 47.3494 116.758 47.3494 116.62 47.212C114.834 45.9752 112.91 44.7384 110.986 43.7764C110.711 43.639 110.436 43.3642 110.436 42.9519V38.1421C110.436 37.5925 110.848 37.1802 111.398 37.1802H117.307C117.857 37.1802 118.269 37.5925 118.269 38.1421V46.5249C117.994 47.0745 117.582 47.3494 117.17 47.3494ZM112.085 42.4022C113.459 43.0893 114.834 43.9139 116.208 44.8758V38.9666H112.085V42.4022Z" fill="#32DEF6"/>
</svg>
