<svg width="180" height="141" viewBox="0 0 180 141" fill="none" xmlns="http://www.w3.org/2000/svg">
<path d="M90.423 25.8935C87.0878 25.8935 84.3326 23.1384 84.3326 19.8032C84.3326 16.468 87.0878 13.7129 90.423 13.7129C93.7581 13.7129 96.5133 16.468 96.5133 19.8032C96.5133 23.1384 93.7581 25.8935 90.423 25.8935ZM90.423 15.598C88.1029 15.598 86.2178 17.4831 86.2178 19.8032C86.2178 22.1233 88.1029 24.0084 90.423 24.0084C92.7431 24.0084 94.6282 22.1233 94.6282 19.8032C94.6282 17.4831 92.7431 15.598 90.423 15.598Z" fill="#32DEF6"/>
<path d="M90.423 44.0194C89.8429 44.0194 89.4079 43.5844 89.4079 43.0043V19.8032C89.4079 19.2231 89.8429 18.7881 90.423 18.7881C91.003 18.7881 91.438 19.2231 91.438 19.8032V43.1494C91.293 43.5844 90.858 44.0194 90.423 44.0194Z" fill="#32DEF6"/>
<path d="M126.675 40.8291C125.08 40.8291 123.485 40.249 122.325 39.0889C120.004 36.7688 120.004 32.8536 122.325 30.5335C123.485 29.3735 125.08 28.7935 126.675 28.7935C128.27 28.7935 129.865 29.3735 131.025 30.5335C132.185 31.6936 132.765 33.2887 132.765 34.8837C132.765 36.4788 132.185 38.0739 131.025 39.234C129.72 40.249 128.27 40.8291 126.675 40.8291ZM126.675 30.5335C125.515 30.5335 124.5 30.9685 123.63 31.8386C122.035 33.4337 122.035 36.1888 123.63 37.7839C125.225 39.379 127.98 39.379 129.575 37.7839C130.3 37.0589 130.88 35.8988 130.88 34.8837C130.88 33.7237 130.445 32.7086 129.575 31.8386C128.85 30.9685 127.69 30.5335 126.675 30.5335Z" fill="#32DEF6"/>
<path d="M105.069 58.23C104.779 58.23 104.634 58.085 104.489 57.94C104.344 57.795 104.199 57.505 104.199 57.2149C104.199 56.9249 104.344 56.7799 104.489 56.6349L126.095 34.0138C126.385 33.5787 127.11 33.5787 127.4 34.0138C127.545 34.1588 127.69 34.4488 127.69 34.7388C127.69 35.0288 127.545 35.1739 127.4 35.3189L105.794 57.94C105.504 58.23 105.359 58.23 105.069 58.23Z" fill="#32DEF6"/>
<path d="M141.611 77.0812C138.275 77.0812 135.52 74.3261 135.52 70.9909C135.52 67.6557 138.275 64.9006 141.611 64.9006C144.946 64.9006 147.701 67.6557 147.701 70.9909C147.701 74.3261 144.946 77.0812 141.611 77.0812ZM141.611 66.7857C139.29 66.7857 137.405 68.6708 137.405 70.9909C137.405 73.311 139.29 75.1962 141.611 75.1962C143.931 75.1962 145.816 73.311 145.816 70.9909C145.816 68.6708 143.931 66.7857 141.611 66.7857Z" fill="#32DEF6"/>
<path d="M141.61 72.0059H124.79C124.21 72.0059 123.775 71.5709 123.775 70.9909C123.775 70.4108 124.21 69.9758 124.79 69.9758H141.61C142.191 69.9758 142.626 70.4108 142.626 70.9909C142.626 71.5709 142.191 72.0059 141.61 72.0059Z" fill="#32DEF6"/>
<path d="M126.675 113.333C125.08 113.333 123.485 112.753 122.325 111.593C120.004 109.272 120.004 105.357 122.325 103.037C123.485 101.877 125.08 101.297 126.675 101.297C128.27 101.297 129.865 101.877 131.025 103.037C132.185 104.197 132.765 105.792 132.765 107.387C132.765 108.982 132.185 110.578 131.025 111.738C129.72 112.753 128.27 113.333 126.675 113.333ZM126.675 103.037C125.515 103.037 124.5 103.472 123.63 104.197C122.035 105.792 122.035 108.547 123.63 110.143C125.225 111.738 127.98 111.738 129.575 110.143C130.445 109.272 130.88 108.257 130.88 107.097C130.88 105.937 130.445 104.922 129.575 104.052C128.85 103.472 127.69 103.037 126.675 103.037Z" fill="#32DEF6"/>
<path d="M126.675 108.258C126.385 108.258 126.24 108.113 125.95 107.968L106.664 88.6819C106.519 88.5369 106.374 88.2468 106.374 87.9568C106.374 87.6668 106.519 87.5218 106.664 87.2318C107.099 86.7968 107.679 86.7968 107.969 87.2318L127.255 106.518C127.4 106.663 127.545 106.953 127.545 107.243C127.545 107.533 127.4 107.678 127.255 107.968C127.11 108.113 126.82 108.258 126.675 108.258Z" fill="#32DEF6"/>
<path d="M90.423 128.414C88.8279 128.414 87.2328 127.834 86.0727 126.673C84.9127 125.513 84.3326 124.063 84.3326 122.323C84.3326 118.988 87.0878 116.233 90.423 116.233C93.7581 116.233 96.5133 118.988 96.5133 122.323C96.5133 125.658 93.7581 128.414 90.423 128.414ZM90.423 118.118C88.1029 118.118 86.2178 120.003 86.2178 122.323C86.2178 123.483 86.6528 124.498 87.3778 125.368C88.1028 126.093 89.2629 126.673 90.423 126.673C92.7431 126.673 94.6282 124.788 94.6282 122.468C94.6282 120.003 92.7431 118.118 90.423 118.118Z" fill="#32DEF6"/>
<path d="M90.423 123.193C89.8429 123.193 89.4079 122.759 89.4079 122.178V87.9567C89.4079 87.3767 89.8429 86.9417 90.423 86.9417C91.003 86.9417 91.438 87.3767 91.438 87.9567V122.323C91.293 122.759 90.858 123.193 90.423 123.193Z" fill="#32DEF6"/>
<path d="M54.1711 113.333C52.5761 113.333 50.981 112.753 49.8209 111.593C48.6609 110.433 48.0808 108.838 48.0808 107.243C48.0808 105.648 48.6609 104.052 49.8209 102.892C50.981 101.732 52.4311 101.152 54.1711 101.152C55.7662 101.152 57.3613 101.732 58.5214 102.892C60.8415 105.213 60.8415 109.128 58.5214 111.448C57.2163 112.753 55.7662 113.333 54.1711 113.333ZM54.1711 103.037C53.0111 103.037 51.996 103.472 51.126 104.342C50.4009 105.068 49.9659 106.228 49.8209 107.243C49.8209 108.403 50.2559 109.418 51.126 110.288C52.7211 111.883 55.4762 111.883 57.0713 110.288C58.6664 108.693 58.6664 105.938 57.0713 104.342C56.3462 103.472 55.1862 103.037 54.1711 103.037Z" fill="#32DEF6"/>
<path d="M54.1711 108.258C53.8811 108.258 53.7361 108.113 53.4461 107.968C53.3011 107.823 53.1561 107.533 53.1561 107.243C53.1561 106.953 53.3011 106.808 53.4461 106.518L72.7321 87.2318C73.1671 86.7968 73.7471 86.7968 74.0371 87.2318C74.1821 87.3768 74.3272 87.6668 74.3272 87.9568C74.3272 88.2468 74.1821 88.3918 74.0371 88.6819L54.7512 107.968C54.6061 108.113 54.3161 108.258 54.1711 108.258Z" fill="#32DEF6"/>
<path d="M39.0903 77.0812C35.7552 77.0812 33 74.3261 33 70.9909C33 67.6557 35.7552 64.9006 39.0903 64.9006C42.4255 64.9006 45.1806 67.6557 45.1806 70.9909C45.1806 74.3261 42.4255 77.0812 39.0903 77.0812ZM39.0903 66.7857C36.7702 66.7857 34.8851 68.6708 34.8851 70.9909C34.8851 73.311 36.7702 75.1962 39.0903 75.1962C41.4104 75.1962 43.2955 73.311 43.2955 70.9909C43.2955 68.6708 41.4104 66.7857 39.0903 66.7857Z" fill="#32DEF6"/>
<path d="M59.9714 72.0059H39.0903C38.5103 72.0059 38.0753 71.5709 38.0753 70.9909C38.0753 70.4108 38.5103 69.9758 39.0903 69.9758H59.9714C60.5514 69.9758 60.9864 70.4108 60.9864 70.9909C60.9864 71.5709 60.5514 72.0059 59.9714 72.0059Z" fill="#32DEF6"/>
<path d="M54.1711 40.8293C52.5761 40.8293 50.981 40.2492 49.8209 39.0892C48.6609 37.9291 48.0808 36.4791 48.0808 34.739C48.0808 33.1439 48.6609 31.5488 49.8209 30.3887C50.981 29.2287 52.4311 28.6487 54.1711 28.6487C55.7662 28.6487 57.3613 29.2287 58.5214 30.3887C59.6814 31.5488 60.2614 33.1439 60.2614 34.739C60.2614 36.334 59.6814 37.9291 58.5214 39.0892C57.2163 40.2492 55.7662 40.8293 54.1711 40.8293ZM54.1711 30.5338C53.0111 30.5338 51.996 30.9688 51.126 31.8388C50.2559 32.5639 49.8209 33.7239 49.8209 34.884C49.8209 36.044 50.2559 37.0591 50.981 37.7841C52.576 39.3792 55.3312 39.3792 56.9263 37.7841C57.6513 37.0591 58.0863 35.899 58.0863 34.884C58.0863 33.8689 57.6513 32.7089 56.9263 31.8388C56.3462 30.9688 55.1862 30.5338 54.1711 30.5338Z" fill="#32DEF6"/>
<path d="M73.1671 54.75C72.877 54.75 72.732 54.605 72.442 54.46L53.301 35.3191C53.156 35.1741 53.011 34.884 53.011 34.594C53.011 34.304 53.156 34.159 53.301 33.869C53.736 33.434 54.3161 33.434 54.6061 33.869L73.7471 53.0099C73.8921 53.1549 74.0371 53.445 74.0371 53.735C74.0371 54.025 73.8921 54.17 73.7471 54.46C73.6021 54.75 73.4571 54.75 73.1671 54.75Z" fill="#32DEF6"/>
<path d="M69.3968 89.1168C62.8715 89.1168 57.6512 84.0415 57.3612 77.5162C57.2161 72.4409 60.1163 67.9457 64.7565 65.9156C66.0616 62.4354 68.6717 59.5353 71.8619 57.6502C71.7169 53.59 73.167 49.8198 75.9221 46.7747C78.6773 43.7295 82.5925 41.9894 86.6527 41.6994C94.9181 41.4094 101.878 47.4997 102.748 55.4751C107.534 56.2001 111.594 59.9703 112.609 64.7556C113.334 64.6106 113.914 64.4655 114.639 64.4655C114.784 64.4655 114.929 64.4655 115.219 64.4655C121.744 64.4655 126.965 69.5408 127.255 76.0661C127.545 82.7365 122.324 88.3918 115.799 88.6818C111.884 88.8268 107.679 88.9718 102.458 88.9718C99.1233 88.9718 95.9331 88.9718 92.598 88.9718C89.4078 88.9718 86.0726 88.9718 82.8825 88.9718C77.8072 88.9718 73.602 89.1168 69.8318 89.2618C69.6868 89.1168 69.5418 89.1168 69.3968 89.1168ZM87.3777 43.7295C87.2327 43.7295 86.9427 43.7295 86.7977 43.7295C83.1725 43.8745 79.8373 45.4696 77.3722 48.0797C74.9071 50.8349 73.602 54.315 73.747 57.9402V58.2302C73.747 58.6652 73.602 58.9553 73.167 59.1003C69.9768 60.6954 67.3667 63.5955 66.2066 66.9307C66.0616 67.2207 65.9166 67.3657 65.6266 67.5107C61.5664 69.1058 58.9563 73.021 59.1013 77.3712C59.3913 83.0265 64.0315 87.3767 69.6868 87.0867C73.602 86.9417 77.8072 86.7967 82.8825 86.7967C86.0726 86.7967 89.4078 86.7967 92.743 86.7967C96.0782 86.7967 99.2683 86.7967 102.603 86.7967C107.679 86.7967 111.884 86.6517 115.799 86.5067C121.454 86.2167 125.805 81.5764 125.515 75.9211C125.225 70.2659 120.584 66.0606 114.929 66.2056C114.059 66.2056 113.044 66.3506 112.319 66.6406C112.029 66.7856 111.739 66.6407 111.594 66.4957C111.304 66.3507 111.159 66.0606 111.159 65.7706C110.579 61.1304 106.664 57.3602 102.023 57.0702C101.588 57.0702 101.153 56.6352 101.153 56.2001C100.573 49.3848 94.6281 43.7295 87.3777 43.7295Z" fill="#32DEF6"/>
<path d="M107.679 70.9909C107.099 70.9909 106.664 70.5559 106.664 69.9759C106.664 69.3959 107.099 68.9608 107.679 68.9608C109.564 68.9608 111.014 67.6557 111.014 65.9157C111.014 65.3356 111.449 64.9006 112.029 64.9006C112.609 64.9006 113.044 65.3356 113.044 65.9157C112.899 68.8158 110.579 70.9909 107.679 70.9909Z" fill="#32DEF6"/>
</svg>
