<svg width="180" height="141" viewBox="0 0 180 141" fill="none" xmlns="http://www.w3.org/2000/svg">
<path d="M89.6941 114.008C65.5078 114.008 45.8564 94.3561 45.8564 70.1699C45.8564 45.9836 65.5078 26.3323 89.6941 26.3323C113.88 26.3323 133.532 45.9836 133.532 70.1699C133.532 94.3561 113.88 114.008 89.6941 114.008ZM89.6941 28.2561C66.6072 28.2561 47.6429 47.083 47.6429 70.3073C47.6429 93.3942 66.4697 112.358 89.6941 112.358C112.781 112.358 131.745 93.5317 131.745 70.3073C131.745 47.083 112.918 28.2561 89.6941 28.2561Z" fill="#32DEF6"/>
<path d="M89.694 100.678C72.9285 100.678 59.3237 87.0728 59.3237 70.3073C59.3237 53.5418 72.9285 39.937 89.694 39.937C106.46 39.937 120.064 53.5418 120.064 70.3073C120.064 87.0728 106.46 100.678 89.694 100.678ZM89.694 41.5861C73.8905 41.5861 61.1102 54.3663 61.1102 70.1699C61.1102 85.9734 73.8905 98.7536 89.694 98.7536C105.498 98.7536 118.278 85.9734 118.278 70.1699C118.278 54.5038 105.498 41.5861 89.694 41.5861Z" fill="#32DEF6"/>
<path d="M89.694 82.4006C82.9604 82.4006 77.4634 76.9036 77.4634 70.17C77.4634 63.4363 82.9604 57.9395 89.694 57.9395C96.4277 57.9395 101.925 63.4363 101.925 70.17C101.925 77.0411 96.4277 82.4006 89.694 82.4006ZM89.694 59.8633C83.9223 59.8633 79.25 64.5357 79.25 70.3074C79.25 76.0792 83.9223 80.7515 89.694 80.7515C95.4658 80.7515 100.138 76.0792 100.138 70.3074C100.138 64.5357 95.4658 59.8633 89.694 59.8633Z" fill="#32DEF6"/>
<path d="M89.694 41.5862C89.1443 41.5862 88.732 41.174 88.732 40.6243V17.6748C88.732 17.1251 89.1443 16.7129 89.694 16.7129C90.2437 16.7129 90.6559 17.1251 90.6559 17.6748V40.6243C90.6559 41.174 90.2437 41.5862 89.694 41.5862Z" fill="#32DEF6"/>
<path d="M143.014 71.132H119.24C118.69 71.132 118.278 70.7197 118.278 70.17C118.278 69.6203 118.69 69.208 119.24 69.208H143.014C143.563 69.208 143.976 69.6203 143.976 70.17C143.838 70.7197 143.426 71.132 143.014 71.132Z" fill="#32DEF6"/>
<path d="M89.694 124.864C89.1443 124.864 88.732 124.452 88.732 123.902V99.5784C88.732 99.0287 89.1443 98.6165 89.694 98.6165C90.2437 98.6165 90.6559 99.0287 90.6559 99.5784V123.902C90.6559 124.452 90.2437 124.864 89.694 124.864Z" fill="#32DEF6"/>
<path d="M60.1483 71.132H35.962C35.4123 71.132 35 70.7197 35 70.17C35 69.6203 35.4123 69.208 35.962 69.208H60.1483C60.698 69.208 61.1102 69.6203 61.1102 70.17C61.1102 70.7197 60.698 71.132 60.1483 71.132Z" fill="#32DEF6"/>
<path d="M89.694 75.5293C86.8081 75.5293 84.4719 73.1932 84.4719 70.3073C84.4719 67.4214 86.8081 65.0852 89.694 65.0852C92.5799 65.0852 94.916 67.4214 94.916 70.3073C94.916 73.1932 92.5799 75.5293 89.694 75.5293ZM89.694 66.8718C87.7701 66.8718 86.2584 68.3834 86.2584 70.3073C86.2584 72.2312 87.7701 73.7429 89.694 73.7429C91.6179 73.7429 93.1295 72.2312 93.1295 70.3073C93.1295 68.3834 91.6179 66.8718 89.694 66.8718Z" fill="#32DEF6"/>
</svg>
