<svg width="180" height="141" viewBox="0 0 180 141" fill="none" xmlns="http://www.w3.org/2000/svg">
<path d="M150.754 45.7129H28.2073C27.4024 45.7129 27 45.2843 27 44.7128C27 44.1414 27.6037 43.7129 28.2073 43.7129H150.754C151.559 43.7129 151.961 44.1414 151.961 44.7128C152.162 45.2843 151.559 45.7129 150.754 45.7129Z" fill="#32DEF6"/>
<path d="M150.804 35.2129H83.2346C82.4373 35.2129 82.0386 34.7843 82.0386 34.2129C82.0386 33.6415 82.6366 33.2129 83.2346 33.2129H150.804C151.601 33.2129 152 33.6415 152 34.2129C152.199 34.9272 151.601 35.2129 150.804 35.2129Z" fill="#32DEF6"/>
<path d="M152 117.713H28L28 23.7129L152 23.713V117.713Z" stroke="#32DEF6" stroke-width="2" stroke-linejoin="round"/>
<path d="M40.4052 38.3553C38.319 38.3553 36.5341 36.5705 36.5341 34.4844C36.5341 32.3982 38.319 30.6133 40.4052 30.6133C42.4913 30.6133 44.2762 32.3982 44.2762 34.4844C44.2762 36.5705 42.4914 38.3553 40.4052 38.3553Z" stroke="#32DEF6" stroke-width="2"/>
<path d="M55.6271 38.3553C53.5409 38.3553 51.7561 36.5705 51.7561 34.4844C51.7561 32.3982 53.541 30.6133 55.6271 30.6133C57.7133 30.6133 59.4982 32.3982 59.4982 34.4844C59.4982 36.5705 57.7133 38.3553 55.6271 38.3553Z" stroke="#32DEF6" stroke-width="2"/>
<path d="M86.8322 96.8077C75.2283 96.8077 64.204 90.5182 58.2885 80.6971C58.2714 80.652 58.2508 80.5675 58.2508 80.4546C58.2508 80.3396 58.2721 80.2541 58.2895 80.2097C64.1989 70.1986 75.2166 64.1016 86.8322 64.1016C98.4361 64.1016 109.46 70.3911 115.376 80.2122C115.393 80.2573 115.414 80.3418 115.414 80.4546C115.414 80.564 115.394 80.6467 115.377 80.6927C109.254 90.5285 98.4239 96.8077 86.8322 96.8077Z" stroke="#32DEF6" stroke-width="2"/>
<path d="M86.5 95.7129C78.0323 95.7129 71 88.6806 71 80.2129C71 71.7452 78.0323 64.7129 86.5 64.7129C94.9677 64.7129 102 71.7452 102 80.2129C102 88.6806 94.9677 95.7129 86.5 95.7129Z" stroke="#32DEF6" stroke-width="2"/>
<path d="M86.8321 83.6156C85.1207 83.6156 83.57 82.206 83.57 80.3534C83.57 78.642 84.9795 77.0913 86.8321 77.0913C88.5297 77.0913 90.0691 78.478 90.094 80.3084C89.9071 82.1201 88.4265 83.6156 86.8321 83.6156Z" stroke="#32DEF6" stroke-width="2"/>
<path d="M88.1237 65.3418C87.1089 66.7625 86.5 68.3863 86.5 70.2129C86.5 74.678 90.1533 78.3313 94.6184 78.3313C97.2569 78.3313 99.4894 77.3165 101.113 75.084" stroke="#32DEF6" stroke-width="2" stroke-linecap="round"/>
</svg>
