<svg width="180" height="141" viewBox="0 0 180 141" fill="none" xmlns="http://www.w3.org/2000/svg">
<path d="M89.2584 131.531C78.1272 131.531 67.4083 125.759 61.3618 115.453C59.5753 112.292 58.201 108.856 57.6513 105.284L38.6871 99.924C38.2748 99.7866 38 99.5118 38 99.0995C38 98.6873 38.2748 98.4124 38.6871 98.275L57.7888 92.9155C59.3004 85.7696 63.2856 79.1733 69.0574 74.6384C69.4696 74.3635 70.0193 74.3636 70.2942 74.7758C70.569 75.1881 70.569 75.7378 70.1568 76.0126C64.6599 80.4101 60.812 86.7315 59.4378 93.74C59.4378 94.0149 59.163 94.2897 58.7507 94.4272L42.1227 99.0995L58.6133 103.772C58.8882 103.909 59.163 104.184 59.3004 104.459C59.8501 108.032 61.0869 111.468 63.0108 114.628C71.3935 129.058 89.9455 134.005 104.375 125.759C118.804 117.377 123.751 98.8247 115.506 84.3954C111.521 77.3868 104.925 72.4396 97.0915 70.2409C89.2584 68.1796 81.1505 69.2789 74.142 73.2642C73.7297 73.539 73.18 73.4016 72.9052 72.9893C72.6304 72.5771 72.7677 72.0274 73.18 71.7525C80.6008 67.4924 89.2584 66.3931 97.5037 68.5918C105.749 70.7906 112.758 76.15 117.018 83.5708C125.813 98.8247 120.591 118.613 105.337 127.408C100.252 130.019 94.7553 131.531 89.2584 131.531Z" fill="#32DEF6"/>
<path d="M92.6939 86.8692C78.5394 86.8692 65.4843 77.3871 61.6365 63.0952C57.1016 46.0549 67.2708 28.3274 84.3111 23.7925C101.351 19.2576 119.079 29.4268 123.614 46.4672C124.576 50.0401 124.851 53.6131 124.576 57.3235L141.479 67.3553C141.754 67.4927 142.028 67.905 141.891 68.3173C141.754 68.7295 141.479 69.0044 141.066 69.0044L121.14 69.2792C119.216 73.127 116.605 76.4252 113.307 79.1736C112.895 79.4485 112.345 79.4484 112.07 79.0362C111.796 78.6239 111.796 78.0742 112.208 77.7994C115.369 75.0509 117.98 71.7528 119.903 68.0424C120.041 67.7676 120.316 67.4927 120.728 67.4927L137.906 67.2179L123.202 58.4229C122.927 58.2854 122.789 57.8732 122.789 57.5983C123.202 54.0254 122.789 50.315 121.965 46.8794C117.705 30.801 100.939 21.1815 84.8608 25.4416C68.7824 29.7017 59.1629 46.4671 63.423 62.5455C67.6831 78.6239 84.4486 88.2435 100.527 83.9834C103.001 83.2963 105.199 82.3343 107.398 81.2349C107.81 80.9601 108.36 81.0975 108.635 81.6472C108.91 82.0595 108.772 82.6092 108.223 82.884C105.886 84.1208 103.55 85.0828 100.939 85.7699C98.1908 86.5944 95.4423 86.8692 92.6939 86.8692Z" fill="#32DEF6"/>
<path d="M90.77 81.3724C88.4338 81.3724 86.3724 79.4485 86.3724 77.1123C86.3724 74.7762 88.2964 72.7148 90.77 72.7148C93.1061 72.7148 95.1674 74.6387 95.1674 77.1123C95.03 79.4485 93.1061 81.3724 90.77 81.3724ZM90.77 74.5013C89.3957 74.5013 88.1589 75.6007 88.1589 77.1123C88.1589 78.4866 89.2583 79.5859 90.77 79.5859C92.1442 79.5859 93.381 78.4866 93.381 77.1123C93.2435 75.7381 92.1442 74.5013 90.77 74.5013Z" fill="#32DEF6"/>
<path d="M105.062 44.2682H78.8143C78.2647 44.2682 77.8524 43.8559 77.8524 43.4437C77.8524 42.894 78.2647 42.6191 78.8143 42.6191H105.062C105.612 42.6191 106.024 43.0314 106.024 43.4437C105.887 43.8559 105.474 44.2682 105.062 44.2682Z" fill="#32DEF6"/>
<path d="M98.0534 50.4523H71.8058C71.2561 50.4523 70.8439 50.04 70.8439 49.6278C70.8439 49.2155 71.2561 48.8032 71.8058 48.8032H98.0534C98.6031 48.8032 99.0154 49.2155 99.0154 49.6278C99.0154 50.04 98.4657 50.4523 98.0534 50.4523Z" fill="#32DEF6"/>
<path d="M112.62 109.407H86.3726C85.8229 109.407 85.4106 108.994 85.4106 108.582C85.4106 108.17 85.8229 107.758 86.3726 107.758H112.62C113.17 107.758 113.582 108.17 113.582 108.582C113.582 108.994 113.17 109.407 112.62 109.407Z" fill="#32DEF6"/>
<path d="M105.612 115.59H79.364C78.8143 115.59 78.4021 115.178 78.4021 114.766C78.4021 114.216 78.8143 113.941 79.364 113.941H105.612C106.161 113.941 106.574 114.354 106.574 114.766C106.436 115.178 106.024 115.59 105.612 115.59Z" fill="#32DEF6"/>
</svg>
