<svg width="18" height="1673" viewBox="0 0 18 1673" fill="none" xmlns="http://www.w3.org/2000/svg">
<path d="M3.37671 1164.91C3.37671 1168.02 5.89434 1170.53 8.99999 1170.53C12.1056 1170.53 14.6233 1168.02 14.6233 1164.91C14.6233 1161.8 12.1056 1159.29 8.99999 1159.29C5.89434 1159.29 3.37671 1161.8 3.37671 1164.91Z" fill="#0C0826"/>
<path d="M18 1165C18 1169.97 13.9706 1174 9 1174C4.02944 1174 0 1169.97 0 1165C0 1160.03 4.02944 1156 9 1156C13.9706 1156 18 1160.03 18 1165ZM3.37672 1165C3.37672 1168.11 5.89435 1170.62 9 1170.62C12.1057 1170.62 14.6233 1168.11 14.6233 1165C14.6233 1161.89 12.1057 1159.38 9 1159.38C5.89435 1159.38 3.37672 1161.89 3.37672 1165Z" fill="white"/>
<path d="M3.37671 9.71288C3.37671 12.8185 5.89434 15.3362 8.99999 15.3362C12.1056 15.3362 14.6233 12.8185 14.6233 9.71288C14.6233 6.60723 12.1056 4.0896 8.99999 4.0896C5.89434 4.0896 3.37671 6.60723 3.37671 9.71288Z" fill="#0C0826"/>
<path d="M18 9.71289C18 14.6835 13.9706 18.7129 9 18.7129C4.02944 18.7129 0 14.6835 0 9.71289C0 4.74233 4.02944 0.712891 9 0.712891C13.9706 0.712891 18 4.74233 18 9.71289ZM3.37672 9.71289C3.37672 12.8185 5.89435 15.3362 9 15.3362C12.1057 15.3362 14.6233 12.8185 14.6233 9.71289C14.6233 6.60724 12.1057 4.08961 9 4.08961C5.89435 4.08961 3.37672 6.60724 3.37672 9.71289Z" fill="white"/>
<path d="M3.37671 662.623C3.37671 665.729 5.89434 668.247 8.99999 668.247C12.1056 668.247 14.6233 665.729 14.6233 662.623C14.6233 659.518 12.1056 657 8.99999 657C5.89434 657 3.37671 659.518 3.37671 662.623Z" fill="#0C0826"/>
<path d="M18 662.713C18 667.683 13.9706 671.713 9 671.713C4.02944 671.713 0 667.683 0 662.713C0 657.742 4.02944 653.713 9 653.713C13.9706 653.713 18 657.742 18 662.713ZM3.37672 662.713C3.37672 665.819 5.89435 668.336 9 668.336C12.1057 668.336 14.6233 665.819 14.6233 662.713C14.6233 659.607 12.1057 657.09 9 657.09C5.89435 657.09 3.37672 659.607 3.37672 662.713Z" fill="white"/>
<path d="M3.37671 1663.91C3.37671 1667.02 5.89434 1669.53 8.99999 1669.53C12.1056 1669.53 14.6233 1667.02 14.6233 1663.91C14.6233 1660.8 12.1056 1658.29 8.99999 1658.29C5.89434 1658.29 3.37671 1660.8 3.37671 1663.91Z" fill="#0C0826"/>
<path d="M18 1664C18 1668.97 13.9706 1673 9 1673C4.02944 1673 0 1668.97 0 1664C0 1659.03 4.02944 1655 9 1655C13.9706 1655 18 1659.03 18 1664ZM3.37672 1664C3.37672 1667.11 5.89435 1669.62 9 1669.62C12.1057 1669.62 14.6233 1667.11 14.6233 1664C14.6233 1660.89 12.1057 1658.38 9 1658.38C5.89435 1658.38 3.37672 1660.89 3.37672 1664Z" fill="white"/>
<path d="M9 17.7129L9 654.713M9 670.213L9 1157.21M9 1172.21L9 1656.71" stroke="white" stroke-width="3.5"/>
</svg>
