<svg width="221" height="60" viewBox="0 0 221 60" fill="none" xmlns="http://www.w3.org/2000/svg">
<path d="M29 51.3184V9H55.6971V14.1123H34.543V27.8018H53.7174V32.9141H34.543V51.3184H29Z" fill="white"/>
<path d="M71.6046 52C69.4176 52 67.4379 51.4888 65.6656 50.4663C63.9311 49.4439 62.5736 48.0238 61.5932 46.2061C60.6505 44.3505 60.1792 42.2299 60.1792 39.8441V20.7015H65.4394V39.2761C65.4394 40.7908 65.741 42.1162 66.3444 43.2523C66.9854 44.3884 67.8527 45.2783 68.9462 45.9221C70.0774 46.5658 71.3595 46.8877 72.7924 46.8877C74.2253 46.8877 75.4885 46.5658 76.582 45.9221C77.7133 45.2783 78.5805 44.3505 79.1839 43.1387C79.8249 41.9269 80.1454 40.4879 80.1454 38.8217V20.7015H85.4622V25.7569V51.3184H80.3151V45.354L81.1635 45.8653C80.4471 47.7966 79.2216 49.3113 77.487 50.4095C75.7902 51.4698 73.8294 52 71.6046 52Z" fill="white"/>
<path d="M105.998 51.6592C103.02 51.6592 100.719 50.8071 99.098 49.103C97.5143 47.3989 96.7224 44.9943 96.7224 41.889V25.7569H91.1793V20.7015H92.3106C93.6681 20.7015 94.7427 20.2849 95.5346 19.4518C96.3265 18.6187 96.7224 17.5205 96.7224 16.1572V9H99.3525H101.983V20.7015H108.827V25.7569H101.983V41.7186C101.983 42.7411 102.133 43.631 102.435 44.3884C102.774 45.1458 103.321 45.7517 104.075 46.2061C104.83 46.6226 105.829 46.8309 107.073 46.8309C107.337 46.8309 107.658 46.812 108.035 46.7741C108.449 46.7362 108.827 46.6984 109.166 46.6605V51.3184C108.676 51.432 108.129 51.5077 107.526 51.5456C106.922 51.6213 106.413 51.6592 105.998 51.6592Z" fill="white"/>
<path d="M126.841 52C124.654 52 122.674 51.4888 120.902 50.4663C119.167 49.4439 117.81 48.0238 116.829 46.2061C115.886 44.3505 115.415 42.2299 115.415 39.8441V25.7569V20.7015H120.675V39.2761C120.675 40.7908 120.977 42.1162 121.58 43.2523C122.221 44.3884 123.089 45.2783 124.182 45.9221C125.313 46.5658 126.595 46.8877 128.028 46.8877C129.461 46.8877 130.724 46.5658 131.818 45.9221C132.949 45.2783 133.816 44.3505 134.42 43.1387C135.061 41.9269 135.381 40.4879 135.381 38.8217V20.7015H140.698V51.3184H135.551V45.354L136.399 45.8653C135.683 47.7966 134.458 49.3113 132.723 50.4095C131.026 51.4698 129.065 52 126.841 52Z" fill="white"/>
<path d="M148.847 51.3184V20.7015H153.995V26.325L153.429 25.5297C154.145 23.7878 155.239 22.5002 156.71 21.6671C158.18 20.7961 159.971 20.3606 162.083 20.3606H163.949V25.3593H161.291C159.142 25.3593 157.407 26.041 156.087 27.4042C154.768 28.7296 154.108 30.6231 154.108 33.0845V51.3184H148.847Z" fill="white"/>
<path d="M177.559 52C175.56 52 173.788 51.6402 172.242 50.9207C170.734 50.1634 169.546 49.1409 168.678 47.8534C167.811 46.528 167.378 45.0132 167.378 43.3091C167.378 41.6808 167.717 40.2228 168.396 38.9353C169.112 37.6099 170.206 36.4927 171.676 35.5839C173.185 34.675 175.07 34.0313 177.332 33.6526L188.645 31.7781V36.2087L178.52 37.9128C176.559 38.2536 175.127 38.8785 174.222 39.7873C173.354 40.6962 172.921 41.8133 172.921 43.1387C172.921 44.3884 173.411 45.4298 174.391 46.2629C175.409 47.096 176.673 47.5126 178.181 47.5126C180.104 47.5126 181.763 47.1149 183.158 46.3197C184.591 45.4866 185.704 44.3694 186.495 42.9683C187.325 41.5672 187.74 40.0145 187.74 38.3104V30.5284C187.74 28.8622 187.118 27.5178 185.873 26.4954C184.667 25.4351 183.064 24.9049 181.066 24.9049C179.331 24.9049 177.785 25.3593 176.427 26.2682C175.108 27.1391 174.127 28.3131 173.486 29.79L168.905 27.4042C169.47 26.0031 170.375 24.7534 171.62 23.6552C172.864 22.5192 174.316 21.6292 175.975 20.9855C177.634 20.3417 179.369 20.0198 181.179 20.0198C183.517 20.0198 185.572 20.4742 187.344 21.3831C189.116 22.2541 190.492 23.4848 191.473 25.0753C192.491 26.6279 193 28.4456 193 30.5284V51.3184H187.853V45.5244L188.814 45.8653C188.173 47.0771 187.306 48.1374 186.213 49.0462C185.119 49.9551 183.837 50.6746 182.366 51.2048C180.896 51.7349 179.293 52 177.559 52Z" fill="white"/>
<path d="M91.1793 25.7569V20.7015H85.4622V25.7569H91.1793Z" fill="white"/>
<path d="M108.827 20.7015V25.7569H115.415V20.7015H108.827Z" fill="white"/>
</svg>
