<svg width="221" height="60" viewBox="0 0 221 60" fill="none" xmlns="http://www.w3.org/2000/svg">
<path d="M24 48.4328V12.1343H46.0207V16.0336H28.4472V28.2985H44.3709V32.1978H28.4472V48.4328H24Z" fill="white"/>
<path d="M68.6959 37.3022V21.209H72.9278V48.4328H68.6959V43.8246H68.4089C67.7634 45.2071 66.7592 46.3828 65.3963 47.3517C64.0335 48.3088 62.312 48.7873 60.2319 48.7873C58.5104 48.7873 56.9802 48.4151 55.6413 47.6707C54.3023 46.9145 53.2503 45.7802 52.4852 44.2677C51.7201 42.7435 51.3375 40.8234 51.3375 38.5075V21.209H55.5695V38.2239C55.5695 40.209 56.1314 41.7923 57.2551 42.9739C58.3908 44.1555 59.8374 44.7463 61.5947 44.7463C62.6467 44.7463 63.7167 44.4804 64.8046 43.9487C65.9044 43.417 66.8249 42.6017 67.5661 41.5028C68.3193 40.4039 68.6959 39.0037 68.6959 37.3022Z" fill="white"/>
<path d="M92.6577 21.209V24.7537H78.3837V21.209H92.6577ZM82.5439 14.6866H86.7759V40.6343C86.7759 41.8159 86.9493 42.7021 87.296 43.2929C87.6546 43.8719 88.1089 44.2618 88.6588 44.4627C89.2207 44.6517 89.8124 44.7463 90.4341 44.7463C90.9003 44.7463 91.2829 44.7226 91.5817 44.6754C91.8806 44.6163 92.1197 44.569 92.299 44.5336L93.1598 48.291C92.8729 48.3974 92.4724 48.5037 91.9583 48.6101C91.4443 48.7282 90.7927 48.7873 90.0037 48.7873C88.8082 48.7873 87.6367 48.5333 86.489 48.0252C85.3533 47.5171 84.4089 46.7432 83.6557 45.7034C82.9145 44.6636 82.5439 43.352 82.5439 41.7687V14.6866Z" fill="white"/>
<path d="M116.382 37.3022V21.209H120.614V48.4328H116.382V43.8246H116.095C115.449 45.2071 114.445 46.3828 113.082 47.3517C111.72 48.3088 109.998 48.7873 107.918 48.7873C106.196 48.7873 104.666 48.4151 103.327 47.6707C101.988 46.9145 100.936 45.7802 100.171 44.2677C99.4061 42.7435 99.0236 40.8234 99.0236 38.5075V21.209H103.256V38.2239C103.256 40.209 103.817 41.7923 104.941 42.9739C106.077 44.1555 107.523 44.7463 109.281 44.7463C110.333 44.7463 111.403 44.4804 112.491 43.9487C113.59 43.417 114.511 42.6017 115.252 41.5028C116.005 40.4039 116.382 39.0037 116.382 37.3022Z" fill="white"/>
<path d="M128.365 48.4328V21.209H132.454V25.3209H132.74C133.243 23.9739 134.151 22.8809 135.466 22.042C136.781 21.203 138.264 20.7836 139.913 20.7836C140.224 20.7836 140.613 20.7895 141.079 20.8013C141.545 20.8131 141.898 20.8308 142.137 20.8545V25.1082C141.993 25.0728 141.665 25.0196 141.151 24.9487C140.649 24.866 140.117 24.8246 139.555 24.8246C138.216 24.8246 137.02 25.1023 135.968 25.6576C134.928 26.2012 134.103 26.9574 133.494 27.9263C132.896 28.8834 132.597 29.9764 132.597 31.2052V48.4328H128.365Z" fill="white"/>
<path d="M147.153 48.4328V21.209H151.385V48.4328H147.153Z" fill="white"/>
<path d="M178.647 27.306L174.845 28.3694C174.606 27.7432 174.253 27.1346 173.787 26.5438C173.333 25.9412 172.711 25.445 171.922 25.055C171.133 24.6651 170.123 24.4701 168.892 24.4701C167.206 24.4701 165.801 24.8542 164.678 25.6222C163.566 26.3784 163.01 27.3414 163.01 28.5112C163.01 29.551 163.392 30.3722 164.158 30.9748C164.923 31.5774 166.118 32.0796 167.744 32.4813L171.833 33.4739C174.295 34.0647 176.13 34.9686 177.338 36.1856C178.545 37.3909 179.149 38.9447 179.149 40.847C179.149 42.4067 178.695 43.801 177.786 45.0299C176.889 46.2587 175.634 47.2276 174.02 47.9366C172.406 48.6455 170.529 49 168.39 49C165.58 49 163.255 48.3974 161.414 47.1922C159.573 45.9869 158.407 44.2264 157.917 41.9104L161.934 40.9179C162.317 42.3831 163.04 43.482 164.104 44.2146C165.18 44.9471 166.584 45.3134 168.318 45.3134C170.29 45.3134 171.856 44.8999 173.016 44.0728C174.188 43.2338 174.773 42.2295 174.773 41.0597C174.773 40.1144 174.439 39.3228 173.769 38.6847C173.1 38.0348 172.072 37.5504 170.685 37.2313L166.094 36.1679C163.572 35.5771 161.719 34.6614 160.535 33.4207C159.364 32.1682 158.778 30.6026 158.778 28.7239C158.778 27.1878 159.214 25.829 160.087 24.6474C160.972 23.4658 162.173 22.5382 163.691 21.8647C165.222 21.1912 166.955 20.8545 168.892 20.8545C171.617 20.8545 173.757 21.4453 175.311 22.6269C176.877 23.8085 177.989 25.3682 178.647 27.306Z" fill="white"/>
<path d="M197.498 21.209V24.7537H183.224V21.209H197.498ZM187.384 14.6866H191.616V40.6343C191.616 41.8159 191.79 42.7021 192.136 43.2929C192.495 43.8719 192.949 44.2618 193.499 44.4627C194.061 44.6517 194.653 44.7463 195.274 44.7463C195.741 44.7463 196.123 44.7226 196.422 44.6754C196.721 44.6163 196.96 44.569 197.139 44.5336L198 48.291C197.713 48.3974 197.313 48.5037 196.799 48.6101C196.284 48.7282 195.633 48.7873 194.844 48.7873C193.648 48.7873 192.477 48.5333 191.329 48.0252C190.194 47.5171 189.249 46.7432 188.496 45.7034C187.755 44.6636 187.384 43.352 187.384 41.7687V14.6866Z" fill="white"/>
<path d="M142.718 2.71751L149.435 6.87003L156.153 2.71751L152 9.43503L156.153 16.1525L149.435 12L142.718 16.1525L146.87 9.43503L142.718 2.71751Z" fill="#32DEF6"/>
</svg>
